<mxfile host="app.diagrams.net" modified="2022-05-08T16:13:21.109Z" agent="5.0 (Macintosh; Intel Mac OS X 10_15_7) AppleWebKit/605.1.15 (KHTML, like Gecko) Version/15.1 Safari/605.1.15" etag="XJuSUvM3s4vSDoFcsu81" version="18.0.2" type="github">
  <diagram id="gOyxTZhca31o4sByQUJz" name="Page-1">
    <mxGraphModel dx="1453" dy="716" grid="1" gridSize="10" guides="1" tooltips="1" connect="1" arrows="1" fold="1" page="1" pageScale="1" pageWidth="827" pageHeight="1169" math="0" shadow="0">
      <root>
        <mxCell id="0" />
        <mxCell id="1" parent="0" />
        <mxCell id="uCTicKS0ZdumBR-8Xd1L-43" style="edgeStyle=orthogonalEdgeStyle;rounded=0;orthogonalLoop=1;jettySize=auto;html=1;entryX=0.75;entryY=0;entryDx=0;entryDy=0;fontSize=14;strokeColor=#97D077;strokeWidth=3;" edge="1" parent="1" source="uCTicKS0ZdumBR-8Xd1L-22" target="uCTicKS0ZdumBR-8Xd1L-24">
          <mxGeometry relative="1" as="geometry">
            <Array as="points">
              <mxPoint x="584" y="320" />
              <mxPoint x="584" y="200" />
              <mxPoint x="706" y="200" />
            </Array>
          </mxGeometry>
        </mxCell>
        <mxCell id="uCTicKS0ZdumBR-8Xd1L-22" value="" style="points=[];aspect=fixed;html=1;align=center;shadow=0;dashed=0;image;image=img/lib/allied_telesis/storage/Datacenter_Server_Rack.svg;" vertex="1" parent="1">
          <mxGeometry x="474" y="258.1" width="88.2" height="178.8" as="geometry" />
        </mxCell>
        <mxCell id="uCTicKS0ZdumBR-8Xd1L-46" style="edgeStyle=orthogonalEdgeStyle;rounded=0;orthogonalLoop=1;jettySize=auto;html=1;exitX=0.25;exitY=0;exitDx=0;exitDy=0;entryX=0.202;entryY=1.039;entryDx=0;entryDy=0;entryPerimeter=0;fontSize=14;strokeColor=#EA6B66;strokeWidth=3;" edge="1" parent="1" source="uCTicKS0ZdumBR-8Xd1L-23" target="uCTicKS0ZdumBR-8Xd1L-24">
          <mxGeometry relative="1" as="geometry" />
        </mxCell>
        <mxCell id="uCTicKS0ZdumBR-8Xd1L-47" style="edgeStyle=orthogonalEdgeStyle;rounded=0;orthogonalLoop=1;jettySize=auto;html=1;exitX=0.75;exitY=1;exitDx=0;exitDy=0;entryX=0.75;entryY=0;entryDx=0;entryDy=0;fontSize=14;strokeColor=#97D077;strokeWidth=3;" edge="1" parent="1" source="uCTicKS0ZdumBR-8Xd1L-23" target="uCTicKS0ZdumBR-8Xd1L-26">
          <mxGeometry relative="1" as="geometry">
            <Array as="points">
              <mxPoint x="710" y="419" />
            </Array>
          </mxGeometry>
        </mxCell>
        <mxCell id="uCTicKS0ZdumBR-8Xd1L-23" value="" style="shape=image;verticalLabelPosition=bottom;labelBackgroundColor=default;verticalAlign=top;aspect=fixed;imageAspect=0;image=data:image/png,iVBORw0KGgoAAAANSUhEUgAABLoAAAQACAYAAADmyTBzAAAMamlDQ1BJQ0MgUHJvZmlsZQAASImVVwdUU8kanluSkJDQAhGQEnoTRHqREkKLICBVsBGSQEKJMSGo2FBZVHDtIooVK6Lo6grIoiL2sij2vlhQUdbFgqKovEkBXfeV8/5z5s6Xb/75W2bunQFAu5crkeSiOgDkifOl8REhzLGpaUzSU4AAfUABBGDM5ckkrLi4aABloP+7vL8BtaFcdVbY+uf4fxU9vkDGAwAZD3EGX8bLg7gZAHw9TyLNB4Co4K2m5ksUuAhifSkMEOJVCpylwrsUOEOFm5Q6ifFsiC8DoEHlcqVZAGjdgzyzgJcF7Wh9hthVzBeJAdAeBnEgT8jlQ6yIfVhe3mQFroDYHupLIIbxAJ+M72xm/c1+xqB9LjdrEKvyUopGqEgmyeVO/z9L878lL1c+4MMWNqpQGhmvyB/W8FbO5CgFpkLcJc6IiVXUGuJeEV9VdwBQilAemaTSR014MjasH2BA7MrnhkZBbAJxuDg3JlrNZ2SKwjkQw9WCThPlcxIhNoR4oUAWlqDW2SydHK/2hdZlStksNX+WK1X6Vfh6IM9JYqntvxEKOGr7mFahMDEFYgrE1gWi5BiItSB2keUkRKl1RhYK2TEDOlJ5vCJ+a4jjBeKIEJV9rCBTGh6v1i/Nkw3ki20WijgxanwgX5gYqaoPdpLHVcYPc8EuC8SspAE7AtnY6IFc+ILQMFXu2HOBOClBbadXkh8Sr5qLUyS5cWp93FKQG6HgLSH2kBUkqOfiyflwcars45mS/LhEVZx4YTZ3VJwqHnwZiAZsEAqYQA5bBpgMsoGotau+C/5SjYQDLpCCLCAAzmpmYEaKckQMnwmgEPwJkQDIBueFKEcFoADyXwZZ1dMZZCpHC5QzcsBTiPNAFMiFv+XKWeJBb8ngCWRE//DOhY0H482FTTH+7/kB9hvDgky0mpEPeGRqD2gSw4ihxEhiONEBN8YDcX88Gj6DYXPDfXDfgTy+6ROeEtoIjwjXCe2E25NE86Q/RDkatEP74epaZHxfC9wW2vTEQ/AAaB1axhm4MXDGPaAfFh4EPXtClq2OW1EV5g+2/5bBd/+GWo/sSkbJQ8jBZPsfZ2o5ankOWlHU+vv6qGLNGKw3e3DkR//s76rPh33Uj5rYQuwgdgY7jp3DmrB6wMSOYQ3YReyIAg+urifK1TXgLV4ZTw60I/qHP67ap6KSMtca107Xz6qxfMG0fMXGY0+WTJeKsoT5TBb8OgiYHDHPZRjTzdXNDQDFt0b1+nrLUH5DEMb5b9x8bwACivv7+5u+cVHbATiYCrf/tW+c3Uf4jrYC4OxGnlxaoOJwxYMA3xLacKcZATNgBexhPm7AC/iDYBAGRoFYkAhSwURYZSFc51IwFcwEc0EJKAPLwGqwDmwCW8EusBccAPWgCRwHp8EFcBlcB3fh6ukAL0E3eA/6EAQhITSEjhgh5ogN4oS4IT5IIBKGRCPxSCqSjmQhYkSOzETmI2XICmQdsgWpRn5BDiPHkXNIG3IbeYh0Im+QTyiGUlF91BS1RYejPigLjUIT0QloFjoFLUSL0SVoBVqF7kHr0OPoBfQ62o6+RHswgGliDMwCc8Z8MDYWi6VhmZgUm42VYuVYFVaLNcL/+SrWjnVhH3EiTseZuDNcwZF4Es7Dp+Cz8cX4OnwXXoefxK/iD/Fu/CuBRjAhOBH8CBzCWEIWYSqhhFBO2EE4RDgF91IH4T2RSGQQ7YjecC+mErOJM4iLiRuI+4jNxDbiY2IPiUQyIjmRAkixJC4pn1RCWkvaQzpGukLqIPVqaGqYa7hphGukaYg15mmUa+zWOKpxReOZRh9Zh2xD9iPHkvnk6eSl5G3kRvIlcge5j6JLsaMEUBIp2ZS5lApKLeUU5R7lraampqWmr+YYTZFmkWaF5n7Ns5oPNT9S9aiOVDZ1PFVOXULdSW2m3qa+pdFotrRgWhotn7aEVk07QXtA69Wia7locbT4WnO0KrXqtK5ovdIma9tos7Qnahdql2sf1L6k3aVD1rHVYetwdWbrVOoc1rmp06NL1x2hG6ubp7tYd7fuOd3neiQ9W70wPb5esd5WvRN6j+kY3YrOpvPo8+nb6KfoHfpEfTt9jn62fpn+Xv1W/W4DPQMPg2SDaQaVBkcM2hkYw5bBYeQyljIOMG4wPg0xHcIaIhiyaEjtkCtDPhgONQw2FBiWGu4zvG74yYhpFGaUY7TcqN7ovjFu7Gg8xniq8UbjU8ZdQ/WH+g/lDS0demDoHRPUxNEk3mSGyVaTiyY9pmamEaYS07WmJ0y7zBhmwWbZZqvMjpp1mtPNA81F5qvMj5m/YBowWcxcZgXzJLPbwsQi0kJuscWi1aLP0s4yyXKe5T7L+1YUKx+rTKtVVi1W3dbm1qOtZ1rXWN+xIdv42Aht1ticsflga2ebYrvAtt72uZ2hHceu0K7G7p49zT7Ifop9lf01B6KDj0OOwwaHy46oo6ej0LHS8ZIT6uTlJHLa4NQ2jDDMd5h4WNWwm85UZ5ZzgXON80MXhku0yzyXepdXw62Hpw1fPvzM8K+unq65rttc747QGzFqxLwRjSPeuDm68dwq3a6509zD3ee4N7i/9nDyEHhs9LjlSfcc7bnAs8Xzi5e3l9Sr1qvT29o73Xu9900ffZ84n8U+Z30JviG+c3ybfD/6efnl+x3w+8vf2T/Hf7f/85F2IwUjt418HGAZwA3YEtAeyAxMD9wc2B5kEcQNqgp6FGwVzA/eEfyM5cDKZu1hvQpxDZGGHAr5wPZjz2I3h2KhEaGloa1hemFJYevCHoRbhmeF14R3R3hGzIhojiRERkUuj7zJMeXwONWc7lHeo2aNOhlFjUqIWhf1KNoxWhrdOBodPWr0ytH3YmxixDH1sSCWE7sy9n6cXdyUuN/GEMfEjakc8zR+RPzM+DMJ9IRJCbsT3ieGJC5NvJtknyRPaknWTh6fXJ38ISU0ZUVK+9jhY2eNvZBqnCpKbUgjpSWn7UjrGRc2bvW4jvGe40vG35hgN2HahHMTjSfmTjwySXsSd9LBdEJ6Svru9M/cWG4VtyeDk7E+o5vH5q3hveQH81fxOwUBghWCZ5kBmSsyn2cFZK3M6hQGCcuFXSK2aJ3odXZk9qbsDzmxOTtz+nNTcvflaeSl5x0W64lzxCcnm02eNrlN4iQpkbRP8Zuyekq3NEq6Q4bIJsga8vXhof6i3F7+k/xhQWBBZUHv1OSpB6fpThNPuzjdcfqi6c8Kwwu3z8Bn8Ga0zLSYOXfmw1msWVtmI7MzZrfMsZpTPKejKKJo11zK3Jy5v89znbdi3rv5KfMbi02Li4of/xTxU02JVom05OYC/wWbFuILRQtbF7kvWrvoaym/9HyZa1l52efFvMXnfx7xc8XP/Usyl7Qu9Vq6cRlxmXjZjeVBy3et0F1RuOLxytEr61YxV5Wuerd60upz5R7lm9ZQ1sjXtFdEVzSstV67bO3ndcJ11ytDKvetN1m/aP2HDfwNVzYGb6zdZLqpbNOnzaLNt7ZEbKmrsq0q30rcWrD16bbkbWe2+2yv3mG8o2zHl53ine274nedrPaurt5tsntpDVojr+ncM37P5b2hextqnWu37GPsK9sP9sv3v/gl/ZcbB6IOtBz0OVj7q82v6w/RD5XWIXXT67rrhfXtDakNbYdHHW5p9G889JvLbzubLJoqjxgcWXqUcrT4aP+xwmM9zZLmruNZxx+3TGq5e2LsiWsnx5xsPRV16uzp8NMnzrDOHDsbcLbpnN+5w+d9ztdf8LpQd9Hz4qHfPX8/1OrVWnfJ+1LDZd/LjW0j245eCbpy/Gro1dPXONcuXI+53nYj6catm+Nvtt/i33p+O/f26zsFd/ruFt0j3Cu9r3O//IHJg6o/HP7Y1+7VfuRh6MOLjxIe3X3Me/zyiezJ547ip7Sn5c/Mn1U/d3ve1BneefnFuBcdLyUv+7pK/tT9c/0r+1e//hX818Xusd0dr6Wv+98sfmv0duc7j3ctPXE9D97nve/7UNpr1Lvro8/HM59SPj3rm/qZ9Lnii8OXxq9RX+/15/X3S7hSrvIogMGGZmYC8GYnADR4dqDDextlnOouqBREdX9VIvCfsOq+qBQvAGphpzjGs5sB2A+bbZHyqgIUR/jEYIC6uw82tcgy3d1UtqjwJkTo7e9/awoAqRGAL9L+/r4N/f1ftsFgbwPQPEV1B1UIEd4ZNgcq0HVDfhH4QVT30+9y/LEHigg8wI/9vwBaGo8EjDGSdAAAAIplWElmTU0AKgAAAAgABAEaAAUAAAABAAAAPgEbAAUAAAABAAAARgEoAAMAAAABAAIAAIdpAAQAAAABAAAATgAAAAAAAACQAAAAAQAAAJAAAAABAAOShgAHAAAAEgAAAHigAgAEAAAAAQAABLqgAwAEAAAAAQAABAAAAAAAQVNDSUkAAABTY3JlZW5zaG90wH9y6AAAAAlwSFlzAAAWJQAAFiUBSVIk8AAAAdhpVFh0WE1MOmNvbS5hZG9iZS54bXAAAAAAADx4OnhtcG1ldGEgeG1sbnM6eD0iYWRvYmU6bnM6bWV0YS8iIHg6eG1wdGs9IlhNUCBDb3JlIDYuMC4wIj4KICAgPHJkZjpSREYgeG1sbnM6cmRmPSJodHRwOi8vd3d3LnczLm9yZy8xOTk5LzAyLzIyLXJkZi1zeW50YXgtbnMjIj4KICAgICAgPHJkZjpEZXNjcmlwdGlvbiByZGY6YWJvdXQ9IiIKICAgICAgICAgICAgeG1sbnM6ZXhpZj0iaHR0cDovL25zLmFkb2JlLmNvbS9leGlmLzEuMC8iPgogICAgICAgICA8ZXhpZjpQaXhlbFlEaW1lbnNpb24+MTAyNDwvZXhpZjpQaXhlbFlEaW1lbnNpb24+CiAgICAgICAgIDxleGlmOlBpeGVsWERpbWVuc2lvbj4xMjEwPC9leGlmOlBpeGVsWERpbWVuc2lvbj4KICAgICAgICAgPGV4aWY6VXNlckNvbW1lbnQ+U2NyZWVuc2hvdDwvZXhpZjpVc2VyQ29tbWVudD4KICAgICAgPC9yZGY6RGVzY3JpcHRpb24+CiAgIDwvcmRmOlJERj4KPC94OnhtcG1ldGE+ClTqQvUAAAAcaURPVAAAAAIAAAAAAAACAAAAACgAAAIAAAACAAAAkspPIm6WAABAAElEQVR4Aezdd4AcZd0H8NylEggpJPRepffeROlIkSrF8oqIqIAoAoIUQQTpiCJIERABkY4NkBK6AqIiVUB6JyGB9HKv7293X7hwSfb2ZmZnZj/+cc/t7Mzv+T2fZ4H4ZZht6/jv/3r5HwECBAgQIECAAAECBAgQIECAAIGCC7QJugq+g9onQIAAAQIECBAgQIAAAQIECBAIAUGXDwIBAgQIECBAgAABAgQIECBAgEApBARdpdhGiyBAgAABAgQIECBAgAABAgQIEBB0+QwQIECAAAECBAgQIECAAAECBAiUQkDQVYpttAgCBAgQIECAAAECBAgQIECAAAFBl88AAQIECBAgQIAAAQIECBAgQIBAKQQEXaXYRosgQIAAAQIECBAgQIAAAQIECBAQdPkMECBAgAABAgQIECBAgAABAgQIlEJA0FWKbbQIAgQIECBAgAABAgQIECBAgAABQZfPAAECBAgQIECAAAECBAgQIECAQCkEBF2l2EaLIECAAAECBAgQIECAAAECBAgQEHT5DBAgQIAAAQIECBAgQIAAAQIECJRCQNBVim20CAIECBAgQIAAAQIECBAgQIAAAUGXzwABAgQIECBAgAABAgQIECBAgEApBARdpdhGiyBAgAABAgQIECBAgAABAgQIEBB0+QwQyFBg/ORxMdtTrz0R47xzzx/jgkMXirG9rT1GPwgQIECAAAECBAgQIECAAIHuCwi6um/mCgINCwi6GqZzIQECBAgQIECAAAECBAgQmK2AoGu2RE4gkLzAnx//UxS96v5LYqzdybXYiKXj9YoLrxzjKousHuMSI5aKsa2tLUY/CBAgQIAAAQIECBAgQIAAgY8LCLo+buIIgdQFBF2pE5uAAAECBAgQIECAAAECBFpQQNDVgptuyfkReHXUK9HMxXf/PMZ/v/5kl80NGjB3HF9h4VVjXGXR1apj5Y6vwXMM6fI6B8shMHnq5FhIvz79yrEgqyBAgAABAgQIECBAgEBKAoKulGCVJVCPgKCrHiXnCLp8BggQIECAAAECBAgQIFCfgKCrPidnEUhVoKNXR9S/+6k7Yrz6gV/F+P7EsbOct/bMrqXmWzbOW2epDTqNw+acZ5bXe7MYAode8fVodMGhC8e4y9p7xrjY8CWKsQBdEiBAgAABAgQIECBAICMBQVdG0KYhMCsBQdesdLwn6PIZIECAAAECBAgQIECAQH0Cgq76nJxFIFOBDya9H/Nd9cBlMd5TvdOro6Ny59fsmnGn1+yEivX+Vy/cKxqeOGVijLX93WDZTeP1rutU3p9nruHFWphuCRAgQIAAAQIECBAgkLCAoCthUOUIJCEg6EpCsTw1BF3l2UsrIUCAAAECBAgQIEAgXQFBV7q+qhNIROCZN56KOpfefX6ML7/7YkN1a3cCLTXfcnH9pst/Osb1l94oxn59+jdU10XpCuz7iz1iginTpnQ5Ud/efeP4xstvHuP2q382Rnd4dcnlIAECBAgQIECAAAECJRYQdJV4cy2tPAKCrvLsZSMrEXQ1ouYaAgQIECBAgAABAgRaUUDQ1Yq7bs2FFZg2fVr0fueTt8V4w0O/iXHshDE9WtMc/QbG9etW7+z61ApbxuvFRyzZo7ouTkbg67/8YhT6YGLl2W2zq1q7c+8TC64Up2603CdjXHOJdWIc2G/OGP0gQIAAAQIECBAgQIBA2QQEXWXbUesptYCgq9TbO9PFCbpmSuMNAgQIECBAgAABAgQIdBIQdHXi8IJAsQQmTB4fDd/4yDUx3vbYH2KcMm1yIgtZrHpH1yerd3htuMzGUXdA3zkSqa9IfQKHXP7VOPHd99+p74KZnNW7vXe8s/iIpWNcaZFVY1y+eufXEtX9rt3hN5MyDhMgQIAAAQIECBAgQCC3AoKu3G6NxgjMXkDQNXujMpwh6CrDLloDAQIECBAgQIAAAQJZCAi6slA2B4GMBN5+/62Y6aoHLovx4eceiLGjV0ciHdTu9Nlg2U2j3uYrbhPjQsMWTqS+Il0LHHHVwfHGa6Nf7vqEhI7Wnu013+AFo2LtGW0LDq3s7/yDF4jjCwxZKMb5h1Re9+8zIKEOlCFAgAABAgQIECBAgEDPBARdPfNzNYFcCQi6crUdiTUj6EqMUiECBAgQIECAAAECBEouIOgq+QZbXmsL/PuNpwPg1/dfHOPzb/47UZC2Xm1Rb7mFVoxx8xW3jnHNJdaNsfZMqHjhR8MCx157WFz7n7eebbhGmhfW7vQbMuewmGbIwKExDq2+nrP/XPF6YPXbPefoX/mWz9p1tbHWY+1bIWt3mNWO9+/TP37t296ndijGAdW6tc9b/76V82p1+vbu2+l8LwgQIECAAAECBAgQKK+AoKu8e2tlBHoJusrxIRB0VfZR0FWOz7NVECBAgAABAgQIEEhTQNCVpq7aBHIiUHtG11+evS86uv7hq2N8ffQrqXQ4uHpHz7pLbxj1112qMi45b+Xb/mp33qQyeQmLnnTTsbGqJ199rISrS39J/ap3gn14R9mcMemgAXPHOGyueWKce47BM7weEq9HDJo3xvmqzygbMrByPA76QYAAAQIECBAgQIBArgQEXbnaDs0QSEdA0JWOa1ZVBV09kxZ09czP1QQIECBAgAABAgSKJCDoKtJu6ZVAQgIdHZVvYbz/2Xui4k2P/DbG10e/mtAMXZcZ0Lfy7XzLLLB8nLDCwivHuObilWd61b7Vr+urW/foWX/6cSz+b//5S+si5GjlteBs+NzzRVfzVscFh1S+nXLheRaJ4wsPXTTG2reS9u3dL0er0AoBAgQIECBAgACBcgoIusq5r1ZFYJYCgq5Z8uTuTUFXvrZE0JWv/dANAQIECBAgQIAAgY8KCLo+quF3Ai0q8GHwdXcI3PjwNTG+8V66d3jNyL3A0ModMasvvk68tc6S68VYe7bXjOe3yutf3HlOLPXep+5slSWXap3tbe2xnvmGLBDjEiMqz6pbav7l4vXS8y4T46LzLB6jZ9gFgx8ECBAgQIAAAQIEGhIQdDXE5iIC5RIQdOV7PwVd+d6f2XUn6JqdkPcJECBAgAABAgQIJCcg6ErOUiUCpRGY3jE91nL/v2vP8GrOHV410OHVb71be6kN4tB61XGJ6rc41s4r63j5fb+Mpd36z5vLukTr+q9A/+q3Qy634IrhsfKiq1fGhVeLccGhC8XoBwECBAgQIECAAAECMxcQdM3cxjsEWlZA0JWvrRd05Ws/0upG0JWWrLoECBAgQIAAAQKtJCDoaqXdtlYCDQrU/tPGR198OCpc+9crYnz53RcbrJjMZfMMGh6FVl+s8kyvdZeu3PG1bPVbHdt6tSUzUZOrXP/wb6KD6x+qjE1ux/RNEph/SOWOrnWrdzRuuvzm0cnwQSOa1JFpCRAgQIAAAQIECORPQNCVvz3REYHcCQi6mrslgq7m+udldkFXXnZCHwQIECBAgAABAnkWEHTleXf0RiCnArXg68Hn7osOb6jecfT66Gy/pXFmPPMOnj/eWnvJ6jO9lt4wXi82fImZXZLr47c89vvo79f3XpTrPjWXrUDt2xnXX3aTmPiza+0R44jqM+2y7cZsBAgQIECAAAECBPIhIOjKxz7ogkChBARd2W6XoCtb76LMJugqyk7pkwABAgQIECBAIEsBQVeW2uYiUFKBqdOnxsr+WP1WwJseujpeT5o6KVcrnm/wAtHPh9/eWLnTa9Hhi+eqzxmbuefpO+PQBXecM+NbXhP4f4F+ffrF79ut/tkYt19jlxj7tPf5/3P8QoAAAQIECBAgQKDsAoKusu+w9RHIQEDQlS6yoCtd37JUF3SVZSetgwABAgQIECBAoCcCgq6e6LmWAIEuBd794O04ftk9F8b46AsPdXleXg4On3veaGWNxSvf3rjmEuvG6+Wq397Y3tbe1FbvfWZkzP+L289uah8mL5bA4iOWioYP2uqwGH07Y7H2T7cECBAgQIAAAQKNCQi6GnNzFQECsxAQdM0Cp4G3BF0NoLmkl6DLh4AAAQIECBAgQKAVBQRdrbjr1kwgY4GHnn8wZvzVPRfE+N740Rl30Nh0cw0YFBeusugaMdbu9Fp10dXjdb8+/Rsr3M2r/KeL3QRzeieB2ud4/08fHMdXrX6eO53kBQECBAgQIECAAIGSCAi6SrKRlkEgzwKCrp7tjqCrZ36tfrWgq9U/AdZPgAABAgQIEGgtAUFXa+231RJoqsD4yeNi/qseuCzGkU/8OcaOXh1N7au7k9ce+r3CwqvEpbVne62xROUZX3MPmLu7JWd5/h/+cVO8f9X9l8zyPG8SmJVAW1tbvL3TWrvH+Nm19pjV6d4jQIAAAQIECBAgUEgBQVcht03TBIopIOhqbN8EXY25uaqzgKCrs4dXBAgQIECAAAEC5RQQdJVzX62KQCEEnn/r2ejzyuodXk+/9q9C9D2zJmvfzrjkfMvGKbU7vNaqfovj/IMXmNmlszx+8cjz4v27nrh1lud5k0B3BD690jZx+hc2/kqMbb0qd3x1p4ZzCRAgQIAAAQIECORNQNCVtx3RD4EWEhB01bfZgq76nJzVPQFBV/e8nE2AAAECBAgQIFAMAUFXMfZJlwRaQuDRFx+Jdf7mwV/F+Nqol0q17gWGLhzrWX3xyrO81qo+02up+ZaJ4zPeUTNxyoQ4ftgV34yxKN9WGc36URiBTZb/dPS676Zfj7H2nzgWZgEaJUCAAAECBAgQIPARAUHXRzD8SoBAcwUEXZ3/0zFBV3M/j60yu6CrVXbaOgkQIECAAAECrSEg6GqNfbZKAoUSmN4xPfq9+6k7Yrzh4atjHPXBO4VaR73NDhk4NE5dbfG1Y1xg6EIxPvDM3TG+8PZzMfpBIE2B9ZfdJMrv/6mDYqw9cy7NOdUmQIAAAQIECBAgkLSAoCtpUfUIEOixgKBL0NXjD5EC3RYQdHWbzAUECBAgQIAAAQI5FBB05XBTtESAQGeBKdOmxIHbn7glxt/97boYx45/r/OJXhEg0GOBWuD1tU8fHLVmfHZcjydQgAABAgQIECBAgECKAoKuFHGVJkAgGQFBVzKOqhCoR0DQVY+ScwgQIECAAAECBPIqIOjK687oiwCBmQpMnjop3rvjiVtj/N3fro9x7AR3eM0UzRsEuinwmTV2iSt2X3fvbl7pdAIECBAgQIAAAQLNExB0Nc/ezAQINCgg6GoQzmUEuiEg6OoGllMJECBAgAABAgRyIyDoys1WaIQAgUYFJk6ZEJfe+q8/xvj76jO8Jkwe32hJ1xEgUBXYZ+P94rctV9qGCQECBAgQIECAAIHcCwi6cr9FGiRAYHYCgq7ZCXmfQOMCgq7G7VxJgAABAgQIECCQvYCgK3tzMxIgkLLAB5Pejxlu+cfvYrz1sco4YXLlzq+Up1eeQKkE2tvaYz0HbnVYjGsusU6p1mcxBAgQIECAAAEC5RIQdJVrP62GAIH/Cgi6fAwIJCcg6ErOUiUCBAgQIECAAIH0BQRd6RubgQCBJguMqX4b402PXBud3PXEbTFOmTa5yZ2ZnkBxBAb0HRDNHrXTiTEuNnyJ4jSvUwIECBAgQIAAgZYREHS1zFZbKIHWFRB0te7eW3lyAoKu5CxVIkCAAAECBAgQSE9A0JWercoECORUYNS4d6Oza/96ZYz3PX1XjNM7psfoBwECMxcYPve88eYJu54W45z955r5yd4hQIAAAQIECBAgkLGAoCtjcNMRINB8AUFX8/dAB8UVEHQVd+90ToAAAQIECBBoBQFBVyvssjUSIDBLgVdHvRLvX/ngpTH+88VHZnm+NwkQ6NVrlcXWDIbvbHtkjG292rAQIECAAAECBAgQaLqAoKvpW6ABAgSaLSDoavYOmL+IAoKuIu6angkQIECAAAEC5RcQdJV/j62QAIFuCjz2yj/iiivvvyTGV959sZsVnE6gdQR2XW+fWOwOq+/cOou2UgIECBAgQIAAgdwKCLpyuzUaI0CgWQKCrmbJm7eIAoKuIu6angkQIECAAAEC5RUQdJV3b62MAIEeCnR0dESFe5+5K8arH7w8xjHjR8foBwECvXq1t7UHw3c+c3SMKy+8KhYCBAgQIECAAAECTRMQdDWN3sQECORdQNCV9x3SXx4EBF152AU9ECBAgAABAgQI1AQEXTUJIwECBGYjMHHKhDjjpr9dF+Mt/7g5xinTJs/mSm8TKL/A3AOHxCJ/uNsZMQ6pvi7/yq2QAAECBAgQIEAgTwKCrjzthl4IEMi1gKAr19ujuSYLCLqavAGmJ0CAAAECBAgQCAFBlw8CAQIEGhR4a+ybceUv7z4vxsdfrnxbY4PlXEagFALLL7RyrOOIHY6Lsa1XWynWZREECBAgQIAAAQLFEBB0FWOfdEmAQA4FBF053BQtNV1A0NX0LdAAAQIECBAgQKClBQRdLb39Fk+AQJIC9z4zMspdfu+FMY6fNC7J8moRKJTAPht/JfrdcqVtC9W3ZgkQIECAAAECBIotIOgq9v7pngCBHAkIunK0GVppuoCgq+lboAECBAgQIECAQEsKCLpactstmgCBNAXe/eCdKH/e7T+J8enX/pXmdGoTyKVAvz79o68Tdjs9xgWGLJjLPjVFgAABAgQIECBQLgFBV7n202oIEMiBgKArB5ughaYLCLqavgUaIECAAAECBAi0pICgqyW33aIJEMhCYNr0aTHNxSMr38p4z1O3ZzGtOQjkSmCJeZeOfo757Ekx9m7vnav+NEOAAAECBAgQIFAuAUFXufbTaggQyJGAoCtHm6GVpgkIuppGb2ICBAgQIECAQEsKCLpactstmgCBLAU6enXEdCffdFyMT776WJbTm4tALgR2WmuP6GPntStjLprSBAECBAgQIECAQOkEBF2l21ILIkAgbwKCrrztiH6aISDoaoa6OQkQIECAAAECrScg6Gq9PbdiAgSaJHDnk7fFzJfc9fMmdWBaAs0TaK8+m+uonU6MJpaeb9nmNWNmAgQIECBAgACB0goIukq7tRZGgEDeBARdedsR/WQpIOjKUttcBAgQIECAAIHWFRB0te7eWzkBAhkLPP36kzHjj244KuOZTUcgPwILDF0kmvnh7qfH2Ke9T36a0wkBAgQIECBAgEDhBQRdhd9CCyBAoCgCgq6i7JQ+0xQQdKWpqzYBAgQIECBAgICgy2eAAAECGQn85+3nYqbjrvluRjOahkB+BXZap/Lti59d07cw5neXdEaAAAECBAgQKJ6AoKt4e6ZjAgQKKiDoKujGaTsVAUFXKqyKEiBAgAABAgRaXkDQ1fIfAQAECGQl8Mqol2Oqo35zcFZTmodAbgX69O4bvR2/W+VZXQsNXTi3vWqMAAECBAgQIECgOAKCruLslU4JECi4gKCr4Buo/UQFBF2JcipGgAABAgQIECBQFRB0+SgQIEAgI4FXR78SMx151UEZzWgaAvkXWHqB5aPJ7+/0wxjberXlv2kdEiBAgAABAgQI5FZA0JXbrdEYAQJlExB0lW1HrScJAUFXEopqECBAgAABAgQI1AQEXTUJIwECBFIWeOHt52OGY685NOWZlCdQPIEvbvq1aPpTK2xZvOZ1TIAAAQIECBAgkBsBQVdutkIjBAiUXUDQVfYdtr6eCAi6eqLnWgIECBAgQIAAgZqAoKsmYSRAgEDKAs+88VTMcOL1R6Y8k/IEiicwoN/AaPqkz/0kxmFzDiveInRMgAABAgQIECDQdAFBV9O3QAMECLSKgKCrVXbaOhsREHQ1ouYaAgQIECBAgACBGQUEXTOKeE2AAIGUBP71yj+j8qk3H5fSDMoSKL7AmkuuH4s4aKvvFn8xVkCAAAECBAgQIJC5gKArc3ITEiDQqgKCrlbdeevujoCgqztaziVAgAABAgQIEJhRQNA1o4jXBAgQSEngwefui8o/v/X0lGZQlkB5BL617VGxmNUXW7M8i7ISAgQIECBAgACB1AUEXakTm4AAAQIVAUGXTwKB+gUEXfVbOZMAAQIECBAgQOBDAUHXhxZ+I0CAQKoCtzz2+6h/xb0XpTqP4gTKIDBi8PyxjJP2ODvGvr37lmFZ1kCAAAECBAgQIJCygKArZWDlCRAgUBMQdNUkjARmLyDomr2RMwgQIECAAAECBD4uIOj6uIkjBAgQSEXgmoeuiLo3P3xNKvUVJVBGgV3W2zuWtcPqu5RxedZEgAABAgQIECCQsICgK2FQ5QgQIDAzAUHXzGQcJzBzAUHXzG28Q4AAAQIECBAg8HEBQdfHTRwhQIBAKgKX3H1+1L3z8VtSqa8ogTIK9O87IJZ18p7nxDhsznnKuExrIkCAAAECBAgQSEhA0JUQpDIECBCYnYCga3ZC3ifwcQFB18dNHCFAgAABAgQIEJi5gKBr5jbeIUCAQKICP7nl1Kj3yPMPJFpXMQKtILDO0hvFMr+xxbdbYbnWSIAAAQIECBAg0KCAoKtBOJcRIECguwKCru6KOZ/AhwKCrg8t/EaAAAECBAgQIDBzAUHXzG28Q4AAgUQFfnTTMVHv6Vf/lWhdxQi0ksDhOxwfy11hoZVaadnWSoAAAQIECBAgUKeAoKtOKKcRIECgpwKCrp4Kup5Ar16CLp8CAgQIECBAgACBWQkIumal4z0CBAgkKHDk1d+Kaq+++1KCVZUi0FoCCwxdJBZ84u5nxNi7vXdrAVgtAQIECBAgQIDALAUEXbPk8SYBAgSSExB0JWepUusKCLpad++tnAABAgQIECBQj4Cgqx4l5xAgQCABgYMu+0pUGTNuVALVlCDQ2gJ7bbRvAGy18natDWH1BAgQIECAAAECnQQEXZ04vCBAgEB6AoKu9GxVbj0BQVfr7bkVEyBAgAABAgTqERB01aPkHAIECCQgsP9F+0SViZPHJ1BNCQKtLTBH/zkD4Md7nhPj4DmGtDaI1RMgQIAAAQIECISAoMsHgQABAhkJCLoygjZNSwgIulpimy2SAAECBAgQINBtAUFXt8lcQIAAgcYE9v3FHnHh1GlTGivgKgIEPiaw7jIbx7Gvb37Ix95zgAABAgQIECBAoPUEBF2tt+dWTIBAkwQEXU2CN22pBQRdpd5eiyNAgAABAgQIdFtA0NVtMhcQIECgMYEv/nyX6oUdjRVwFQECMxU49DPHxHsrL7LaTM/xBgECBAgQIECAQPkFBF3l32MrJEAgJwKCrpxshDZKKSDoKuW2WhQBAgQIECBAoNsCgq5uk7mAAAEC3ROYOn1qXLDv+bt370JnEyBQt8CIwfPHuT/a/awY+/XpV/e1TiRAgAABAgQIECiPgKCrPHtpJQQI5FRA0JXTjdFWqQQEXaXaToshQIAAAQIECDQsIOhqmM6FBAgQqE9g4pQJceL+F+5d3wXOIkCgYYHt1qw8C2/3dfz11jCiCwkQIECAAAECBRYQdBV487ROgEAxBARdxdgnXZZDQNBVjn20CgIECBAgQIBAowKCrkblXEeAAIE6BcZPHhdnHnDR5+u8wmkECDQq0Lu9T1x6/G6nxbjwsEUbLeU6AgQIECBAgACBAgoIugq4aVomQKBYAoKuYu2XbostIOgq9v7pngABAgQIECDQUwFBV08FXU+AAIHZCEyYPD7O+NpF+8zmTG8TIJCUwILDFolSP9jllBj79emfVGl1CBAgQIAAAQIEciwg6Mrx5miNAIFyCAi6yrGPVlEsAUFXsfZLtwQIECBAgACBpAQEXUlJqkOAAIGZCHgY/UxgHCaQgcBGn/h0zLLfZt/IYDZTECBAgAABAgQINFtA0NXsHTA/AQKlFxB0lX6LLTDHAoKuHG+O1ggQIECAAAECKQgIulJAVZIAAQIfFZg8dVK83O+CPT962O8ECGQosO+nvhmzbbLcpzKc1VQECBAgQIAAAQJZCwi6shY3HwECLScg6Gq5LbfgHAoIunK4KVoiQIAAAQIECKQgIOhKAVVJAgQIfFRgyrQp8fIrv9jjo4f9ToBAhgK1b108tvotjAtXv5UxwxZMRYAAAQIECBAgkIGAoCsDZFMQINDaAoKu1t5/q8+HgKArH/ugCwIECBAgQIBA2gKCrrSF1SdAoOUFpk2fFgZfPn+3lrcAQKDZAvMPXThaOHbnk2Ic2G/OZrdkfgIECBAgQIAAgQQFBF0JYipFgACBrgQEXV2pOEagOQKCrua4m5UAAQIECBAgkJWAoCsrafMQINDyAl8+f/cwmDZ9astbACDQbIFlF1wxWjjsM8fE2Ld332a3ZH4CBAgQIECAAIEEBARdCSAqQYAAgXoEBF31KDmHQDYCgq5snM1CgAABAgQIEMhaQNCVtbj5CBBoWYH9L9on1j5x8viWNehq4e3tvePwwP6DYuzd3h7jmHGjujrdMQKJCqy11AZR7xtbfDvG9rbK5y/RSRQjQIAAAQIECBDITEDQlRm1iQgQaHUBQVfXnwBBV9cujmYjIOjKxtksBAgQIECAAIGsBARdWUmbhwCBlhc46NJ9w2DM+NEtbdGnd79Y/w5r7RLjJ5ffIsbBcwzp5DJ+8rh4/Y+XHo3xz//6Y4zPvv5kp/O8IJCEwDpLbxxlDtj84Bjd2ZWEqhpJCUycMiFKjZ04NsaJkyqvJ06dWHk9pTLW/r45oXrn8KTq8cnTpnTZSkfH9DheO792Up/efeLXfn0GVMbqM+z69ukfr/v3qfx9vF/1de3v30PnHBbvDxk4tHp95bx44QcBAgQIEMhIQNCVEbRpCBAgIOiqfAYEXf5ayKOAoCuPu6KnmoCgqyZhJECAAAECsxcQdM3eyBkECBBIRODQK74edd4e80Yi9YpWZK4Bc0fLh273/RiXmHfphpZw379HxnW/vvfiGMdNfL+hOi4i0JXAmkuuH4cP2PxbMfo2xq6UHJudwJTqHVRvv/9WnPr22Or4/pvxenT1GYTvjavc4Tt2wntx/P3qHVu14+9PqNzBNXXa5NlNmcv3B/QbGH3NM2h4jIsNXzLGxUcsFeOSIyr/HFh8ROW4v96CxQ8CBAgQ6KGAoKuHgC4nQIBAvQKCLkFXvZ8V5zVPQNDVPPsyzSzoquymoKtMn2prIUCAQHEEBF3F2SudEiBQcIGjrj4kVvDKuy8WfCXda79P9dkuh21/XFy43ALLd6/ATM5+c2zlzrhTbv5BnPHO2MqdEjM53WEC3RJYav5PxPmHbHNEjIOqdyR2q4iTCy/Q0asj1lC7I+vl6t+/Xxn9Uhx/bfSr1fcrf/95p3oH15jqnVq9qtcXHiLlBfTvW3kW2KqLrRUzrVP9NtRVF10jXverPhMs5TaUJ0CAAIGSCAi6SrKRlkGAQP4FBF3HxSYJuvL/WdVhr16CLp+C/xMQdGXzORB0ZeNsFgIECLSKgKCrVXbaOgkQaLrACTccFT202rcG7rrePrHu7VffOZU9GFN9ts0J1x8Z9Vv1GWip4Craa5655w2Fb2zxnRiXmncZKiUQqH074YvvvBCrefGd52N8+d3KnVqvjKrcefv66FfieO3bC+OFH5kJ1AKw1ZdYN+b89Ipbxbhs9Y7LzBoxEQECBAgUSkDQVajt0iwBAkUWEHQJuor8+W3V3gVd5dx5QVcx9lXQVYx90iUBAgTyJiDoytuO6IcAgdIKnPWnk2Ntj/7nr6Vd40cXNv/QhePlibufEWOf9j4ffTvx398Y81rUPP6678Xo2xgTJ27pgr2rn9+d190rHLZddYcY29vaW9olb4t/94N3oqUX3/lPZXy3cqfWi2+/EK9ferdy/N3qtyDGQT8KJ7DwPItFz5utuHWMGy27SYwD+s5RuLVomAABAgSSFxB0JW+qIgECBLoUEHQJurr8YDhYCAFBVyG2qZegqxj71NMuBV09FXQ9AQIEyi0g6Cr3/lodAQI5Erjgzp9GN/c+dUeOukqvlW9tW3km2eqLrZneJF1UfvTFh+PoWX/4URfvOkQgGYFFRywZhb686QExLjFiqWQKq9JJYNr0afH69fcq3274QvVOrdqdWS++XblD6+V3X4jz3MnZia9lXgzoNzDW+umVt4lxm1W2j9G3pbbMR8BCCRAg0ElA0NWJwwsCBAikJyDoSs/2o5UFXR/V8HtaAoKutGQ71xV0dfbwqmsBQVfXLo4SIECgVQUEXa2689ZNgEDmAlc+cGnM+ae/35j53FlOuMjwJWK6E3Y7Lca2Xm1ZTv//c11w58/i93ufuv3/j/mFQOICbZXP99pLbRCld1lnzxgXGLxg4lOVqeA7778dy3l19Msxvjyq8m2Hr46qvJ7xWw+nTJ1cpuVbS8oC/fr0jxk2XWHLGLdbfacYhw4cmvLMyhMgQIBAHgQEXXnYBT0QINASAoKubLdZ0JWtd8vOJuhqaOsFXQ2xuahOAUFXnVBOI0CAQEkFBF0l3VjLIkAgfwI3PXptNHXtg7/OX3MJdvSNrb4b1dZZcv0Eq3a/1LhJH8RF3/l15RlKEyaN634RVxDorkA1+Fp50TXiyi1W2jbGlRdZNcayfkvjqHGjYn2vVO/Mqo21O7ReHV25Y+v10a/EeRMnT4jRDwJZCPTp3S+m+eQKW8S401q7xegZXlnom4MAAQLZCwi6sjc3IwECLSog6Mp24wVd2XqbrSog6AoIQZe/IvIkIOjK027ohQABAukLCLrSNzYDAQIEQuCep++M8cI7zimlyLBBw2Ndp+99Xox5uXPld3+/Ifr57QOXldLdooohMGjgkGh0rSXWi3GVRVeP8RMLrhDjwH5zxtjsH2MmvBctvDnmjer4eoxvja28fmvMm51ev/b/d2iNj+N+ECiCQO3h9dut8dlod+uVK9/S2K9P5c6vIqxBjwQIECAwcwFB18xtvEOAAIFEBQRdiXLWXUzQVTeVE1MUEHSliKs0gW4KCLq6CeZ0AgQIFExA0FWwDdMuAQLFFXji1cei+R/fdGxxFzGLznda53Px7mfX3H0WZ2X/1uTqt7UdfNlXYvLx1Wd3Zd+JGQl8XKCtrT0OLjB0oRgXGrZodVwkxuFzjYhxcPXb4gb1nyte963eeVJ76Hbtcz5l6qR4/4Pq5/y98aPj9diJY2Ic/UHlWVrvvP9WvK7dqfXO2MrrSVMmxnE/CLSSwNC55onl7lz91tSNl90sXrdV/1PkVrKwVgIECJRBQNBVhl20BgIECiEg6GrONtUCAEFXc/zNOmsBQdesfbxLIAsBQVcWyuYgQIBAdgKCruyszUSAQIsLvDGm8qybw6/4Rqkk2tt7x3pO3+f8GIfNOSyX6/vVvRdFX39+7Pe57E9TBAgQIJAPgUVHLBmNfGmT/WNcat5l8tGYLggQIECgLgFBV11MTiJAgEDPBQRdPTfsSQVBV0/0XEuAAIHWERB0tc5eWykBAuUUEHSVc1+tigCBHArU/hO6/S7Ys9pdRw677H5LayxZ+Ra5g7c6rPsXZ3jFy+++GLN9/+pDMpzVVAQIECBQVIHaHcubrbh1LGG36jO85ug3sKhL0jcBAgRaQkDQ1RLbbJEECORBQNDV3F0QdDXX3+wECBAomoCgq2g7pl8CBAhUBARdPgkECBDIWKD2UPT3xlW+/Szj6ROf7rDtfxA1V1x45cRrp1HwkMsrz1wZ9f7baZRXkwABAgRKKlD79tO9NvyfWOF6S29U0pVaFgECBIotIOgq9v7pngCBAgoIupq7aYKu5vqbnQABAkUVEHQVdef0TYBAqwkIulptx62XAIGmC5zyu+Ojh8df/nvTe+lJA/MPXSguP/lzP4mxrVdbT8pldu3FI8+LuUY+cWtmc5qIAAECBMonUHtG5f9s+rVY3NwD5i7fIq2IAAECBRQQdBVw07RMgECxBQRdzd0/QVdz/c1OgACBsggIusqyk9ZBgEDZBARdZdtR6yFAIPcCVz14WfT4x0dvyH2vs2pwr432jbe3Wnm7WZ2Wu/fufvqO6OmiO36au940RIAAAQLFE5ireifXFzb5ajS/7lIbFG8ROiZAgECJBARdJdpMSyFAoBgCgq7m7pOgq7n+ZidAgEDZBARdZdtR6yFAoOgCgq6i76D+CRAonMBfnrs/ej731tMK1/v/NTz3wKHR9+l7/zzGfn36xViUHy+980K0evRvv12UlvVJgAABAgUSWHvpDaPbL1Xv8Jqr/6ACda9VAgQIFF9A0FX8PbQCAgQKJiDoau6GCbqa6292AgQIlF1A0FX2HbY+AgTyLiDoyvsO6Y8AgdIJTJ46Kdb0jV9+Kcba66IsdM8N/yda3XqV7YvScqc+p02fFq+/euHeMU6dNrnT+14QIECAAIEkBIbMOSzKHLB55Q7iTyy4QhJl1SBAgACB2QgIumYD5G0CBAgkLVALtgRdScvWV0/QVZ+TswgQIECgZwKCrp75uZoAAQKNCgi6GpVzHQECBHoocN7tZ0eFB54Z2cNK2Vxe+wP7qXudGxMW7dlcMyodfc2hceilt5+f8S2vCRAgQIBAYgLt7b2j1g5r7RbjTmtUxra2tsTmUIgAAQIEPhQQdH1o4TcCBAhkKiDoypT7Y5MJuj5G4gABAgQIpCAg6EoBVUkCBAjMQkDQNQscbxEgQCBNgdHjR0f5I648MMaJk8enOV2Pax+09RFRY80l1ulxrTwUOP+On0Qb9z99Vx7a0QMBAgQItIjAcgutFCs9YPNDYhxa/TbjFlm+ZRIgQCB1AUFX6sQmIECAQNcCgq6uXbI6KujKSto8BAgQIPBRAUHXRzX8ToAAgeQFBF3Jm6pIgACBbgnc9++74/xf/Pmsbl2X1clrLbVBTHXglpVnWmU1b9rz3Pi3a2KK6/5yRdpTqU+AAAECBD4mMNccQ+LYQVt9N8blFlj+Y+c4QIAAAQLdFxB0dd/MFQQIEEhUQNCVKGfdxQRddVM5kQABAgRSEBB0pYCqJAECBP4rIOjyMSBAgEBOBH59/yXRya3/uCkXHc03ZKHo45idfxTjXP0H5aKvpJr4y3P3R6lzbz0tqZLqECBAgACBbgv0bu8T1+y10Zdj3HzFrbtdwwUECBAg8KGAoOtDC78RIECgqQKCrmz5BV3ZepuNAAECBLoWEHR17eIoAQIEGhUQdDUq5zoCBAgkLNDRqyMqXnzXz2O8+8k/JzxDfeVq/ynFsbucFBfMO2i++i4s2FkvvfNCdHz0b79dsM61S4AAAQJlFth0hS1ieV/YeL8Y+1Tv+Crzmq2NAAECSQoIupLUVIsAAQI9EBB09QCvgUsFXQ2guYQAAQIEUhcQdKVObAICBEouIOgq+QZbHgECxROoBV43Vb8V8Pq//iYW0dExPdXFLDzPYlH/4K2PiHHeuct5J1cNcfLUSfHrfhfsVT1UuaOu9r6RAAECBAg0U2Cp+T8R0x+89eExDp5jcDPbMTcBAgQKIyDoKsxWaZQAgVYREHRls9OCrmyczUKAAAECjQkIuhpzcxUBAgQEXT4DBAgQyLnAv994Ojr81b0Xxvji288l0vGAfnNEnU+ttE2Mn11z9xj79emXSP2iFDno0n2j1THjRxelZX0SIECAQAsJzDP3vLHaQ7c7OsYFq9+K3EIElkqAAIFuCQi6usXlZAIECGQvIOhK11zQla6v6gQIECDQMwFBV8/8XE2AQOsJCLpab8+tmACBggs8+drjsYL7nrkrxmdefzLGUR+8E+OUqZNjrN2xNaj6TI/Fhi8Zx5dfaKUY1196oxjn7D9XjK3649hrD4ulv/DWs61KYN0ECBAgUACBOQcMii5rz9JcboHlC9C1FgkQIJC9gKAre3MzEiBAoEcCgq4e8X3sYkHXx0gcIECAAIEcCgi6crgpWiJAIJcCgq5cboumCBAgQCArgbNvOSWm+tvzD2Y1pXkIECBAgEDDAn16941rv7zZN2LccJlNGq7lQgIECJRRQNBVxl21JgIECBCoW0DQVTeVEwkQIEAgBwKCrhxsghYIEMi1gKAr19ujOQIECBBIW+Dy+34ZU9z2z5vTnkp9AgQIECCQoEBb1NphrV1j3GXtPROsrRQBAgSKKyDoKu7e6ZwAAQIEEhAQdCWAqAQBAgQINEFA0NUEdFMSIFAAAUFXATZJiwQIECCQnsAfq3dyXVW9syu9mVQmQIAAAQLpCWz0iU9H8S9v+rUYe7f3Tm8ylQkQIJBjAUFXjjdHawQIECCQvoCgK31jMxAgQIBA+gKCrvSNzUCAQDEEBF3F2CddEiBAgEBKAn957v6ofO6tp6U0g7IECBAgQCA7gdUWXzsm++aWh8bYt/otjdl1YCYCBAg0V0DQ1Vx/sxMgQIBAkwUEXU3eANMTIECAQKICgq5EORUjQKCAAoKuAm6algkQIEAgOYGnXnsiip104/eTK6oSAQIECBBossAKi6wWHRyy9REx9uvTr8kdmZ4AAQLZCAi6snE2CwECBAjkVEDQldON0RYBAgQI9EhA0NUjPhcTIFBgAUFXgTdP6wQIECDQc4HX3ns1inzvygN7XkwFAgQIECCQM4HlF14lOvrOtkfG2Le3O7tytkXaIUAgYQFBV8KgyhEgQIBAsQQEXcXaL90SIECAQPcEBF3d83I2AQLFFxB0FX8PrYAAAQIEeiAwbtIHcfXXL/5CD6q4lAABAgQI5FtglcXWjAYP2eZ7Mba3tee7Yd0RIECgQQFBV4NwLiNAgACBcggIusqxj1ZBgAABArMWEHTN2se7BAiUR0DQVZ69tBICBAgQaECgo1dHXLXv+XvEOG361AaquIQAAQIECBRDYNMVtohGv7zpAcVoWJcECBDopoCgq5tgTidAgACBcgkIusq1n1ZDgAABArMWEHTN2se7BAgUX0DQVfw9tAICBAgQSEDgoMu+ElXGjBuVQDUlCBAgQIBAvgX23rjyz70tV9o2343qjgABAt0UEHR1E8zpBAgQIFBOAUFXOffVqggQIECgawFBV9cujhIgUHwBQVfx99AKCBAgQCABgSN+c3BUeX3UywlUU4IAAQIECORboHd7n2jwiB2Pj3HZ+T+R74Z1R4AAgToFBF11QjmNAAECBMotIOgq9/5aHQECBAh0FhB0dfbwigCB8ggIusqzl1ZCgAABAj0QOP76I+Pq5954qgdVXEqAAAECBIolMGzQiGj4xN3PiHFgvzmLtQDdEiBAYAYBQdcMIF4SIECAQGsKCLpac9+tmgABAq0uIOhq9U+A9RMon4Cgq3x7akUECBAg0IDAqb8/Ia7610uPNnC1SwgQIECAQLEFNll+81jAvp/8erEXonsCBFpeQNDV8h8BAAQIECDwfwKCLp8DAgQIEGhlAUFXK+++tRMol4Cgq1z7aTUECBAg0KDAT287Pa586Nn7GqzgMgIECBAgUGSBtmj+O585OsZVFlmtyIvROwECLSwg6Grhzbd0AgQIEPhQQND1oYXfCBAgQKAVBQRdrbjr1kygjAKCrjLuqjURIECAQLcFLh55Xlwz8olbu32tCwgQIECAQFkE5pl73ljKjz/3kxj79u5XlqVZBwECLSIg6GqRjbZMAgQIEJi1gKBr1j7eJUCAAIHWEBB0tcY+WyWBMgsIusq8u9ZGgAABAnULXPHAJXHuLX+/qe5rnEiAAAECBMoqsMt6e8fSdlh9l7Iu0boIECipgKCrpBtrWQQIECDQPQFBV/e8nE2AAAEC5RYQdJV7f62OQJkFBF1l3l1rI0CAAIG6Ba7+66/j3N8/cm3d1ziRAAECBAiUVaB/3wGxtB/v9bMYhw4cWtalWhcBAiUTEHSVbEMthwABAgQaExB0NebmKgIECBAop4Cgq5z7alUEWkFA0NUKu2yNBAgQIDBbgesf+U2cc8NfK+NsL3ACAQIECBBoAYGNPvHpWOV+m32jBVZriQQIlEFA0FWGXbQGAgQIEOixgKCrx4QKECBAgEAJBQRdJdxUSyJQcgFBV8k32PIIECBAoD6Bmx+9Lk685sHL67vAWQQIECBAoBUE2tpilcft/OMYl5h36VZYtTUSIFBgAUFXgTdP6wQIECCQnICgKzlLlQgQIECgRAKCrhJtpqUQaA0BQVdr7LNVEiBAgMBsBP70z5vjjCvv++VszvQ2AQIECBBoPYFlF1wxFn3Ujie03uKtmACBQgkIugq1XZolQIAAgbQEBF1pyapLgAABAmUQEHSVYRetgUBrCAi6WmOfrZIAAQIEZiNwy2O/jzOuuPei2ZzpbQIECBAg0LoCB259eCx+rSXWbV0EKydAINcCgq5cb4/mCBAgQCArAUFXVtLmIUCAAIEiCwi6irx7eifQGgKCrtbYZ6skQIAAgdkI+E8XZwPkbQIECBAg8F+BEYPnD4eTP/eTGPu09+FCgACBXAkIunK1HZohQIAAgWYJCLqaJW9eAgQIECiSgKCrSLulVwKtKSDoas19t2oCBAgQmEHg9/+4IY5cff9lM7zjJQECBAgQIDCjwF4b7RuHtlp5uxnf8poAAQJNFRB0NZXf5AQIECCQFwFBV152Qh8ECBAgUAQBQVcRdkmPBFpTQNDVmvtu1QQIECAwg8BNj14XR6598PIZ3vGSAAECBAgQmFFg0ByD49Bpe58b44C+c8x4itcECBBoioCgqynsJiVAgACBvAkIuvK2I/ohQIAAgTwLCLryvDt6I9DaAoKu1t5/qydAgACBqsD1j1wdv93w16uYECBAgAABAnUK7LzuXnHmjmvsWucVTiNAgEC6AoKudH1VJ0CAAIGCCAi6CrJR2iRAgACBXAkIunK1HZohQOC/AoIuHwMCBAgQIPBfgcvvuzgcbvvn73gQIECAAAECdQoM6Dcwzjx9n5/HOFf/QXVe6TQCBAikIyDoSsdVVQIECBAomICgq2Abpl0CBAgQyIWAoCsX26AJAgQ+IiDo+giGXwkQIECgdQXOu/3sWPwDz4xsXQQrJ0CAAAECDQpsu8bOceUe6+7TYAWXESBAIBkBQVcyjqoQIECAQMEFBF0F30DtEyBAgEBTBQRdTeU3OQECHxEQdH0Ew68ECBAg0LoCp//hxFj8P198pHURrJwAAQIECDQo0K9P/7jytOqzugbPMaTBSi4jQIBAzwQEXT3zczUBAgQIlERA0FWSjbQMAgQIEGiKgKCrKewmJUCgCwFBVxcoDhEgQIBA6wkcfc2hseiX3n6+9RZvxQQIECBAICGBrVfbMSrtuf4XE6qoDAECBLonIOjqnpezCRAgQKCkAoKukm6sZREgQIBApgKCrky5TUaAQBcCgq4uUBwiQIAAgdYT+PovK//medzE91tv8VZMgAABAgQSEqj9J4ynf/78qDj3gLkTqqwMAQIE6hMQdNXn5CwCBAgQKLmAoKvkG2x5BAgQIJCJgKArE2aTECAwCwFB1yxwvEWAAAEC5ReYNHViLPKrF+xV/sVaIQECBAgQyEhg2zV2jpn2WHefjGY0DQECBCoCgi6fBAIECBBoaQFBV0tvv8UTIECAQEoCgq6UYJUlQGC2AoKu2RI5gQABAgTKLPDKqJdjeUf95uAyL9PaCBAgQIBApgL9+w6I+U7f57wYB3lWV6b+JiPQygKCrlbefWsnQIAAgV6CLh8CAgQIECCQvICgK3lTFQkQqE9A0FWfk7MIECBAoKQCj774SKzsrD+cWNIVWhYBAgQIEGiewPZr7RqT77q2Z2E2bxfMTKC1BARdrbXfVkuAAAECMwgIumYA8ZIAAQIECCQoIOhKEFMpAgTqEhB01cXkJAIECBAoq8Btj/8plnb53b8o6xKtiwABAgQINE1gQL+BMfeZnz8/xoH95mxaLyYmQKA1BARdrbHPVkmAAAECMxEQdM0ExmECBAgQIJCAgKArAUQlCBDoloCgq1tcTiZAgACBsglc9eBlsaQ/PnpD2ZZmPQQIECBAIDcCu6y3T/Syw+o756YnjRAgUE4BQVc599WqCBAgQKBOAUFXnVBOI0CAAAECPRAQdPUAz6UECHRLQNDVLS4nEyBAgEDZBM659bRY0sPP3V+2pVkPAQIECBDIjcDcA4dGL2fsc16MfXv3zU1vGiFAoFwCgq5y7afVECBAgEA3BQRd3QRzOgECBAgQaEBA0NUAmksIEGhIQNDVEJuLCBAgQKDoAiOf+nMs4dKRlW9bnDZ9atGXpH8CBAgQIJB7gS998oDocbPlt8h9rxokQKCYAoKuYu6brgkQIECghwKCrh4CupwAAQIECDQgIOhqAM0lBAh0S0DQ1S0uJxMgQIBAUQU6enVE69c9dFWMNz3826IuRd8ECBAgQKCwAvMNWTB6//Hnzomxra2tsGvROAEC+RQQdOVzX3RFgAABAgkLCLoSBlWOAAECBAg0ICDoagDNJQQIdEtA0NUtLicTIECAQNEEpkybEi3/4o6fxvjXZ+8p2hL0S4AAAQIESidw4NaHx5rWWmLd0q3NgggQaK6AoKu5/mYnQIAAgZQFBF0pAytPgAABAgQaEBB0NYDmEgIE6hIQdNXF5CQCBAgQKJrA+xPHRstn/enHMT77+pNFW4J+CRAgQIBAaQUWn3fpWNsPdjmltGu0MAIEmiMg6GqOu1kJECBAIGUBQVfKwMoTIECAAIEeCAi6eoDnUgIEZikg6JoljzcJECBAoGgCr45+JVo+/Q8/jPHdsW8VbQn6JUCAAAECLSNw5E4nxlqXW2D5llmzhRIgkK6AoCtdX9UJECBAIGMBQVfG4KYjQIAAAQI9EBB09QDPpQQIdCkg6OqSxUECBAgQKJrAE68+Fi3/5JbKsz4mTBpXtCXolwABAgRaSqAtVrv16jvGOHnKpBhHPnFbjNOmT42x7D/WWHK9WOLBWx1W9qVaHwECGQkIujKCNg0BAgQIpCsg6ErXV3UCBAgQSFpA0PV/ooKupD9X6hEgIOjyGSBAgACBQguMfOr26P/SkefH2Cr/BrzQm6Z5AgQIEOi1wXKbhcL+nzqwk8bT1W8JPqd6h/L7E8Z0er9sL9rbe8eSTt3r3BiHDxpRtiVaDwECGQsIujIGNx0BAgQIJCsg6ErWUzUCBAgQyEZA0FVxFnRl83kzC4FWEhB0tdJuWysBAgRKINDRqyNW8du/XhHj7x+5tgSrsgQCBAgQaBWBvn36x1JP2/vnMQ4ZOKTLpT/75jNx/KQbj4lx6rTJXZ5XloNbrbZDLGWv9b9UliVZBwECTRIQdDUJ3rQECBAg0JiAoKsxN1cRIECAQD4EBF1d74Ogq2sXRwkQ6L6AoKv7Zq4gQIAAgSYITKn+m+zzbv9JzP7wc/c3oQtTEiBAgACBngls9IlPRYH9NvtmXYXufvqOOO+iO35a1/lFPWlAv4HR+tlfuCDGAX3nKOpS9E2AQJMFBF1N3gDTEyBAgEB9AoKu+pycRYAAAQL5FhB0db0/gq6uXRwlQKD7AoKu7pu5ggABAgQyFHh/4tiY7aw//TjGZ6vfRpVhC6YiQIAAAQKJCRy3yylRa4l5l+5WzTP/eFKc//cXHurWdUU7ee+NvxItb7nStkVrXb8ECOREQNCVk43QBgECBAh0LSDo6trFUQIECBAopoCga9b7JuiatY93CRCYvYCga/ZGziBAgACBJgi8OvqVmPWMP5wY4ztj32xCF6YkQIAAAQLJCCwwdJEodPLnzm6o4Khxo+K67111YIwTJ09oqE7eL5p38ALR4il7Vp5J1tbWlveW9UeAQM4EBF052xDtECBAgEBFQNDlk0CAAAECZRIQdNW3m4Ku+pycRYDAzAUEXTO38Q4BAgQINEHgiVf/FbP+5JbKM7kmTBrXhC5MSYAAAQIEkhXYfq1do+Cua+/Vo8I3PXptXH/tg7/uUZ28X3zIdt+PFldbdI28t6o/AgRyJiDoytmGaIcAAQKtLiDoavVPgPUTIECgnAKCru7tq6Cre17OJkDgQwFB14cWfiNAgACBJgrc/fQdMfsld50X47TpU5vYjakJECBAgECyAifsdkYUXHT44j0qPHnq5Lj+sCu/EePoD97tUb28Xrzq4mtFa9/e5si8tqgvAgRyKiDowbEgbAAAQABJREFUyunGaIsAAQKtJiDoarUdt14CBAi0loCgq3v7LejqnpezCRD4UEDQ9aGF3wgQIECgCQLXPfybmPXGh66uzt7RhC5MSYAAAQIE0hEYOtfwKHzW53+R6AQjn/pz1Lv4znMTrZuXYu3tvaOV0/ep3Ok9bM558tKaPggQyLmAoCvnG6Q9AgQIlF1A0FX2HbY+AgQItLaAoKux/Rd0NebmKgIEevUSdPkUECBAgECmAtM7psd8l9xd+TfbI5+4NdP5TUaAAAECBLIU2OgTn4rp9tvsm4lOW/vn6WFXVuq+PeaNROvnpdgOa+8ereyy1ufy0pI+CBDIuYCgK+cbpD0CBAiUTaD2B3NBV9l21noIECBAoCsBQVdXKvUfE3TVb+VMAgQqAoIunwQCBAgQyERgyrTJMc+5fz4rxr89/2Am85qEAAECBAg0U2D/zQ+J6TdYZuNU2rjt8T9F3curd0qnMkkTiw6Zc1jMfmb1GWftbe1N7MbUBAgUQUDQVYRd0iMBAgRKICDoKsEmWgIBAgQIdFtA0NVtsk4XCLo6cXhBgEAdAoKuOpCcQoAAAQKNC7w/cWxcfPofTozxP2/+u/FiriRAgAABAgUTOPuLF0fHQwYOSaXz2r9I+s7lB0T9MeNHpzJPs4setPUR0cKaS6zT7FbMT4BAzgUEXTnfIO0RIECg6AKCrqLvoP4JECBAoCcCgq6e6H14raDrQwu/ESAwawFB16x9vEuAAAECDQq89f6bceVpvzshxjffe63BSi4jQIAAAQLFExg61/Bo+qzqs6XSXsGNf7smprjuL1ekPVVT6q+06Oox73e3O7op85uUAIHiCAi6irNXOiVAgEChBARdhdouzRIgQIBAwgKCrmRBBV3JeqpGoMwCgq4y7661ESBAoAkCL7/7Ysx66u8rd3KNGTeqCV2YkgABAgQINFdgzSXXjwYO2uq7mTRSe1TAIb/6asw3ZWrl244zmTyLSdraYpbT9v55jCMGzZvFrOYgQKCAAoKuAm6algkQIJBnAUFXnndHbwQIECCQlYCgK2FpQVfCoMoRKK+AoKu8e2tlBAgQyFTgsZf/HvOdc8spMU6aMjHT+U1GgAABAgTyJLDrevtEO9uvvnOmbZ1/xzkx3/1P35npvFlNtt2au8RUu6+zd1ZTmocAgYIJCLoKtmHaJUCAQF4FBF153Rl9ESBAgEAzBARd6agLutJxVZVAmQQEXWXaTWshQIBAEwQeePbemPWC238S47TpU5vQhSkJECBAgEC+BA7e5nvR0BqLr51pYy+8/XzMd+w1h2Y6b1aTzT1waExV+zbL3u29s5raPAQIFERA0FWQjdImAQIE8iog6MrrzuiLAAECBJopIOhKR1/QlY6rqgTKJCDoKtNuWgsBAgQyFLjv3yNjtgvv+GmM06dPy3B2UxEgQIAAgXwLnLxX5Z+PCwxesCmNHnvtYTHvC28925T50570m1tV1rf2kuulPZX6BAgUTEDQVbAN0y4BAgTyIiDoystO6IMAAQIE8igg6Ep3VwRd6fqqTqDIAoKuIu+e3gkQINAEgT8/fkvM+qt7flGZvaOjCV2YkgABAgQI5FOgvfrMqAv2uzIa7NPepymN3vHErTHvpSPPa8r8aU+6wiKrxhSHf+bYtKdSnwCBggkIugq2YdolQIBAswUEXc3eAfMTIECAQJ4FBF3Z7I6gKxtnsxAoooCgq4i7pmcCBAg0QeBPj/0uZr3y3l9WZ3cnVxO2wZQECBAgkHOBOQcMig7P/Z9Lm9rphMnjY/6DLt03xslTJzW1n8Qnb2uLkqfudW6M8849X+JTKEiAQDEFBF3F3DddEyBAIHMBQVfm5CYkQIAAgQIKCLoy2jRBV0bQpiFQPAFBV/H2TMcECBDIVOCuJ/8c8/3yrp9X53UnV6YbYDICBAgQKJTAiMHzR7+nVe80anbz591+drTwwDOVb0tudj9Jz7/tGjtHyT3W3Sfp0uoRIFBQAUFXQTdO2wQIEMhKQNCVlbR5CBAgQKAMAoKubHdR0JWtt9kIFEFA0FWEXdIjAQIEmiBwz9N3xqwX3vnTyuy+XbEJu2BKAgQIECiawELzLBot/2j3s3LR+lOvPRF9nHTj93PRT9JNzDXHkCh59hcq3wbdrG+5THpd6hEg0LiAoKtxO1cSIECg1AKCrlJvr8URIECAQEoCgq6UYGdSVtA1ExiHCbSwgKCrhTff0gkQINCVwIPP3ReHz7vtzBg7OqZ3dZpjBAgQIECAQBcCwwaNiKNn7nN+F+9mf6ijV+XZmt+94hsx+dtj3si+iQxmPGDL78Qs6y21YQazmYIAgTwLCLryvDt6I0CAQBMEBF1NQDclAQIECJRGQNDVnK0UdDXH3awE8igg6MrjruiJAAECTRB4/JXHYtbTf39CjNOmT21CF6YkQIAAAQLFFujbp18s4Px9fx1j7/beuVjQ9Y9cHX3c8NerctFP0k2svOgaUfLQ7cr5LLKkvdQjUGYBQVeZd9faCBAg0A0BQVc3sJxKgAABAgRmIiDomglMyocFXSkDK0+gQAKCrgJtllYJECCQhsAro16Osj+84cgYJ0wal8Y0ahIgQIAAgZYSOH6302O9iw1fIhfrHjXu3ejj27/aP8ayPYOzvXrn3FlfuCDWN7j6bYy5wNcEAQKZCgi6MuU2GQECBPInIOjK357oiAABAgSKLyDoynYPBV3ZepuNQJ4FBF153h29ESBAIEWBUeNGRfXjrzs8xtEfVP5Nb4pTKk2AAAECBFpGYK+N9o21brXydrla80k3HRv9PPVq5dmcuWougWb23PB/osrWq2yfQDUlCBAoooCgq4i7pmcCBAgkICDoSgBRCQIECBAgMBMBQddMYFI+LOhKGVh5AgUQEHQVYJO0SIAAgSQFpkybHOWOv77yTK6X3n4+yfJqESBAgAABAv8VWHbBFcPhqB0r32acF5R7nxkZrVxw+9l5aSnRPhYdsWTUO2HX0xKtqxgBAsUREHQVZ690SoAAgUQEBF2JMCpCgAABAgRmKSDomiVPam8KulKjVZhAYQQEXYXZKo0SIEAgGYEL7vxpFLr3qTuSKagKAQIECBAg8DGBtrb2OHb2Fy+MMS/fAjh56qTo58BLK88Qmzh5/Md6L8OBE/eo3LG28LBFyrAcayBAoBsCgq5uYDmVAAECZRAQdJVhF62BAAECBPIuIOhq7g4Juprrb3YCzRQQdDVT39wECBDIUOCOJ26N2S4deV6Gs5qKQLICcw8cGgUnTB4X45SplWfOJTuLagQIEEhO4LPr7BnFdlpzt+SKJlDpwrt+FlXuefL2BKrlr8S2a+wcTe2x7j75a05HBAikKiDoSpVXcQIECORHQNCVn73QSeMCgq7G7VxJgEBzBARdzXEXdDXH3awE8iAg6MrDLuiBAAECKQq8MuqlqH7sNYfFOLX6rYspTqk0gdQEDt/h+Ki9wkIrxfjBpPdjHP3BqBjf+eCdGN8bX3k9qvp61AfvVo+PjnHshDExTp02JcZJ1WfWdHRMj9cTJk+IsfZjwqTaM2w6aoeMBAgQqEtgyJzD4rwz9jk/xt7tveu6Lu2TnnnjqZjixOq3MKc9X9b1h841PKY8s+re1taWdQvmI0CgSQKCribBm5YAAQJZCQi6spI2TxYCgq4slM1BgECSAoKuJDXrryXoqt/KmQTKJiDoKtuOWg8BAgSqAlOnT43fjrv28Bhffuc/bAgUXmDGoKtZC5o4pXLH17Tp06KFSdVnhdXuEKv99TepemfY9F6VO8HGz/DtZhMmVZ41Vnt/UrXu1OmVO8umVO/AnFytP6361/WkKRNj3tr9ZeMnftCJojZPR0fljElTK+dPnVb5+8KU6p1stfrTq+uYUJ2/U7FZvKjd6dZRXd8sTu30Vm2+2jo6vekFgZIKfHXzb8XKNlxmk1yssPbX7WFXfDP6eWvM67noK+kmDt/hB1FyhYVWTrq0egQI5FRA0JXTjdEWAQIEeipQ+z/agq6eSro+TwKCrkpQVQuIBF15+nTqhcCsBQRds/ZJ611BV1qy6hLIr4CgK797ozMCBAj0SOCah66I629++Joe1XExgTwJ5CXoypNJGXqpBfO1AG9K9c6zydVnp9XG2rds1u6gGzepcifbexPeC4baM9leHfVyvP7360/G+MHEsWVgsoaCC8w/dKFYwcl7/CTGvDwz6sa/Vf6ccN1fKn9uKDjzx9rfYLnN4tj+nzrwY+85QIBAOQUEXeXcV6siQIBAL0GXD0EZBQRdZdzVXr0EXeXcV6vqLCDo6uyR1StBV1bS5iGQHwFBV372QicECBBIROCV6p0MR//221Gv9iycRIorQqDJAoKuJm9AwaavBWjXPnRVdP6Hv11XsBVot4wC+29+SCxrg2U2zsXyRo2rfCvtt3+1f/RT+/bZXDSXQBMD+s0RVc754sUx9uvTP4GqShAgkGcBQVeed0dvBAgQaEBA0NUAmksKIyDoKsxW5aJRQVcutkETMwgIumYASfmloCtlYOUJ5FBA0JXDTdESAQIEeiJw8s3HxeVPvvLPnpRxbVICbW1Raf4hC8a4+PClKuO8lXHonMPidb/e/WJ8o/qtV8+/9e94/dhLj8Y4cYZv64uDLfjjO585Jla9yiKrteDqLblRgdq3TH6resfKB9VnejVaz3UEeiIwX/WfBz/a46wo06e9T0/KJXZt2f/8kLcvA0hs4xQiQOBjAoKuj5E4QIAAgWILlP0PqoXbHUFXolsm6EqUs2WKCbpaZqsLsVBBV3O2SdDVHHezEmiGgKCrGermJECAQAoCf3vhoah69h9PSqG6krMTaGtrj1OWWWD5GNdeaoMY11ly/RiHDBwSY3d/1L5t7qoHL49Lb3/s990tUarzv77lobGedau+pVqcxaQucNWDv4o5/vjo9anPZQICsxPYe+OvxClbrrTt7E7N5P37/n13zPOLP1fuNMtk0gwnWbF6J/Bh1TuDM5zaVAQIZCwg6MoY3HQECBBIS0DQlZZsfXUFXfU59fQsQVdPBVv7ekFXa+9/3lYv6Mp2RwRd2XqbjUAzBQRdzdQ3NwECBBIQ6OjoiCrf+823Ynx99MsJVFVidgKLDF8iTtlk+c1jXHepyp1bg+do7M6t2c1Xe/+M6h17/6jewVc73irjHht8MZa67ao7tsqSrTNBgSdfezyqnXzj0QlWLX+pvtVvqVt36Y1isY+99LcYx4wfXf7Fp7jCuQbMHdVP3ftnMQ7sN2eKs82+9OSpk+OkAy/9coxlezZke3vvWNdZX7ggxrT/eR2T+EGAQFMEBF1NYTcpAQIEkhMQdCVn2Z1Kgq7uaCV3rqArOctWrCToamzXBV2Nuc3uKkHX7ISSfV/QlaynagTyLCDoyvPu6I0AAQJ1CDz0/INx1k9vOaWOs53SXYH+fQfEJessvWGMn1phqxiXnHfp7pZK5Pxn33wm6pxw3RGJ1CtakQ0/sVm0/NXNDixa6/rNgUDtofQHXPyF6GbK1Ek56Cr/LRyw5XeiyfWWqvx9cMyEMfH6jD+cGOMLbz2b/0XkuMOtVtshuttr/S/lostL7j4/+rjz8Vty0U/STXxuw/+Jktussn3SpdUjQCAnAoKunGyENggQINCogKCrUbn6rhN01eeU1VmCrqykyzmPoKuxfRV0NeZW71WCrnqlkjlP0JWMoyoE8iwg6Mrz7uiNAAECdQgcc81346wX336ujrOdMjuB2n+S+MkVtoxTN1p2kxgH9J1jdpdm+v4hl3815hv1/juZztvsyUYMnj9aOG2vc5vdivkLLHBi9Rldz1Sf2VXgpaTa+iLDF4/6P9ztjC7nmTB5fBw/6aZjY/TPoS6ZZnuwd3ufOOcHu54a4yLzLDbba9I84eV3X4zy37/6kDSnaVrt2j/nf7jb6U3rwcQECKQrIOhK11d1AgQIpC4g6EqWuPYHYEFXsq5JVRN0JSXZ2nUEXfXtv6CrPqeeniXo6qlg966v/XNe0NU9N2cTKJKAoKtIu6VXAgQIfETg6defjFc/uuGojxz1a70Ctf9jscaS68YlW668XYzLzv+Jeks09byf3XZmzP/XZ+9pah/NmvzML1wYUw+bc1izWjBvgQUuv+/i6P62f/6uwKtIv/U9N6p8+97WK39mlpN9MOn9eP+kG4+J8ZXqHUGzvMibHxNYcr7l4tgxn/1RjG1tbR87J8sDx19/ZEz33BtPZTltZnOduMdZMdfCwxbNbE4TESCQjYCgKxtnsxAgQCBxAUFXz0gFXT3za/bVgq5m70Cx5xd01bd/gq76nJI6S9CVlGR9dQRd9Tk5i0ARBQRdRdw1PRMgQOC/Ahfe9bNwuOfJ23nUITBojsFx1iYrbB7j5ituE2NR7wj6wz9uiv5/c/8lMbbaj/03rzw7ZoNlNm61pVtvAgIjn6r8ffPiOyt/H02gZClLHF99htFiw5eoa31jJ46N80684fsxvjH6lbquc1JngS9u+rU48KnqsyI7v5vdq3ufGRmTXXD72dlNmuFMW1S/dXGf6rcwZji1qQgQSFlA0JUysPIECBBIS0DQ1T1ZQVf3vPJ+tqAr7zuU7/4EXfXtj6CrPqekzxJ0JS3adT1BV9cujhIog4Cgqwy7aA0ECLSUwOSpk2O9B15aeXbKxOq3XrUUQh2LHTZoeJy19ao7xrjZ8lvE2K9Pvzquzv8pf3vhoWjy7D+elP9mU+hw0+qdDl+u3vmQwhRKlljgP9VvqT2u+q21JV5qQ0vr33dAXHfevpfH2N7W3q06735Q+TbYH1x7eFw3Zvzobl3f6icP7D9XEJy85zkxDq7ekZy1y5RpU2LKb122X4wfVO/Yy7qPtOabc8CgKH129ZmPfXv3TWsqdQkQyFhA0JUxuOkIECDQUwFBV32Cgq76nIp6lqCrqDuXj74FXbPeB0HXrH3SflfQlbZwpb6gKxtnsxBohoCgqxnq5iRAgEAPBB56/sG4+qe3nNKDKuW7dMTgBWJRO6y5S4wbLLNJjH3a+5Rvsf9d0avVZ98cedVBpVzf7BY1bNCIOOXMfc6f3aneJ/AxgclTJ8Wx/S7Yq/pex8fOaeUDi41YKpZ//K6n9oihFiiedOPRUWfSlIk9qtdqF6+37Kax5AM+fXBTl371X38d8//+kWub2kdak391829F6Q2rf25Iax51CRDITkDQlZ21mQgQIJCIgKCra0ZBV9cuZT0q6CrrzmazLkHXrJ0FXbP2yepdQVc20oKubJzNQiBLAUFXltrmIkCAQAICF4/8eVQZ+cRtCVQrbonaf3Kw9WqVZ3BtU/32pFZ5xsbU6VNj877yi8/F2NExvbib2YPOj6vecbJE9Q6UHpRyaQsKfLP6rMP3x7/Xgquf+ZLXrX6b6der32468zPre+fRFx+JE3/yp5NjnD59Wn0XOisEvrv9cTGutPAqTREZM2FMzPudy/ePcUr1WaFNaSaFSZddcMWoetSOJ6RQXUkCBJohIOhqhro5CRAg0AMBQVcFT9Al6Pq/T4Kgqwd/M3FpL0FX1x8CQVfXLs06KuhKV17Qla6v6gSaISDoaoa6OQkQINADgW9f/rW4+t333+pBlSJe2hZNf3qlbWLcbd3Ks3Xm6DewiItJrOfW/TxUCLerPpNt93X2TsxUodYR+MF134vFPv/m062z6DpWusNau8VZu6y9Zx1n13/KLY/9Pk6+4t6L6r/Imb3mrT6D8kd7nBUazbpz+Zcjz4v573ri1pLtSuXPFyft+ZNY14JDFirZ+iyHQOsJCLpab8+tmACBggu0brAh6Orqo9u6n4eKhqCrq0+FY/UKCLq6lhJ0de3SrKOCrrTlBV1pC6tPIGsBQVfW4uYjQIBAgwJvV+/gOrR6R1eDZQp32bBBw6Pn/TY7MMYVFlq5cGtIs+GTbz4uyj/5yj/TnCa3tecfunD09uPPVf5NfG4b1VguBc7985nR11/+fU8u+2tWU5/f5Ksx9eYrbp1KC5fdc2HUvf1ff0ilflmL7rD27rG0XdaqPJsx63W+OfaNmPLwK74ZY9meDbnVajvEuvZa/0sx+kGAQHEFBF3F3TudEyDQYgKCLkFXVx95QZegq6vPhWP1CQi6unYSdHXt0uyjgq50d0DQla6v6gSyFBB0ZaltLgIECPRA4KHnH4yrf3rLKT2oUpxLl15g+Wj2kG2OiHGu/oOK03yGnV5y9/kx252P35LhrPmb6qQ9z4mmPFslf3uT545+85fLo70//O26PLeZeW/f2Oq7Mec6S66fytzTqt+6WAvqn3nt8VTmKVvRPr37xZJO3OOMGOcfvGBTlviLOyt/v73vqTubMn9akw7sP1eUPvPzlX+uDug7R1pTqUuAQMoCgq6UgZUnQIBAUgKCLkFXV58lQVdFRdDV1afDsdkJCLq6FhJ0de3S7KOCrnR3QNCVrq/qBLIUEHRlqW0uAgQI9EDgmoeuiKtvfviaHlTJ/6WrL7FONPmNLb4dY9/qv8HOf+fN6dC3mFXcd65+C+eOa+zanI0wayEF/vTY76LvK++9uJD9p9X0kTudGKWXq95Zm9Y8YyeOjdLH/PbQGEd/8E5aU5Wq7vILrxLrOWL745qyrlHjRsW8h1/xjRgnT53UlD7SmnT3Db4Qpbdbdae0plCXAIGUBQRdKQMrT4AAgaQEBF1JSZarjqCrsp+CrnJ9rrNajaCra2lBV9cueTkq6Ep3JwRd6fqqTiALAUFXFsrmIECAQAICZ/3p5Kjy6H/+mkC1/JVYcr7loqkjdzw+xr69++avyRx29NjLf4+uTvtdxS2HLWbS0mIjlop5jt/11EzmM0k5BB549t5YyHm3VZ55VI5V9XwVJ+5xdhRZeNgiPS9WR4X/vPVsnHXijd+PccrUyXVc5ZSvVe98Xn/pjZqCUdZ/ATd4zmHhefreP4/Rn0ea8vEyKYEeCQi6esTnYgIECGQnIOjKzrpIMwm6Krsl6CrSpzY/vQq6ut4LQVfXLnk7KuhKZ0cEXem4qkogSwFBV5ba5iJAgEAPBL7/28ozq15+54UeVMnfpbU/UJ6w22nR3OA5huSvyRx3NGrcu9HdIZftl+Mus2itLSY54/PnxTjPXCOymNQcBRd44tXHYgU/vunYgq8k2fZP3adyJ8u8g+ZLtvBsqt3zdOVb/C68o/KtfrM5veXfHlK98+jUvc4Ni359Kt/KmBXMlGmVO++OvqbyLZ2vj3o5q6kzmedLnzwg5tls+S0ymc8kBAgkJyDoSs5SJQIECKQqIOhKlbewxQVdta0TdNUkjPULCLq6thJ0de2St6OCrnR3RNCVrq/qBNIUEHSlqas2AQIEEhT4+i+/GNXGTXw/warNL5X219g3f4XpdtDRqyMm+NpF+8Q4cfKEdCfMefU9Nqj8dbLtqjvmvFPt5UHglVEvRRtH/eZbeWgnNz2c9cWLopehA4c2padL77kg5r3jX39syvxFm3TndfeMlndcY7emtP5S9U7zH1x3eMw/ddqUpvSR9KQjBi8QJU/Zs3KHYXtbe9JTqEeAQEoCgq6UYJUlQIBA0gKCrqRFy1FP0NV5HwVdnT28mrWAoKtrH0FX1y55PSroSmdnBF3puKpKIAsBQVcWyuYgQIBADwQmT50UV+93QeXf2PagVK4uXWnR1aOf7253dK76KmozJ95YcXzmtceLuoRE+vZQ+kQYW6bIqHGjYq2HXPaVlllzPQs998uXxWlz9p+rntMTP2fq9KlR86Tqs9Oeff3JxOcoU8EB/eaI5ZxSfVbX4DkGN2V5dz99R8x70R0/q85fueO4Kc0kOOkB1W+3XK9J326Z4FKUItAyAoKultlqCyVAoKgCgq6i7ly2fQu6Kt6Crmw/d0WfTdDV9Q4Kurp2yetRQVe6OyPoStdXdQJpCAi60lBVkwABAgkKlO9h45WHhv9g11NDafERSyao1bqlrn3oylj8TQ//tnURPrLyH+9VuaNg/uozVj7yll8J/L/AxCmVZ9rtf+He/3/ML716XbDfVcGQ9bf4zWg/ZsJ7ceiY3x4a43vVO/BmPM/risBmK24dv3xpk682leTmv18f81/zwK+a2kdSky80z6JR6sTdzoyxra3y55ik6qtDgEDyAoKu5E1VJECAQKICgq5EOUtbTNDVeWsFXZ09vOpaQNDVtYugq2uXvB8VdKWzQ4KudFxVJZCmgKArTV21CRAgkIDAa++9GlW+d+WBCVRrfokVFlktmjj8M8c0v5kSdfCvV/4Zqzn15uNKtKrGl7LTOp+Liz+75u6NF3Fl6QVqX+bwpfN2ray1oxzPFGp84yp3qlxywDVRoq1XPu5cefbNZ6Kfk6rPIizLt/o1vk9dX9m7vU+8cerelTta55lrRNcnZnT05kevi5muefDX1RmL/dfXAVt+J9ax3lIbZiRoGgIEGhUQdDUq5zoCBAhkJCDoygi64NMIujpvoKCrs4dXXQsIumZ0EXTNKFKk14KudHdL0JWur+oEkhQQdCWpqRYBAgRSEPjPW89G1eOuPSyF6tmXPHT7Y2PSlRdeNfvJSzzjpKkTY3UHXPSFGKdVv7WsxEue5dIWGLpIvH/y586e5XneJPB/AvtfVHlG18TJlWd2tapKn979YukXfbXyjK68Odz55G3R0iV3/TxvreWqn0+usGX08z+bfi0XfdW+jfGSu86Lfor6z6faP1dO2uOsWIdndeXi46UJAl0KCLq6ZHGQAAEC+REQdOVnL/LciaCr8+7U/g+JoKuzi1ddCwi6Ki6Crq4/H0U7KuhKZ8dq/1wRdKXjqyqBJAUEXUlqqkWAAIEUBJ5+/cmo+qMbjkqhenYlh889X0x22t7nxpiXZ79kJ5DNTCdUPyfPVj832cya31l+uHvlW7IWmWex/Daps6YLfPPSL0cP74+vfMtf0xtqUgMD+g2Mmc/f9/ImdVDftBePrNzRNfKJyh1e9V3VOmf16d03Fntq9Z+3w+acJxeLf+q1J6KPc249LcYPqt+qmYvmutHEwdt8L85eY/G1u3GVUwkQyFJA0JWltrkIECDQgICgqwG0Fr5E0NV58wVdnT286lpA0FVxEXR1/fko2lFBV7o7JuhK11d1AkkICLqSUFSDAAECKQqUJej67Dp7htJOa+6WopbSf3rsd4Fw5b0Xw/ivwLZr7BwOe6y7Dw8CMxU46LKvxHtjxo2a6Tmt8MaggUNimT/9Yr7//jG1+gzCE2/4fvT7fPVbGVthj7qzxk+ttE2c/sWN9+vOZamfO2rcuzHHObdU7ux6/s2nU58zyQmWXXDFKHfUjickWVYtAgQSFBB0JYipFAECBNIQEHSloVremoKuznsr6Ors4VXXAoKuiougq+vPR1GPCrrS2TlBVzquqhJIUkDQlaSmWgQIEEhB4Jk3noqqJ15/ZArVsyv5/c+eFJMtM/9y2U3agjONqt6Rcsivqv8Gv6OjBRU+XLJnw31o4beZC3yr+tfL6A8qd5rM/MxyvzNs0IhY4Jn7nF+Ihdb+fnfsNd+NfseOH12IvrNqsm+f/jHVmZ+v7OegAXNnNXVd80zvmB7n/e7vN8R440O/iXHqtCl1Xd/sk07du/KsuHmrzyBtdj/mJ0DgQwFB14cWfiNAgEAuBQRdudyW3DZV+z9+gq7KFgm6cvtRzVVjgq7Kdgi6cvWx7HEzgq4eE86ygKBrljzeJNBUAUFXU/lNToAAgdkLPFt99sgJ1x0x+5PzeEZbW3T1i6/8Osb+fQbkscvS9fSD674Xayras0/S2oijdz45Si8937JpTaFugQUOufyr0f2o998p8Cp63vp8QxaKIqfseU7Pi2VYofbPyZNvOiZmnTJ1coaz53+qndfdM5rccY18PyPzjTGvR59X/6Xy54VHnnugipvPO5P32aTy940tVtw6/x8CHRJoMQFBV4ttuOUSIFA8gdof4AVdxdu7ZnYs6OqsL+jq7OFVZwFBV8VD0NX5c1GWV4KudHZS0JWOq6oEkhAQdCWhqAYBAgRSFHjxnf9E9WN++50UZ0mvdNH+U5j0JLKt7KH0nb23WOUzcWCfDb/c+Q2vCPxX4Fu/qtyZMfqD1r6ja+F5FovPw4m7n1nIz8UDz94bfZ93W63/fN4JlDXu4IFDY8ozqs/q6tPeJ+sWGpqv9uef2x+/Ja5/8N93xzhpysSG6iV90Y5r7xEld16rMiZdXz0CBBoXEHQ1budKAgQIZCJQ+4OeoCsT7tJMIujqvJWCrs4eXnUWEHRVPARdnT8XZXkl6EpnJwVd6biqSiAJAUFXEopqECBAIEWBN8e+EdUP+/XXU5wlvdIjBs8fxU/b69z0JlH5YwLjJ4+LY9+6rPLti3n5N+AfazSjA4PnHBYznf35C2Jsqz47LqPpTZNzga//8ovR4biJ7+e803TbW3zepWOCH+xySroTpVz92oevihlueujqlGcqVvmvfOrAaHjj5TYrVuPVbidPnRS/PfnaEzE+9vLfY/zP28/G+Nqol2McP+mDGJP/UXnm6BLzVf46OXDLQ2OKeeaqfFtp8vOpSIBAowKCrkblXEeAAIGMBARdGUGXbBpBV+cNFXR19vCqs4Cgq+Ih6Or8uSjbK0FXT3dU0NVTQdcTyEpA0JWVtHkIECDQoMD7E8fGld/85ZcarNDcy4bPPV80cPreP29uIy06+y9Hnhcrv+uJW1tUoPOyj9jxhDiw/IIrdn7Dq5YW+PL5u8f6p02f2tIOSy+wfKz/6J1OLLRDR6/Ks7l+dtsZsY6Hnr2v0OtJqvklq986e2z1W2iTqpu3OmOrf24aO/69aG3shMqfo2p/nqp9Pmrfzjl52pQ4r716p+8c/QbG695tvWOce47BMY6o/nlmWPUO4TjoBwECuRQQdOVyWzRFgACBDwVqfzATdH1o4rf6BQRdna0EXZ09vKoICLoqDoKucv8VIeiqBF6CrnJ/zq2OwP8JCLp8DggQIJBzganVOwz2rd5xkPN2P9bewP5zxbFzv3zp/7J33nFWFFkbZoacdAkCKpjWsIBgYFVMqIggoihrFgXMYlpFEAxECSIqiFlQQcW8igERDAiGNSIIjIirIklXQFRAwhC+n6dvrd80987c7q7urup+/qGmq6vOec9zmpnLS0+3jAXlnFv/t1nIRCgElvy8SOLe9My1mfjpfgvZUU3aCocLjrosFN4EtYtAceZOjose4q1pf3SuccPm0sA+Jw2Q0fY/ijdvlBIGT7xZxoU/Oc9ysr2uoPoHZ96q2Sjzls2g8dgPAQhAwDQCGF2mdQQ9EIAABFwEMLpcQDj0RACjqyQujK6SPNJ+hNFV8grA6CrJI6lHGF1J7Sx1QQACigBGlyLBCAEIQMBwAheNOVsUFmfeOmS43G3kjTjXeUZXvZrOM7u2WcBEqARufWWAxP9yyReh5jE9eM3Ms1ZGd31YpBYWFJouGX0hEvh57UqJfm3m7aQhprIi9P67HeTwaH+DFXrzFflL5llNA/51vWxZtWZFvlsTue7YZh2kri5HXJjI+igKAhCAAEYX1wAEIAABSwhgdFnSKENlYnQ5jcHoMvQCjUkWRldJ8BhdJXkk9QijK6mdpS4IQEARwOhSJBghAAEIGE7gmscvEYW2/k/05W17iv5D/nqY4aSTKW/Bj/OlsCEv3pjMAj1Wdf1JA2VH04bNPO5keZIIFC2dI+UMf7l/ksryXUurxm1k74VHX+47hskb1a9yD554k8hct2GtyXJD06aenTm661jJUbF8pdByERgCEIBAHAQwuuKgTk4IQAACPghgdPmAxpb/EcDo+h8K+QKjqySPtB5hdJXsPEZXSR5JPcLoSmpnqQsCEFAEMLoUCUYIQAAChhPo+7xzR9Si5d8arjS7vNb7tpcTXY+8OPsCZiMhcPukwZJnzqKZkeQzNQkPpTe1M9HqertoqiQcP/2BaBMbmu2Ug523T3Zq4YyGygwsa/6yIokx4tVBMm7KvJ0xcGDLAnQ/rocobrnnEZYpRy4EIACB0glgdJXOh7MQgAAEjCGA0WVMK6wWgtHltA+jy+rLWJt4jK6SKDG6SvJI+hFGV9I7TH0QSC8BjK709p7KIQABywgMf9V5plDR4tmWKXfk1tt+R/lixDn3Wqk/KaIXZu4I7P98r0xJW5NSmqc6alT9i6y/O/OMGt6+6AlfYhY/9e/xUsvrs15KTE1BCrki8yzFg1PyLMWPv/lAcN37xh0Otq3p+n6Y1JcPBPk7wF4IQCAZBDC6ktFHqoAABFJAAKMrBU2OoESMLgcyRlcEF5sFKTC6SjYJowujq+QVwREEIAABOwlgdNnZN1RDAAIpJHD/m6Ok6g+/nmF19YPPGCn6G9XZ1eo6bBd/99TbpYRPM3c02F6PX/29Ozp3SjbZmbcv+mVo875Rr98q8j//7mObywisvaCgUGLc1fVhGbevun3gmDYFmDJnksh98j2nfpu0B9FaoXxF2X53t0dkrFapepBw7IUABCBgDAGMLmNagRAIQAACpRPA6CqdD2e9EcDocnhhdHm7bpK2GqPL6ShGF0bXH1cCRlfSvsNRDwTSSwCjK729p3IIQMAyAo9n/qf5zcz/PFsm/39y2+3fUb4+59Bu/5vji+gJ/Lx2pSTt89RVMm4oXh+9CAMyHt2krag4/6jLDFCDhKgJ9Hnmn5Lyh58XR53aqHxNG+0veq4/sZ9RuqIW8/SHj0vKyZ+/GHXqWPNdcMzlkv+ov7WJVQfJIQABCOgigNGliyRxIAABCIRMAKMrZMApC4/R5TQcoytlF76rXIwuBwhGl8MBowujy/UtgkMIQMBSAhhdljYO2RCAQPoIvDTzeSn6hY+etLr4mtWct92NOu8hqaNCYQWr67Fd/GuznbfNPfOB8/Y52+vxqp+H0nslloz1WzNv17t47NlSUPGmjckozGMV5TPff/t2Gio7d6+3p8cIyVq+tZzzMPrxM8ZIYdPmvZ6sAnNU06TRfnKm94n9c6xgGgIQgIBdBDC67OoXaiEAgRQTwOhKcfNDLB2jyzFe7+46VigXZh7KHSJyQhtAAKPLaQJGV8mLEaMLo6vkFcERBCBgKwGMLls7h24IQCB1BN5b8I7UPOat0Ymo/cLWV0odrfZpnYh6bC1i85bNIr3f8z1lXLLye1tLCaSbh9IHwmfd5pVrVojmHo9fYp12nYLPOKyLhOuw3yk6w1ofSxlej05/UGqZXjTV+ppKK0AZnveeP06WVa1UrbTlnIMABCBgPAGMLuNbhEAIQAACDgGMLq6EMAhgdDlUMbrCuLrMjYnR5fQGoyv7NYrRhdGV/cpgFgIQsIUARpctnUInBCCQegLzlxUJg2Ev3ZwIFg3r7Cp1DD7jThkLyhUkoi5bi/j6x69E+pCJN8m4desWW0vxpfuYpu1kX7dWl/razya7CMxbMkcE3/ZKOn9Vi+s9v+tVGV4Pv3OfbHj3y7fy22jpqu7H9RDlLfc8wtIKkA0BCEDAIYDRxZUAAQhAwBICGF2WNMpSmRhdGF2WXrq+ZGN0cb3nc+FgdOVDiTUQgAAEzCOA0WVeT1AEAQhAICuBFauXy/x1TyTrjpMr2vWSug7e49CsdTMZLYFnPnpCEr4284VoE8ecjbcvxtyAiNO/lXnm0mPTH4g4c7zpGjdsLgJ6degrY/nC8vEKsiS7ennB2HfuFcXvzX/bEuXeZLbcq5Vs6N7mGm8bWQ0BCEDAMAIYXYY1BDkQgAAEchHA6MpFhnmdBDC6ePuizuvJ1FgYXRhdXq5NjC4vtFgLAQhAIH4CGF3x9wAFEIAABPIioB4aftGYs2T9lszb8vLabPCiHWs3EnXDzhglY0EBz+qKs12btmyS9INeuEHG75d/E6ecyHP37jhIcjbZed/Ic5MwOgJP/nucJJsy6+XoksaYqUGtnSV7/3/cKmO1StVjVGNvamV4PTL9filixpdv2ltMFuXVKteQ2Xu6PSojd/xlgcQUBCBgBQGMLivahEgIQAAC5cphdHEVREEAowujK4rrLO4cGF0YXX6uQYwuP9TYAwEIQCB6Ahhd0TMnIwQgAIFABK6b0F32r/jtv4HimLa5y1GXiaRjm7Q1TVoq9fz46zKpu99zPWXcULw+FRx4G10q2lxu5ORhUuishZ8kuuCqlR1Da+BpI6TO+ts1SHS9URWnHlI/fsZDknLavClRpY4kz82dnL8fezXYJ5J8JIEABCCgmwBGl26ixIMABCAQMgGMrpABE14IYHQl66UPXNYlCWB0leTBkTcCGF3eeLEaAhCAQNQEMLqiJk4+CEAAAgEJ3D31donw6TcfBIxk1vbqVWqKoOFn3y1jzSrbmSUwpWqmffmGVD7uHeeZNEnHULPaX6TE0V14KH2Se93n6X9KeT+sWpzkMstdcMzlUt9Rf2uT6DrjKk4ZXmOnJettjJ0OPluQntLi9LjQkhcCEIBAIAIYXYHwsRkCEIBA9AQwuqJnnuaMGF2FaW5/YmvH6EpsayMtDKMrUtwkgwAEIJA3AYyuvFGxEAIQgIAZBCbNnihCnv3gMTMEaVZxwO6HSMRrju+tOTLhghB4aJpzp93786cFCWPN3j4n3yJaG+/U1BrNCC2bgHqY+MVjnTtWijdtLHuThSv2ybw19IaOA0V9QTneZhtmG9VLPEa86rzMYv7SuWGmCz323pnvezdlvg+GnpAEEIAABDQTwOjSDJRwEIAABMImgNEVNmHiZyOA0ZWNCnO2EcDosq1jdujF6LKjT6iEAATSQwCjKz29plIIQCAhBOYvK5JKhr10c0Iqyl7G2YefLyeOb35S9gXMRkqgeLNz58ugF2+UvIuWfxtp/qiTHdP0eEnZrdUlUacmX4gEVq5ZLtF7PJ7Mlw1UrlhF6hty5igZd6hZL0SahHYTWLNhtUwN+FcfGZf/+oN7iRXHFcpXFJ33X+DcOV6pQmUrdCMSAhCAgCKA0aVIMEIAAhCwhABGlyWNSphMjK6ENTSl5WB0pbTxEZWN0RURaNJAAAIQKIMARlcZgDgNAQhAwDQCGzPPlLni0a4ibeOmDaZJ1KTHeabMaS07S7w2mTtsqlaqpik+YfwQUEZBv+d6yfY163/zE8b4Pbx90fgW+RI4d8kXsm/EKwN87Td905mHOT8XTtjvZNOlJlrfdz/9R+ob+IJzZ9fWrVusrLfXSQNE974Nm1upH9EQgEB6CWB0pbf3VA4BCFhKAKMLoyvOSxejK0765A5KAKMrKEH250MAoysfSqyBAAQgEB4BjK7w2BIZAhCAQKgE7ppym8Sf+e2HoeYxJbh69sxJfz9dJJ3QvKOM5QvLmyIxVTqKls6RetVbxrZs2ZzI+nn7YrLa+ua8KVLQ4zMeTFRhtWrUlXpGnHOvjBUzz1hKVJEWFjP+3TGi+u25ky1UX65cp4Odt5Oe0sL5uWtlEYiGAARSSQCjK5Vtp2gIQCAJBDC6MLrivI4xuuKkT26/BDC6/JJjnx8CGF1+qLEHAhCAQHACGF3BGRIBAhCAQCwEZi+aKXnvnDQ4lvxxJ92j/j4i4cq218lYJ3NHQ9y60pb/5c9fkJL/9eETiSydty8mq60TPhgnBU2d/XKiCut61GVST+smbRNVl+3FrNv4u5Rw/VNXyfjb76usKqnZLgeK3p4dkv2WZ6uaglgIQCAvAhhdeWFiEQQgAAHzCGB0YXSZcFVidJnQBTTkSwCjK19SrNNBAKNLB0ViQAACEPBOAKPLOzN2QAACEDCCwNZyW0XHDU9fI+MPqxYboStqEdWr1JSUF7e+WsYDdm0RtYRU59u61bkOh786UDh8mXmrXVKgbFetlpQyustYGQsKnLeBJqW+tNVx5+ShUvLshZ8movS629WXOoaffbeMFQorJKKupBVh638IqJ+v954/TlpSUI7vf0m7NqkHAkklgNGV1M5SFwQgkHgCGF1Oi9UHcYyueC55jK54uJPVHwGMLn/c2BWMAEZXMH7shgAEIOCVAEaXV2KshwAEIGAYgc+++1gUjX79VsOURS3H+Z/m9gecIolPP/gcGXkrYzR9+HXdL5Loxmd6yLgmcxxN9vCz8PbF8BlHkaH3086dnz+uWhJFutBzXNTaefbTkfscE3ouEvgn8Ou6X2XztY9dLOPmLZv8B4th5/Bz7pGsDbbfKYbspIQABCDgnQBGl3dm7IAABCBgFAGMLtUOjC5FIo4RoysO6uT0SgCjyysx1usggNGlgyIxIAABCORPAKMrf1ashAAEIGA0gZGTh4m+WQs/MVpnVOKaNNpfUl3dtqeMVStViyp1qvN8/v1nUv+o14YkikPrfdtLPV2PdO7ISFRxKShG/YrtRWPOlmo3bd5oddV/qV5b9N957oMycueqHe28e+rtIvTTbz6wQ3BGZffM241b/vVwq3QjFgIQSC8BjK709p7KIQCBhBHA6CrZUIyukjyiOsLoioo0ebwQwOjyQou1YRHA6AqLLHEhAAEIlCSA0VWSB0cQgAAErCWgfjWi//O9pIZVa1ZYW4tO4TvWbiThrjvhJhl3qFlPZ3hi5SAw/NVBcqZo8awcK+ya5u2LdvXLrXbF6uUydd0Tl7pPWXl88kFniu5//N0ZrSwihaI/ytzJdV/mzi5bEHRocapIPePgzrZIRicEIJByAhhdKb8AKB8CEEgOAYyu7L3E6MrOJexZjK6wCRPfCwGMLi+0WBsWAYyusMgSFwIQgEBJAhhdJXlwBAEIQMB6AotXfi81DJ54o4zrN66zviYdBag7cm7u5Dw7qv52DXSEJUYOAotWLJQzfZ+/zlmxdWuOlXZN33DyYBH8t52a2CU85WrnLJktBG5/ZaDVJMoXVnDqOPcBGWtnntVldVEpEr/q91VS7TXjL7Sq6v12+7vo7dHe+VxhlXjEQgACqSSA0ZXKtlM0BCCQZAIYXdm7i9GVnUtYsxhdYZElrh8CGF1+qLFHNwGMLt1EiQcBCEAgOwGMruxcmIUABCBgPYEvMs9GGvXaUKll85ZN1teko4BGdXeTMLecfoeMBeUKdIQlRg4CD749Ws588NU7OVbYNc3bF+3ql1L7xrzX5csnZjykpqwcD9yjpej+Z7vrrdSPaIfAdRO6yxcrfvuvFUhq19xBdI7MvOXTCtGIhAAEUk0AoyvV7ad4CEAgyQQwurJ3F6MrO5ewZjG6wiJLXC8EMLq80GJt2AQwusImTHwIQCDtBDC60n4FUD8EIJB4Au8tmC41PjztHhm3bNmc+JrzKXDImaNkWcPau+SznDU+CSxdtUR23vj01T4jmLVt+2q1RNBdXcbKWFDAHYFmdSi7msfedfr11tzXsi+wZLbXSQNE6b4Nm1uiGJnZCNz/1l0y/WHm53O2NWbNOd/nxlz8pMiqVKGyWfJQAwEIQMBFAKPLBYRDCEAAAkkjgNGVvaMYXdm56J7F6NJNlHh+CGB0+aHGnrAIYHSFRZa4EIAABBwCGF1cCRCAAARSQuCTbz+USh94c6SMmzYXp6RyV5mZO3BGZe7IqZW5Q8e1ikPNBAa+0EcifvvfBZojxxPu5k7DJPFeDfaJRwBZPREY9nI/WT9/6VxP+0xZXLtmXZFyZ+YZSTxb0JTO+NPx0sznZOMLHz3lL0BMuwaf4Xx+aFRn15gUkBYCEIBAfgQwuvLjxCoIQAAC1hPA6Mq0EKMrlmsZoysW7CTNEMDo4lIwiQBGl0ndQAsEIJBEAhhdSewqNUEAAhAohUDR0jlydtRk546UDcXrS1mdvFN77thYiup7ypDkFWdwRW8VTRV1j01/wGCV+Utrf0AnWXxWy/Py38TK2AhcOf4Cyb36919i0xAkcbv9O8r2cw7tFiQMew0h8N6Cd0TJmLect9IaIqtMGVcf31vWtNj9kDLXsgACEIBAnAQwuuKkT24IQAACMRDA6MLoiuGyK4fRFQd1cioCGF2KBKMJBDC6TOgCGiAAgSQTwOhKcnepDQIQgEApBOYvK5Kzo1537uxat2FtKauTc+qi1ldJMUfuc0xyirKgknUbfxeVV2XurCnetNEC1bkl1v/LznLytrPvzr2IM7ETWLNhtWi44pGusWsJIoBnwgWhZ95e9fN32Es3myeuFEVnHNZFznbY75RSVnEKAhCAQPwEMLri7wEKIAABCMRCQH3QxuiKBX/qkmJ0pa7lRhSM0WVEGxDhIqB+/mJ0ucBwCAEIQEATAYwuTSAJAwEIQMBWAktXLRHpd0waLOPK1T/ZWkqpunfYvoGcH36WcwdO+cLypa7nZDgEhrzUVwIvWDYvnAQRRx16lvOMnZ1rNYw4M+nyIWCroaBqq1XDedviyPMelCnetqjI2D2uWL1cCrjuiUutKuSYpu1Eb7dWdum2CjJiIQABLQQwurRgJAgEIAABewlgdNnbOxuVY3TZ2DV7NWN02du7JCvH6Epyd6kNAhAwgQBGlwldQAMEIAABAwj8us55G9kdk5y3EX6//BsDVOmTwLO59LEMEunZjyfI9kmf/StIGGP2ntqys2jpeMCpxmhCyJ8E3pz3uhw8PuOhPyct+uq45ieJ2nMPP98i1Ugti8CmLZtkyYUPnlHWUqPO77fbQaKnR/sbjNKFGAhAAAJuAhhdbiIcQwACEEgpAYyulDY+4rIxuiIGnvJ0GF0pvwAMLR+jy9DGIAsCEEgMAYyuxLSSQiAAAQjoIbBh03oJdO8bd8o4e+GnegLHFGW3entK5gH/GC5jQUFBTEpI+weBWYtmCoiRmWfC2U5FXV8DT73N9lISqX/8u2OkrrfnTrayvps6DRXdezf4m5X6EV06gYvGnCULbHkLLd/vSu8nZyEAAXMIYHSZ0wuUQAACEDCCAEaXEW1IrAiMrsS21sjCMLqMbAuiMgQwurgUIAABCIRDAKMrHK5EhQAEIGA9gS1bt0gNE95/VMY350yyq6bMnVv9M3dy7ZG5s8uuIpKn9veNa6Wo7g+fl5DinDsER3Zx7hyqXb12QupKRhm2vvygepWa0oB7u42TkTtRk3E9uqu4cpzz7LXV6351nzLyWL0FdNR5dj7zzkioiIIABEIhgNEVClaCQgACELCfAEaX/T00sQKMLhO7klxNGF3J7W0SKsPoSkIXqQECEDCRAEaXiV1BEwQgAAEDCUyf/6aoemyGc+fKps3FBqr8UxJvK/uThYlfXTL2HJG1odh5JpyJGr1oOrfVJbL8uKbHe9nG2pAJXDHuAsmwJvNW2ZDTaQvfYo9DJdbV7Xppi0kg8wj0mHCZiFr520/micuiqHxhBZl9+NJnZCwoxzMvs2BiCgIQMIAARpcBTUACBCAAARsIYHTZ0CV7NGJ02dMrm5VidNncveRrx+hKfo+pEAIQiIcARlc83MkKAQhAwFoCC36cL9pHT3HeMrf691+MqqVBrYai55bTbpexUoVKRulDjEOg55NXyBfLf/0hEUgaN2wudfQ5aUAi6rG9iNXrf5MSrny0m5WldDnKudPn2CZtrdSP6PwI3PjsNbJw6cpF+W0wZNWDF00QJVUqVjVEETIgAAEIlCSA0VWSB0cQgAAEIFAGAYyuMgBxOi8CGF15YWKRTwIYXT7BsS1SAhhdkeImGQQgkCICGF0pajalQgACENBJYOWaFRJu5ORhMi5e8Z3O8J5jVczcudW3k6Nn17q7e47BhugI3DLxJkn2nx++jC5piJnUs2vuOd95S2m1StVDzEbosgh8uWyeLLn1pb5lLTXy/IjO94uuetvVN1IfovQQGPTiDRLomx+/0hMwoigju4yVTLxlNiLgpIEABDwTwOjyjIwNEIAABCDwBwGMLq6DIAQwuoLQY29ZBDC6yiLEeRMIYHSZ0AU0QAACSSSA0ZXErlITBCAAgQgJbNy0QbI9Mv0BGf+9YHqE2f9MdWHrK+Wg1T6t/5zkK2MJjHp9uGj7/LuPjNXoR9ilba6VbYftdaSf7ezRRGDq3MkSacK7zltiNYUNPUyd7epJjg+BjHcAABJ+SURBVDs7O99PQ09IglgJDH25n+T/auncWHV4TT70rNGyZefMMzG97mc9BCAAgbAJYHSFTZj4EIAABBJOAKMr4Q0OqTyMrpDAElYIYHRxIdhAAKPLhi6hEQIQsJEARpeNXUMzBCAAAYMJzPjqbVH3+AznTgplhIUlufW+7SV01yMvDisFcUMgcGfm2W6zF34SQvT4QvbuOEiSN9l53/hEkLncuBkPCYVp8163ikarxm1E74VHX26VbsT6I3DrKwNk45dLvvAXIKZdff9xq2Tes/7eMSkgLQQgAIHSCWB0lc6HsxCAAAQg4JEARpdHYCldjtGV0sZHVDZGV0SgSROIAEZXIHxshgAEIJCTAEZXTjScgAAEIACBIASW/LxYtt/zxu0y/pA5DhLz/+89cI+WcnhV254yFhYU/v/TfG04geGvDhSFRYtnG640P3k1q24vC0d3fVhGrsf8uIW1akjmbYsLMm9fDCuP7riXtLlGQh6+VyvdoYlnIIHhrzp3gBYtnmWgutySend0vn832blZ7kWcgQAEIBAjAYyuGOGTGgIQgECSCWB0Jbm7wWvD6ArOkAi5CWB05WbDGXMIYHSZ0wuUQAACySKA0ZWsflINBCAAAeMIqGd0TXj/UdH2TtEbGY1bfWlt0mh/2dej/Q0yVixf0VccNsVLYPDEm0XA1z8UxStEU3aeraQJpKYwV46/QCKt/v0XTRGjCTOi8/2SqN529aNJSJZYCdw+abDkn7NoZqw6vCbvddIA2bJvw+Zet7IeAhCAQCQEMLoiwUwSCEAAAuklgNGV3t6XVjlGV2l0OBeUAEZXUILsj4IARlcUlMkBAQikkQBGVxq7Ts0QgAAEYiQwf5lzB88j0507F/77y9K81By85xGy7tJjr5axQmGFvPaxyEwC/Z7vJcK+X/6NmQI9qurRoa/s2G+XAzzuZLlOAuuL10m4S8d21hk29Fg1qmwnOe49f1zouUhgDoE7XhsiYr74/jNzROWhpOeJ/WRVs8wd1nlsYQkEIACBSAlgdEWKm2QQgAAEIIDRxTXwBwGMLq6DMAhgdIVBlZhhEcDoCosscSEAgbQTwOhK+xVA/RCAAARiIlC8uVgyvzzzeRmnfvGqjOs3OndkVKpQWY5PP/Q8GY/bt72MBeUKZEz7H1u3Zn/GmZpXo5tTrnn3OnWs1qtRzeca813X48lLJcSa9b/lCmXFfJVK1UTniDPvkzHXnYb5ctFVdEGB3r8nKp4a89WZ73q1To1lxVfr1KjWL1zxrXw56IXeasqKsdkuB4rOnh2cZ9dZIRqRgQmMnDxMYsxa+EngWFEG4A7WKGmTCwIQ8EMAo8sPNfZAAAIQgEBgAhhdwRDmMk7UvBrdWXLNu9epY7VejWo+15jvOoyuXAT1zLsNoKBRVTw15hsv3/VqnRrLiq/WqVGtx+hSJBhtIIDRZUOX0AgBCNhIAKPLxq6hGQIQgEACCLgNkTXrV0tV369YKONudXeXsWrmjpktW7bIsfrDvV8dq1Gtc4/qvBrVefexmi8rr1qn9qvRPa+O3aM7vvu8O577fFjHYeVdu3GtSO7/co+wpEcad/9Gh0i+cw7qFmnefJOF1cd88+e7TpfOWUudZx09/ckj+aY2Yl27Zh1FR4dmnWR08ygsLCyhUxl8alQncx27593x3Mfu9eXLly+hy71e5Wf0RuCuKbfJhpnffuhtY8yrr83cebh/5k7EmOWQHgIQgMA2BDC6tkHCBAQgAAEIREHA/Q85jK7s1N2csq/SPxtWXowu/b0qLWJYfSwtp59zunRidJX8lVVlWKlR9cZtVLmP3esxuhQ5vSNGl16eRIMABCCgCGB0KRKMEIAABCwhoP5B6B6V/Fzz7juH3OvUca44ZZ1X+9Tozqfm3XHUvK4x7Php0RkWx4Urnbcs3jPNuZNBF8+44nQ9tLukbrpj87gklJo3rD6WmtTHSV063/jqNcn+1peTfKiIb8v5h14hyfeu1zirCF18sgbXMOk2xpRxpubVqFKp8+pYnc81qvVez6t97jzKuHPPq+OoRluNrj4n3yKIGu/UNCpU5IEABCDgiQBGlydcLIYABCAQPwH1Dx73qJTlmncbT+516jhXnLLOq31qdOdT8+44al7XGHb8tOgMiyNGl64rKL84YfUxv+z5r9KlE6Mrf+Y6VyoDSsVUBpOaV6P7vDpW53ONueKp9bnOq3l3HowuRcTfiNHljxu7IACB6AhgdEXHmkwQgIAlBNQ/uNyjku+e93us4rkNoVzx1Pq4RqUrrvz55kVnvqTyW6eb50cL35fEz336WH4CDF2l3go64MQRorBCYUUjleruX1hF6tL59GfjReKsxR+HJVVzXOdXDfudMFziVq3ovMXTnUQXH3dc3ce26MxVt9sYU8e5DDW/59W++98eJVI+X/hRLklGzvc71ble/1pvLyP1IQoCEIAARhfXAAQgAAEXAfVB3T2qZe55v8cqHkaXIqFnVP3QEy28KGnVidEV3jWVLXLarjOMrmxXQXRztlxvuYgoA0qdV8cYXYqIM2J0leTBEQQgYB4BjC7zeoIiCEAgQ8BtAJV1rD5glzUqwLniqf1qXVRjXHnzrc90faoOdCoSekbdPJ+b+YQI++jbd/UIjClKs4YtJPN5B18Uk4L80uruX35Zva/SpfOe6bdL8iWrvvMuIoYdtarXlazXtxlQanZdfEpNouGkLTo1lKolxITPHpU4Rcs+1xIvqiBDznTuRGtYe5eoUpIHAhCAgCcCGF2ecLEYAhCIkkAuI0ppcJ9XH7DLGnPtV/HUfrUuqjGuvPnWZ7o+VQc6FQk9o26eGF16+pJvFN39yzev13W6dGJ0eSWvd72uPupVZW40jC5ze4MyCEDAbgIYXXb3D/UQiIWAMoRU8lzHuebVPvWBWK1Tx2pU64KOuuMF1ZNrv+k6TdenuKJTkdAz6uY5ZPJNImzV2hV6BMYU5byWl0rmZjvtH5MCb2l199Fb9rJX69I36LXekuz3jWvKTmrAin0aNBMV3Q5xrqdcknTxyRVf17wtOnXVGzTOhE8fkRBFP8wKGirS/TeeMFTy1a2xg4zuX+1UD/tXv/qpjtW6XMeRFkEyCEAg0QQwuhLdXoqDQDgElDGlouc6zjWv9qkPxGqdOlajWhd01B0vqJ5c+03Xabo+xRWdioSeUTdPjC49ffEaRXcfveYva70ufRhdZZEO97yuPoar0pzoGF3OyxiU8WVOZ1ACAQjYTgCjy/YOoh8CWQioD5pqVEaSWuqeV+fVvBrd82q/31HF9bvf77648nrVi06vxLKvh2N2Ln5ndfH8+feVImHoazf6lWLEviqZt+L1P/E20VO+oLwRusoSoauPZeXxez6ovvWb1knqAa/29Cshln2t9moreds36ZhX/qCc8koSYJHp+gKUFspWW42u/ic4b5utVL6yFi7qTi/3HWDKAMt33r1OxdUikiAQgIBVBDC6rGoXYiGQHwH1QVONyrBSu93z6ryaV6N7Xu33O6q4fvf73RdXXq960emVWPb1cMzOxe+sLp4YXX47oGefrj7qUbNtlKD6MLq2ZRrHTNA+xqE5zpwYXQ59ZUi5jSqMrjivTnJDwG4CGF129w/1CSOgPiC6DSavxyqOaXji0hVXXq/80emVWPb1cMzOxe+sLp7vfTNdJEz8/Em/UozYd8juR4qO0w7sLKMuPmEXZ7rOoPoWrVooCO+b7txpEjZPXfFPb9FVQh3Y8KC8QgbllFeSAItM1xegtFC2PvXZOIk7d9nMUOLrDlqxfCUJOeAE5+2muuPrjqcMtAoVKkjoXEaaMtTUOnWsRrVPtz7iQQAC4RHA6AqPLZEh4JmA+oDo1dhyr1dxPAsIeUNcuuLK6xUnOr0Sy74ejtm5+J3VxROjy28H9OzT1Uc9araNElQfRte2TOOYCdrHODTHmROjK1z6GF3h8iU6BEwmgNFlcnfQZh0B9QHPbTypY/foXu+3YBXH7/6o9sWlM668Xrmi0yux7OvhmJ2L31ldPB/54D6RULRstl8pRuy74ujrRcdudfaQURefsIszXWdQfTOXfCwIn/10fNgotca/+pgbJN6O2+2cV9ygnPJKEmCR6foClBbK1mc/f0Lizs5cv6Ek0Rh0+2q1Jdr1xw7QGNX8UOqOLnWHl3tUd4KpUZ2vWLGiFKcMN/MrRSEEkkMAoys5vaQSAwioD3jK0HIfq3k1us/7LUHF8bs/qn1x6Ywrr1eu6PRKLPt6OGbn4ndWF0+MLr8d0LNPVx/1qNk2SlB9GF3bMo1jJmgf49AcZ06Mrjjp558boyt/VqyEgCkEMLpM6QQ6jCSgDKl8x7g+4MWV12vT4tIZV15b+CRNJ/322tHS1wflWby5WBL0e7mHjMWbN5ae0NCztWvsIMr6tBskY0G5AhmD8omqXNN1BtU37eupgnLKvJeiQhooT2Gh87bOgR3ukDgVCp1nCJUVNCinsuIHPW+6vqD16d4/8YtnJOQn37+vO3Qo8RrW2l3idj/i2lDiJzWo+04vdazu+FLH7jGpPKgLAlEQwOiKgjI5rCWQr8Gl1sX1AS+uvF4bG5fOuPLawidpOum3146Wvj4oT4yu0vlGdTZoH8PWGVQfRlfYHcovftA+5pclOaswupLTy9IqUQaW+pVGdYzRVRo1zkEgGAGMrmD82G0pAWVMbd68WSpQo3velvJs+WAZl8648nq9ftDplVj29XDMzsXvbFCec5fNktTjPrjfrwQj9rVpcqLoaNfYGZWooHxUnLBH03UG1Tfxi+cE4YffvhM2Si3x69asL3Gua93XU7ygnDwl87HYdH0+Sgp1y6R5L0r8D76dFmoeXcGb7HSAhOrc4nxdIYmThYB6ppfbEKtUyXnrpTLI1LFanyUUUxBILQGMrtS2Pt2Fuw0tjK5oroe4PgDHldcrVXR6JZZ9PRyzc/E7G5QnRpdf8nr3Be2jXjXbRguqD6NrW6ZxzATtYxya48yJ0RUnfXNzK+MKo8vcHqHMfAIYXeb3CIUeCKgPWMq4yjV6CGnFUlW36WLj0hlXXq/9QKdXYtnXwzE7F7+zQXk++ck4ST3z+3/7lRDzPudZXH2Ov0V01Klet4SeoHxKBAvxIOk6H/94rNCbt+zzECnqC914x/0kWJeDL/YU1PQ+mq7PE+wIFk+dP0myTP96SgTZgqc4fI/WEuSEpqcED0YEbQTUnV1qrFKlisSuXLmyjMo405aQQBCwgABGlwVNQmL+BNQHrFwGl5rPP6IdK1XdpquNS2dceb32A51eiWVfD8fsXPzOBuWJ0eWXvN59QfuoV03uaH51YnTlZhrlGb/9i1KjSbkwukzqhr1alMGlRowue3uJcn0EMLr0sSRShATUrx4WFztv81IGlhojlGJEKls+WMalM668Xi8OdHolVvp603mark/R9atzy9YtEqL/Kz1lXLdxrQpp1bhLnT1E71VHX59Vt18+WYOFOJl0nfe9e6fQW7TymxAp6gvdJvOst2P3Pt5T0KT30ROMBCye8c3bUsWUoolWVHNis9NE56G7tbJCb9pFqju53AaYMsLUs77Szon6k0kAoyuZfU18VRhdJVvMB9+SPNxH8HETCXYMz2D81O6kc8ToUp02Y0z69YbRZcZ1plTYcr0pvXGNGF1xkU9HXoyudPSZKrMTwOjKzoVZwwioO7fUmNY7t3K1xZYPlHHpjCtvrn7lmkdnLjL+5k3nabo+Rd2vzv8sXyAhHph+hwpl5Xhai/NE9yG7HZ5Vv18+WYOFOJl0ncPf6C/0Vq1dESJFfaG7tOwuwRrXb+opaNL76AlGAhYX/ThHqpjwyRgrqul8kPNMuSYNmlmhF5GlE1DP8KpRo4YsrFq1aukbOAsBiwhgdFnUrDRLVQaXGjG6Sl4NfPAtycN9BB83kWDH8AzGT+1OOkeMLtVpM8akX28YXWZcZ0qFLdeb0hvXiNEVF3ny/kEAo4vrIMkEMLqS3F2La1MfkNatWydVYGyV3kzFq/RV8Z+NW2fc+cvqgOn6lH50KhLBxqRzfHHWMwLo/f84z6AJRiv63VUrVZek/TrcKmOFwopZRSS9j1mLDnHSL8++r1wrqoo3bwxRnY7Qzls8bzx+qASrWbmmp6B++XhKomGxLTo1lBooxE9rfpT9d01zrodAwSLYfNXRfSRLg5o7RZCNFFETUM/uqlOnjqRWv/oYtQ7yQUAHAYwuHRSJoZ2A+oCE0ZUfWsUrv9XxrYpbZ9z5yyJvuj6lH52KRLAx6RwxuoJdH7p3J/16w+jSfcUEi2fL9RasyuC7MbqCMySCPgIYXfpYEil+Av8HAAD//1MqNQwAAEAASURBVOzdd6BUxfn/calSVASsoKhowBKiotGgkqCxo7H3LhLEgmInNiwoNmygWGiKXbHX+DWJxh5NiGIXC2IL2LDQ+fl7Lh/1Hnb3nj115uybP5h7ysw885q9d3efnT2n0YIf/y3GPwQcE5g1a5ZFNHv2bMciczMcX36N844z7/4bevS4Hp/iJ05JxCuL7njeI6cb0Bfffh4PKqfavbpuaz33/vXOFSMo+jxWHHwKB6v1nDV3pkVx5gPHpxBN8k12bLuKNXrU70+M1Hi1PpE6SaCSL3EmMNRYTcxbMM/qn/XQSVbOmz8nVntpVz5juwuti8Wbtki7K9rPUWCppZay3lXmGApdIxBZoNGPT0QkuiLzUTEtARJd1cn68mucd5x599/QrLoen+InTknEK4vuSKIr3uMj6dpFfbyR6Er6kZJMe7483pIZbfRWSHRFt6NmegJKcKlMrydaRiA9ARJd6dnScgyBOXPqPtGaObPuk9oYTdVEVV9eUOYdZ979N/RgdD0+xU+ckohXFtXxm5lfG8zZD9StUIinlH3txo2aWKenbHuOlW1btasYRFHnseKgUzxYref3c763aM5+MNoKqRSHUr/pRo1s++DfHWFl1+XWqn885Fa1PiGbTfw0X+JMfOARG7zxxeut5huf/jdiC+lWa9GslXVw+rZD0+2I1p0QaNeu7nmvVau6eXciKIJAoEoBEl1VgnF6NgIkuqpz9uUFZd5x5t1/Q7PqenyKnzglEa8sqiOJrniPi7RqF/XxRqIrrUdMvHZ9ebzFG2VytUl0JWdJS/EFSHTFN6SF/AVIdOU/B0RQQUAJL32VkRdOpbF8cck7zrz7Lz17P+91PT5FSpySiFcW1fGVj/9jMOOeuToeUE61N1x1E+t5rw0ODBVBUecx1OBTOKlaz5lzfrAoBv+0osuRK3IsXMG1cttVLb7Nu9Rd822t5deJpVatT6zOYlT2Jc4YQ0y06sdff2TtXf3UJVbOX3jtrkQ7idHYCm06Wu2jf39yjFao6qpAkyZ1K5nbtGljIbKSy9WZIq5qBEh0VaPFuZkLkOgKR+7LC8q848y7/4Zm0/X4FD9xSiJeWVRHEl3xHhdp1S7q441EV1qPmHjt+vJ4izfK5GqT6ErOkpaqFyDRVb0ZNdwXINHl/hwR4Y8CesGkxJfK+fPn4/MLH9cxNI95xZl3/w2N2/X4FD9xSiKZ0nXPauN76p0nDObe/9yWDFBGrTRp3NR6OnGbwVa2b7VMqJ6r9QnVaAonFT3Oh1+739Te+d/rVn79w1dWzplXd/fm2XPr7ua8YEHl1w16HDRt0szqt1x4bSJtL950cdvfuvkSVi7Vom4FxNILr+W23BIr2P5V23e2csnF6+5eZhsJ/Ff0eUyAyOsmXv/sVYv/7om3WPndrBlOjKfr8r+2OA7c6M9OxEMQ8QSaNav7+7bEEnV/x7SCq9HClajxWqc2Am4IkOhyYx6IogEBvbBTgkslia46OPk0wJj74bzjzLv/hibA9fgUP3FKIpnSdc9q4yPRlczjIulWqp3HpPsP217UOEl0hRXO5ryo85hNdO72QqLL3bkpUmQkuoo0m4ylnACJrnIy7PdCQImuefPmWbxz586tV3oxiASDdP2FZd7x5d1/Q1PtenyKnzglkUzpume18T373lMGc9dL45MByqiVP3TZ2nraoduukXqs1ilSJzEquR6fhpZ1nFrx1bRx3QqHsCsaso4zLx/1W22Zl0+1cbp6/tz5da9n3532loU49aspVs6aW3c38pkLy+AKxcaNGtt5izdtYWUjbTer2262cKWiHu8tm7W085ouXNHarEnzuvpN6lYuNm288NpNC1csLrFwJaOdxH/OCujv2OKL181jixZ189+yZd1866uKzg6AwBBIQIBEVwKINJGfAImu+vauv7DMO768+68/W4tuuR6fIiZOSSRTuu5ZbXwkupJ5XCTdSrXzmHT/YdvLOk4SXWFnprrzsp7H6qJz/2wSXe7PkcsRkuhyeXaILSsBEl1ZSdNPLgJa6RUsgwkyPSHkEmSCnbr+wjLv+PLuP+xUux6n6/HJmTglEa+s1nHGrG+sw0v+eq6V3878Ol4AKddeunV76+Gkrc60Uisaqu22Wqdq2497vuvxaXzEKYnSJT6lXdiLQC0JNG1ad03J5s3rVuDpq4hawaX9tWTCWBEICpDoCoqwXSiBYIJL2yS68pnmvF+g591/WHXX43Q9PjkTpyTildU6kuiK551W7WrnMa04GmqXOCsL4VPZh6MI1IIAia5amGXGGFeARFdcQep7LaAXjMHEl7ZVKkHm+mA1HlfjzDu+vPsPOy+ux+l6fHImTknEK6M6zlh4t7D/e+MRC+DVqf+28tuF++cuvBtevOii19Zd9Ppudow10nmZNaI39mPNqE6xOq2isuvxaSjEKYnSJT6lXdiLgM8CjRvXXVtNCSyVWpmlFVsqdb7PYyZ2BNIWINGVtjDtOy2gF4zBhJa2VZLoSmYa5Z1Ma9W3knf/YSN2PU7X45MzcUoiXhnVkURXPPeka0edx6TjaKg94qwshE9lH44i4KOAEldKcKkk0eXjbBKzKwIkulyZCeLwSiCYANN2uTKrwbn+Ajjv+PLuP+zjwPU4XY9PzsQpiXhl0o66yLLuIvbx1x9ZgP/75jMrP/+2rvx24bW+vvnhK9v/7cwZVs5fUHeXXduo4r/mTevuPrXaMr+yWtustYOVK7dbtYpWyp+atFP5nqIdcT0+jYo4JVG6xKe0C3sRcElAiSqVusuhVmSp1H6VRblmsEtzQSy1K0Ciq3bnnpHHEFBCSyu9tF2ujNFVVVVdfwGcd3x59x92Ml2P0/X45EyckohXJu1IoivefEStnfQ8Ro2joXrEWVkIn8o+HEXABQEluFQqkaUEl0rtV0miy4XZI4aiCJDoKspMMg6nBYIJML1Q1f6GtsMOTu2EPT/r8/KOL+/+w3q7Hqfr8cmZOCURr8zbMdi/EmWz586ygf0w94e6AS6oK5o0bmI/NG9SdzcqvXFo2axV3Qkp/R+MM6VuIjfrenwaGHFKonSJT2kX9iKQhICeL4IJKiWiyu0PHk8iFtpAAIF4AiS64vlRG4FQAkpoqdQL1bDboTr58SS1G/b8rM/LO768+w/r7XqcrscnZ+KURLwyb8dg/yS6os1n0DFaK+nXIs7KxvhU9uEoAnEESHTF0aMuAm4JkOhyaz6IBoGKAvqqpF7oBhNlDe3XcZUVO0vhYF79aih59684Gipdj9P1+ORLnJJIpszLM69+q1VzPU7X45M3cUqidIlPaRf21qaAElNaUaWLuqvU/rCl6tWmJqNGoFgCJLqKNZ+MpuACJLriTTBvEOL5qTaOkkimxLOyIz6VfcIexTGsVLjz8vLMq99wKj+f5UucP0fMTz4KkOjycdaIGYFsBEh0ZeNMLwg4JaAXoMEyuEIsuF3ufA1Ox7Vdrgx7Xrn6Uffn1W+18boep+vxyZs4JZFMmZdnXv1Wq0ac1YqVPh/H0i7ai48kKH0S0EqpYKmVVuUSVjoeLIPt+GRBrAggkI0Aia5snOkFAacE9EI5WAYTW8HtcudrcDqu7XJl2PPK1Y+6P69+q43X9Thdj0/exCmJZMq8PPPqt1o14qxWrPT5OJZ20V58JEHpk0AwMaVtJbBIdPk0m8SKgB8CJLr8mCeiRMArgYYSZHqhXq4M1tfgy+3X8YZK9dfQeXkfJ85kZgDHZBzVSl6eefWrcYctiTOsVOXzcKzso6OuO7kenxxrtVRiSWUw4aREVEOl6pU7T8dr1ZlxI4BAfgIkuvKzp2cECisQTEjpBW/YMlhfUOX263hDpfpv6Ly8jxNnMjOAYzKOaiUvz7z61bjDlsQZVqryeThW9tFR151cj0+OtVoqwaVSCSltl0tcBferXnC/tnW8Vp0ZNwII5CdAois/e3pGAIGEBMolwPRCu9zx4H6dr1LhaTtYBo9rO26pfuK2k3Z91+N0PT7ND3FKonSJT2mXqHtd93Q9PrnnHWfe/cuhXOl6fOXiTnu/EknBUomhcvuDx5VA0vk6HizLHdf+tMdL+wgggEBeAiS68pKnXwQQSEwgmLBSw3qhXe54cL/OVxlsR/tVBo9rO24ZbD9ue2nVdz1O1+PTvBCnJEqX+JR2ibrXdU/X45N73nHm3b8cypWux1cu7rT3K8EULJWgKrc/eJxEV9ozRfsIIOC7AIku32eQ+BFAIHcBvaBXqYC0rVL7gwk27dd5Oh7cH9zWeXphrPrlStVPqlQ/SbWXdDuux6fxEqckSpf4lHaJutd1T9fjk3vecebdvxzKlXnFp4SQ4tK2yuB+PX82VKq+Sp1fblv7y/Wn/ZQIIIAAAukIkOhKx5VWEUCghgT0gl6lhq5tldqvBFVwv7Z1XOdrf3Bb5+kFt84rV6p+UqX6Saq9pNtxPT6NlzglUbrEp7RL1L2ue7oen9zzjjPv/uVQrswrvnIJpnL79fzZUKn6KnV+uW3tl4+2VU/7KRFAAAEE0hEg0ZWOK60igAACzgroDUiwVMBh9+s81VOpBJy2g+eV29Z+leXqq329YQieX66e9rtWloufOOsE8En2keC6p+vxaTbyjjNq//q7Wa7U+ModD+7X+eUSOdqv84L1G9ouV19f3Qu2q21KBBBAAIHaFiDRVdvzz+gRQKAGBfQGKViKIux+nad6KpWI0nbwvHLb2q+yXH21rzdIwfPL1dN+18py8RNnnQA+yT4SXPd0PT7NRt5xRu1ffzfLlRpfuePB/TpfCSkdD+7Xto6HLdVusD6JLolQIoAAAgiUEiDRVUqFfQgggAAC3goE3wAGtzWwcgmz4PnltoP71W5wv7ZV6jyV5fYHjwfP0xtFjUPnB8tyx4PtBesFt8u1EzxP29W2r3rBMql2gu0mvU2c9UX1+Ky/t/yWzldZ/sy6I+XO036VwXbK7dd5wcSK9qssV1/7VTZ0vvpp6HwdV6l2VV/bKoP7g/V0HiUCCCCAAAJFFiDRVeTZZWwIIIBADQoEEw7BbZEocaM3gjpPpc4rtx3cn9T5akel+lGp/Ypb49D+YFnueLC9YL3gdrl2gudpu9r2VS9YJtVOsN2kt4mzvqgen/X3lt/S+SrLn1l3pNx52q8y2E65/TovmCjSfpXl6mu/yobOVz8Nna/jKtWu6mtbZXB/sJ7Oo0QAAQQQQKDIAiS6ijy7jA0BBBBAAAFPBJJOFKk9lZ4wxA5TiQ2VsRtc2EDS7SUVF+0ggAACCCCAAAJBARJdQRG2EUAAAQQQQCBzgaQTUmpPZeYDyqlDJaRUJhVG0u0lFRftIIAAAggggAACQQESXUERthFAAAEEEEAAAQQQQAABBBBAAAEEvBQg0eXltBE0AggggAACCCCAAAIIIIAAAggggEBQgERXUIRtBBBAAAEEEEAAAQQQQAABBBBAAAEvBUh0eTltBI0AAggggAACCCCAAAIIIIAAAgggEBQg0RUUYRsBBBBAAAEEEEAAAQQQQAABBBBAwEsBEl1eThtBI4AAAggggAACCCCAAAIIIIAAAggEBUh0BUXYRgABBBBAAAEEEEAAAQQQQAABBBDwUoBEl5fTRtAIIIAAAggggAACCCCAAAIIIIAAAkEBEl1BEbYRQAABBBBAAAEEEEAAAQQQQAABBLwUINHl5bQRNAIIIIAAAggggAACCCCAAAIIIIBAUIBEV1CEbQQQQAABBBBAAAEEEEAAAQQQQAABLwVIdHk5bQSNAAIIIIAAAggggAACCCCAAAIIIBAUINEVFGEbAQQQQAABBBBAAAEEEEAAAQQQQMBLARJdXk4bQSOAAAIIIIAAAggggAACCCCAAAIIBAVIdAVF2EYAAQQQQAABBBBAAAEEEEAAAQQQ8FKARJeX00bQCCCAAAIIIIAAAggggAACCCCAAAJBARJdQRG2EUAAAQQQQAABBBBAAAEEEEAAAQS8FCDR5eW0ETQCCCCAAAIIIIAAAggggAACCCCAQFCARFdQhG0EEEAAAQQQQAABBBBAAAEEEEAAAS8FSHR5OW0EjQACCCCAAAIIIIAAAggggAACCCAQFCDRFRRhGwEEEEAAAQQQQAABBBBAAAEEEEDASwESXV5OG0EjgAACCCCAAAIIIIAAAggggAACCAQFSHQFRdhGAAEEEEAAAQQQQAABBBBAAAEEEPBSgESXl9NG0AgggAACCCCAAAIIIIAAAggggAACQQESXUERthFAAAEEEEAAAQQQQAABBBBAAAEEvBQg0eXltBE0AggggAACCCCAAAIIIIAAAggggEBQgERXUIRtBBBAAAEEEEAAAQQQQAABBBBAAAEvBUh0eTltBI0AAggggAACCCCAAAIIIIAAAgggEBQg0RUUYRsBBBBAAAEEEEAAAQQQQAABBBBAwEsBEl1eThtBI4AAAggggAACCCCAAAIIIIAAAggEBUh0BUXYRgABBBBAAAEEEEAAAQQQQAABBBDwUoBEl5fTRtAIIIAAAggggAACCCCAAAIIIIAAAkEBEl1BEbYRQAABBBBAAAEEEEAAAQQQQAABBLwUINHl5bQRNAIIIIAAAggggAACCCCAAAIIIIBAUIBEV1CEbQQQQAABBBBAAAEEEEAAAQQQQAABLwVIdHk5bQSNAAIIIIAAAggggAACCCCAAAIIIBAUINEVFGEbAQQQQAABBBBAAAEEEEAAAQQQQMBLARJdXk4bQSOAAAIIIIAAAggggAACCCCAAAIIBAVIdAVF2EYAAQQQQAABBBBAAAEEEEAAAQQQ8FKARJeX00bQCCCAAAIIIIAAAggggAACCCCAAAJBARJdQRG2EUAAAQQQQAABBBBAAAEEEEAAAQS8FCDR5eW0ETQCCCCAAAIIIIAAAggggAACCCCAQFCARFdQhG0EEEAAAQQQQAABBBBAAAEEEEAAAS8FSHR5OW0EjQACCCCAAAIIIIAAAggggAACCCAQFCDRFRRhGwEEEEAAAQQQQAABBBBAAAEEEEDASwESXV5OG0EjgAACCCCAAAIIIIAAAggggAACCAQFSHQFRdhGAAEEEEAAAQQQQAABBBBAAAEEEPBSgESXl9NG0AgggAACCCCAAAIIIIAAAggggAACQQESXUERthFAAAEEEEAAAQQQQAABBBBAAAEEvBQg0eXltBE0AggggAACCCCAAAIIIIAAAggggEBQgERXUIRtBBBAAAEEEEAAAQQQQAABBBBAAAEvBUh0eTltBI0AAggggAACCCCAAAIIIIAAAgggEBQg0RUUYRsBBBBAAAEEEEAAAQQQQAABBBBAwEsBEl1eThtBI4AAAggggAACCCCAAAIIIIAAAggEBUh0BUXYRgABBBBAAAEEEEAAAQQQQAABBBDwUoBEl5fTRtAIIIAAAggggAACCCCAAAIIIIAAAkEBEl1BEbYRQAABBBBAAAEEEEAAAQQQQAABBLwUINHl5bQRNAIIIIAAAggggAACCCCAAAIIIIBAUIBEV1CEbQQQQAABBBBAAAEEEEAAAQQQQAABLwVIdHk5bQSNAAIIIIAAAggggAACCCCAAAIIIBAUINEVFGEbAQQQQAABBBBAAAEEEEAAAQQQQMBLARJdXk4bQSOAAAIIIIAAAggggAACCCCAAAIIBAVIdAVF2EYAAQQQQAABBBBAAAEEEEAAAQQQ8FKARJeX00bQCCCAAAIIIIAAAggggAACCCCAAAJBARJdQRG2EUAAAQQQQAABBBBAAAEEEEAAAQS8FCDR5eW0ETQCCCCAAAIIIIAAAggggAACCCCAQFCARFdQhG0EEEAAAQQQQAABBBBAAAEEEEAAAS8FSHR5OW0EjQACCCCAAAIIIIAAAggggAACCCAQFCDRFRRhGwEEEEAAAQQQQAABBBBAAAEEEEDASwESXV5OG0EjgAACCCCAAAIIIIAAAggggAACCAQFSHQFRdhGAAEEEEAAAQQQQAABBBBAAAEEEPBSgESXl9NG0AgggAACCCCAAAIIIIAAAggggAACQQESXUERthFAAAEEEEAAAQQQQAABBBBAAAEEvBQg0eXltBE0AggggAACCCCAAAIIIIAAAggggEBQgERXUIRtBBBAAAEEEEAAAQQQQAABBBBAAAEvBUh0eTltBI0AAggggAACCCCAAAIIIIAAAgggEBQg0RUUYRsBBBBAAAEEEEAAAQQQQAABBBBAwEsBEl1eThtBI4AAAggggAACCCCAAAIIIIAAAggEBUh0BUXYRgABBBBAAAEEEEAAAQQQQAABBBDwUoBEl5fTRtAIIIAAAggggAACCCCAAAIIIIAAAkEBEl1BEbYRQAABBBBAAAEEEEAAAQQQQAABBLwUINHl5bQRNAIIIIAAAggggAACCCCAAAIIIIBAUIBEV1CEbQQQQAABBBBAAAEEEEAAAQQQQAABLwVIdHk5bQSNAAIIIIAAAggggAACCCCAAAIIIBAUINEVFGEbAQQQQAABBBBAAAEEEEAAAQQQQMBLARJdXk4bQSOAAAIIIIAAAggggAACCCCAAAIIBAVIdAVF2EYAAQQQQAABBBBAAAEEEEAAAQQQ8FKARJeX00bQCCCAAAIIIIAAAggggAACCCCAAAJBARJdQRG2EUAAAQQQQAABBBBAAAEEEEAAAQS8FCDR5eW0ETQCCCCAAAIIIIAAAggggAACCCCAQFCARFdQhG0EEEAAAQQQQAABBBBAAAEEEEAAAS8FSHR5OW0EjQACCCCAAAIIIIAAAggggAACCCAQFCDRFRRhGwEEEEAAAQQQQAABBBBAAAEEEEDASwESXV5OG0EjgAACCCCAAAIIIIAAAggggAACCAQFSHQFRdhGAAEEEEAAAQQQQAABBBBAAAEEEPBSgESXl9NG0AgggAACCCCAAAIIIIAAAggggAACQQESXUERthFAAAEEEEAAAQQQQAABBBBAAAEEvBQg0eXltBE0AggggAACCCCAAAIIIIAAAggggEBQgERXUIRtBBBAAAEEEEAAAQQQQAABBBBAAAEvBUh0eTltBI0AAggggAACCCCAAAIIIIAAAgggEBQg0RUUYRsBBBBAAAEEEEAAAQQQQAABBBBAwEsBEl1eThtBI4AAAggggAACCCCAAAIIIIAAAggEBUh0BUVy3p43b55F8PHHH1v52WefWfn555+XLKdPn27758yZY+X3339v5dy5c+ttz58/37YbN25spf5r3bq1/dioUSMrF198cSuXWGIJK9u2bVuybNeune3v0KGDlZ06dbKyVatWVvIfAggggAACCCCAAAIIIIAAAgggkLUAia6sxRvoj0RXA0AcRgABBBBAAAEEEEAAAQQQQAABBMoIkOgqA5PWbq3QevPNN62Lt956y8q3337bynfffdfK2bNnW+nbf8suu6yFrBVenTt3tu1u3bpZufbaa1vZvHlzK/kPAQQQQAABBBBAAAEEEEAAAQQQSEqARFdSkiHbIdFFoivkQ4XTEEAAAQQQQAABBBBAAAEEEECgSgESXVWCNXT6ggUL7BSt2Hr++edtW+VHH33UUBOFPt6sWTMb35prrmnluuuua+Wmm25qZceOHa3kPwQQQAABBBBAAAEEEEAAAQQQQKBaARJd1Yo1cD6JrspAJLoq+3AUAQQQQAABBBBAAAEEEEAAAQSiC5Doim5nNT/44AMrH3nkESv/+c9/Wvn1119byX/VCfzqV7+yCr169bKyZ8+eVi699NJW8h8CCCCAAAIIIIAAAggggAACCCBQToBEVzmZkPtJdIWECnkaia6QUJyGAAIIIIAAAggggAACCCCAAAKLCJDoWoSk9I45c+bYgaefftrKhx9+2MrXX3+9dAX2JiLQpEkTa0cru3bbbTfbXmWVVRJpn0YQQAABBBBAAAEEEEAAAQQQQKA4AiS6Qs4lia6QUAmfRqIrYVCaQwABBBBAAAEEEEAAAQQQQKDAAiS6ykzu3Llz7YhWbt1xxx22/dVXX5Wpwe4sBBo1amTd/Pa3v7Vyjz32sLJr165ZdE8fCCCAAAIIIIAAAggggAACCCDgsACJrjKTQ6KrDEzOu0l05TwBdI8AAggggAACCCCAAAIIIICAwwIkuhZOzoIFC+ynZ555xspx48ZZ+emnny48g8JlAa3wOvzwwy3MZZdd1uVwiQ0BBBBAAAEEEEAAAQQQQAABBFIQING1EJVEVwqPrgybJNGVITZdIYAAAggggAACCCCAAAIIIOCoQM0nut566y2bmiuvvNLKDz74wNGpIqwwAi1atLDT9t57byv/9Kc/Wdm0adMw1TkHAQQQQAABBBBAAAEEEEAAAQQ8FiDRRaLL44fvoqGT6FrUhD0IIIAAAggggAACCCCAAAII1IpAzSW6Zs+ebXN78803W3nPPfdYOX/+/FqZ85oa5yqrrGLjPemkk6xceeWVa2r8DBYBBBBAAAEEEEAAAQQQQACBWhIg0UWiq9CPdxJdhZ5eBocAAggggAACCCCAAAIIIIBAPYGaSXTpWlyXXnqpAUydOrUeBBvFFlh88cVtgIcddpiV22yzjdcD/vbbby3+YKlrka266qpej4/gEUAAAQQQQAABBBBAAAEEEIgiQKIrihp1vBMg0eXdlBEwAggggAACCCCAAAIIIIAAAlULFD7R9cQTTxjKiBEjrJwzZ07VSFQonsBmm21mg9LKrpYtW9q2EmIqW7dubfsbNWpUEeG7776z48EVVsFtnTdjxoyK5+u8YH1tlwtm8803t0MDBw4sdwr7EUAAAQQQQAABBBBAAAEEECisAImuwk4tA6skQKKrkg7HEEAAAQQQQAABBBBAAAEEEPBToHCJLt09cezYsTYjuquin9ND1AhUJ7Djjjtahb59+1ZXkbMRQACBggosWLDARqaVsq1atbLtxo0bF3TEDAsBBBBAAAEEEKhtARJdtT3/jL5gAiS6CjahDAcBBGILkOiKTUgDCCCAAAIIIICAVwKFSXTNnj3b4IcOHWrlv/71L68mImywumZU586drcpKK61kZZs2bazUtaWaNGli299//72VX375pZXvvfeele+//76VcrMN/vNeYN9997Ux7L333t6PhQEggAACYQS0kvvll1+205955hkrJ06caOUXX3xh5bx586zUSi49b3bt2tX2b7rpplZuvPHGVrZo0cJK/kMAAQQQQAABBBDwS4BEl1/ztRiJLs8mLONwSXRlDE53CCCQuwCJrtyngAAQQAABBBBAAAGnBLxPdGlF0jnnnGOw+gTXKeUIwSihteWWW1ptfdLcpUsX29Yn0hGatiqzZs2yUp+AP/7447atlXD6qkfU9qmXj0C/fv2s4969e+cTAL0igAACGQm89tpr1tO1115r5eTJkxPpuX379tZOnz59rNTNSxJpnEYQQAABBBBAAAEEUhcg0ZU6cbQOSHRFc6v1WiS6av0RwPgRqB0BEl21M9eMFAEEEEAAAQQQqEbA20SXVnKde+65Nt7//Oc/1YzbuXN1ba3dd9/dYttpp52szPoaIbp2lz4hf/XVV52zIqDyAscff7wd/MMf/lD+JI4ggAACHgvceeedFv2NN95oZdorkHv16mX9HHPMMVbqGpi2wX8IIIAAAggggAACzgmQ6HJkSkh0OTIRnodBosvzCSR8BBBoUIBEV4NEnIAAAggggAACCNS0gHeJLt01Sdfk0jWmfJ3F1Vdf3UI/5ZRTrFx++eWdGIo+Ib///vstnjFjxlgpfyeCJIhFBAYPHmz7unfvvsgxdiCAAAI+C+h56O67785lGBtttJH1e/LJJ1vZrFmzXOKgUwQQQAABBBBAAIHKAiS6KvukfpREV+rENdUBia6amm4Gi0BNCZDoqqnpZrAIIIAAAggggEBkAe8SXbp21AMPPBB50C5U7NGjh4Whr5o1b97chbDKxvDiiy/asQsvvNBK3bWxbAUO5CJw8cUXW7+6O2cuQdApAgggkKDAI488Yq1dddVVCbYavantt9/eKh9++OHRG6EmAggggAACCCCAQGoCJLpSo63cMImuyj4cjSZAoiuaG7UQQMBdARJd7s4NkSGAAAIIIIAAAi4KeJPoeuKJJ8zvsssuc9ExdEy6xoeuydW0adPQdV048YUXXrAwzjvvPCvnz5/vQljEsFDgmmuusZ9WXHFFTBBAAAGvBSZPnmzxn3TSSVbqbsuuDErX6tp0001dCYk4EEAAAQQQQAABBH4UINGV8cOARFfG4DXWHYmuGptwhotAgQVIdBV4chkaAggggAACCCCQooDzia63337bhj9o0CArXftEN+zcdOzY0U4dNmyYlS1btgxb1cnz7rvvPovr+uuvdzK+Wg3qpptusqEvueSStUrAuBFAoCACp59+uo1k4sSJTo6oXbt2FpeuHer6tTadRCQoBBBAAAEEEEAgBQESXSmglmqSRFcpFfYlLUCiK2lR2kMAgbwESHTlJU+/CCCAAAIIIICA3wLOJrq0cmvAgAEm/PHHH3sp3aRJE4tbK7lWW201L8cRDHrBggW268wzz7TyP//5T/AUtjMUaNSokfV2zz33WKntDEOgKwQQQCARgTfeeMPa0bW5Emk0xUb69etnrffu3TvFXmgaAQQQQAABBBBAIKwAia6wUhHPI9EVEY5qVQkosUWiqyo2TkYAAQcFSHQ5OCmEhAACCCCAAAIIeCTgbKLrhhtuMMY777zTI85FQ915551t56GHHrrowQLs+fzzz20URxxxhJVaiVeAoXk1BF2TS19d9Cp4gkUAAQR+IXDFFVfY1uOPP/6Lve7+2KFDBwtu5MiR7gZJZAgggAACCCCAQA0JkOhKebJJdKUMTPMmQKKLBwICCBRFgERXUWaScSCAAAIIIIAAAvkIOJfo0u3Ejz/+eBOZN29ePjIxe23durW1MGrUKCtbtWoVs0W3q48ZM8YCvPvuu90OtKDRrbjiijaya665pqAjZFgIIFArAloBPW3aNK+GrLsvrrDCCl7FTbAIIIAAAggggEDRBEh0pTSjJLpSgqXZkgIkukqysBMBBDwUINHl4aQRMgIIIIAAAggg4JCAM4ku3cVPK7neeecdh5iqD2X33Xe3SgceeGD1lT2sMWPGDItab1BmzZrl4Sj8DblLly4W/MUXX+zvIIgcAQRqWuCzzz6z8fft29dLB12rctttt/UyfoJGAAEEEEAAAQSKIkCiK6WZJNFFoiulh1bJZkl0lWRhJwIIeCRAosujySJUBBBAAAEEEEDAYQFnEl3PPPOMMQ0dOtRhroZDa9y4sZ00evRoK9u1a9dwpQKdMXz4cBvNY489VqBRuT+UDTbYwII888wz3Q+WCBFAAIESAq+//rrtPfnkk0scdX/XLrvsYkEecsgh7gdLhAgggAACCCCAQIEFSHQlPLkkukh0JfyQCtUcia5QTJyEAAIOC5DocnhyCA0BBBBAAAEEEPBIIPdEl67Ndcwxxxjb+++/7xHfoqGuv/76tvOss85a9GAN7NFdM4899tgaGO1ii22yySY2zkaNGln53XffWfn9999XLGfOnGnHk/qvV69e1tRxxx2XVJO0gwACCGQq8Nxzz1l/5513Xqb9JtXZFltsYU3VyvNfUm60gwACCCCAAAIIJC1AoithURJdk020Vl7ok+hK+BeI5hBAoGYFSHTV7NQzcAQQQAABBBBAIFGB3BNdzz77rA3o/PPPT3RgeTWmlWl//OMf8wrBiX779+9vcUydOtWJeNIKYvDgwdZ09+7dq+pi/vz5dr5Wfn377bf1tn/44QfbDq4QC+7X8c6dO9v5PXv2tJL/EEAAAd8Enn76aQv5ggsu8C10i7dHjx5WDho0yMv4CRoBBBBAAAEEECiKAImuhGeSRFcdKImuyg8sEl2VfTiKAAK1J0Ciq/bmnBEjgAACCCCAAAJpCOSe6Bo4cKCN6913301jfJm1qWs0jRkzxvqstbstBqHHjx9vu26//fbgoUJt6+5auttWoQbHYBBAAIEMBSZOnGi9nX766Rn2mlxXW2+9tTV21FFHJdcoLSGAAAIIIIAAAghULUCiq2qy0hVIdNV3IdFV34MtBBBAAIHKAiS6KvtwFAEEEEAAAQQQQCCcQG6JLq3g0oqucOG6e1anTp0suOHDh7sbZIaRvfHGG9bbSSedlGGv2Xela7HpK6vZR0CPCCCAQDEEfL9r7x577GETccABBxRjQhgFAggggAACCCDgqQCJroQmjkRXfUgSXfU92EIAAQQQqCxAoquyD0cRQAABBBBAAAEEwgnklui67rrrLML7778/XKSOn8W1OepP0Lx582zHPvvsY+XMmTPrn1CQrbXXXttGMnTo0IKMiGEggAAC+Qj4/rxx3HHHGVyvXr3yAaRXBBBAAAEEEEAAARMg0ZXQA4FEV31I39+w1B9N+S0SXeVtOIIAAghUI+D78waJrmpmm3MRQAABBBBAAIH0BDJPdM2dO9dGo7vVff311+mNLsOW+/fvb71tt912GfbqfldnnHGGBfmf//zH/WAjRLjMMstYrdGjR0eoTRUEEEAAgaDAWWedZbteeuml4CEnt3UzmrFjx1p8bdu2dTJOgkIAAQQQQAABBGpFgERXQjNNoqs0JImu0i7sRQABBBAoLUCiq7QLexFAAAEEEEAAAQTCCWSe6Hr++ectsiFDhoSL0JOzLrroIou0a9eunkScTZjjxo2zju66665sOsy4l8aNG9cbX5MmTTKOgO4QQACBYgk8+uijNqARI0Z4MbA11ljD4hw2bJgX8RIkAggggAACCCBQdAESXQnNMImu0pAkukq7sBcBBBBAoLQAia7SLuxFAAEEEEAAAQQQCCeQeaLr6quvtsgefvjhcBF6ctb48eMt0qWWWsqTiLMJ8+9//7t1VPRPum+55RYbZ+vWrbOBpRcEEECgoAJz5syxkfXt29fKL774wumRnnjiiRZfz549nY6T4BBAAAEEEEAAgVoRINGV0EyT6CoNSaKrtAt7EUAAAQRKC5DoKu3CXgQQQAABBBBAAIFwApknunTR9qlTp4aL0PGzWrRoYRHefvvtjkeaT3jvv/++dTxgwIB8Asio1zFjxlhP7du3z6hHukEAAQSKLXDvvffaAEeNGuXkQFdaaSWLa/jw4Vbqmo1OBktQCCCAAAIIIIBADQmQ6Io52SS6KgOS6Krsw1EEEEAAgdICJLpKu7AXAQQQQAABBBBAoLJAZomu6dOnWySHHHJI5Yg8O9qpUyeLWJ/oehZ+6uHOnDnT+thzzz1T7yvPDnTtuY4dO+YZBn0jgAAChRGYP3++jeXUU0+1ctKkSU6MrWnTphbH0KFDrezSpYsTcREEAggggAACCCCAQJ0Aia6YjwQSXZUBSXRV9uEoAggggEBpARJdpV3YiwACCCCAAAIIIFBZILNEV1EvSv7rX//ahM8777zK0jV+dL/99jOBGTNmFFLisssus3F17ty5kONjUAgggEBeAtOmTbOujz32WCu/+eabvEKxfvv06WPlTjvtlGscdI4AAggggAACCCBQWoBEV2mX0HtJdIWjItEVzomzEEAAAQTqC5Doqu/BFgIIIIAAAggggEBlgcwSXddee61F8sADD1SOyLOjPXr0sIgHDRrkWeTZhjtw4EDr8N13382244x6u+CCC6yntdZaK6Me6QYBBBCoLYEPPvjABnzGGWdY+eWXX2YC0KhRI+tn//33t3KPPfbIpF86QQABBBBAAAEEEIgmQKIrmttPtUh0/URR8QcSXRV5OIgAAggg0IAAia4GgDiMAAIIIIAAAgggYAKZJboGDx5sHb788suFot9yyy1tPAMGDCjUuJIeTFHnX05DhgyxH7t166ZdlAgggAACKQh88skn1uoll1xi5VtvvZVCL4st1qpVK2v3sMMOs1LP96l0RqMIIIAAAggggAACiQmQ6IpJqRe+JLoqQ5LoquzDUQQQQACBcAIkusI5cRYCCCCAAAIIIFCrApkluvr27WvGn332WaGst9tuOxtP//79CzWupAdz0UUXWZNPPfVU0k070d6FF15ocay55ppOxEMQCCCAQNEFFixYYEN8/PHHrbzzzjutVCKs2vE3b97cqmy22WZWHnTQQVa2bdu22qY4HwEEEEAAAQQQQCBHARJdMfFJdIUDJNEVzomzEEAAAQTCCZDoCufEWQgggAACCCCAQK0JpJ7omj17tpnqLkV6YVoU6B133NGGohVrRRlX0uMYOXKkNfnQQw8l3bQT7V122WUWR+fOnZ2IhyAQQACBWhWYPHmyDV3XBJ0+fbptT5s2zcqWLVtaqZVaq6++um1vuOGGVuraXLbBfwgggAACCCCAAALeCZDoijllJLrCAZLoCufEWQgggAAC8QRIdMXzozYCCCCAAAIIIOC7QOqJrilTppjRkUce6btVyfh32WUX23/IIYeUPM7OOoFx48bZD3fddVchSa666iob10orrVTI8TEoBBBAAAEEEEAAAQQQQAABBHwQINEVc5ZIdIUDJNEVzomzEEAAAQQQQAABBBBAAAEEEEAgukDqia5JkyZZdIMGDYoepcM1d9ppJ4uuT58+DkeZf2g33XSTBXHbbbflH0wKEVx//fXW6nLLLZdC6zSJAAIIIIAAAggggAACCCCAAAJhBEh0hVGqcA6Jrgo4vzhEousXGPyIAAIIIIAAAggggAACCCCAAAKpCKSe6PrXv/5lgZ999tmpDCDvRnv37m0h9OvXL+9QnO7/1ltvtfhuvvlmp+OMGtydd95pVZs3bx61CeohgAACCCCAAAIIIIAAAggggEBMARJdMQFJdIUDJNEVzomzEEAAAQQQQAABBBBAAAEEEEAgukDqia6nn37aorvggguiR+lwza233tqiO+qooxyOMv/QtOLphhtuyD+YBCNo3bq1tXbLLbck2CpNIYAAAggggAACCCCAAAIIIIBAFAESXVHUflGHRNcvMCr8SKKrAg6HEEAAAQQQQAABBBBAAAEEEEAgEYHUE12PP/64BXrFFVckErBrjfzhD3+wkI4//njXQnMqHq14UulUcDGC6dSpk9UePnx4jFaoigACRRaYMWOGDe+jjz6y8rvvvrPyhx9+sHLWrFlWtmzZsl659NJL23bHjh2tXHzxxa3kPwRqWWD27Nk2/K+++srKL774wkr9Hn3//fe2PX/+fCv1X6NGjexHrcTW75t+z1RyrU2JUVYjoL/z+vuux6Eer3p86nHXpEkTa75t27ZW6vHXuHHjarrlXATqCcydO9e29Xfx66+/tu2ZM2daudRSS1nZrl07K5dcckkr+c8NAf3d0PxpW68X9XejRYsWFrDmc5lllrFt/n7Un0cSXfU9qt4i0RWOTAkuleFquX8WiS7354gIEchbQG+ASHTlPRP0XwQBJQ5IdBVhNoszBv2dJ9FVnDn1cSQkunyctZ9jVmKLRNfPJnF+Sj3R9eCDD1p811xzTZw4na27/vrrW2xnnXWWszG6ENjYsWMtjAkTJrgQTmIxrLfeetZWUe8qmhgUDSFQYAElsP7973/bKFW+++67tv3ll1/GGr1Woiy77LLWzq9//Wsrf/Ob31i5wQYbWNmmTRsr+Q8BHwWmTp1qYb/++utWvv3221bq90tl3N+ncjb6PWvfvr2d0qFDBytXWWUVK7t06WJl165drVxhhRWs5L9iC0yZMsUG+Oqrr1r51ltvWanH48cff2zbSnTZRoT/tFJDjz897lSuueaa1qr+/rdq1SpCL1QpisD//vc/G8r//d//WTlx4kQr9XdTHwg0NN4VV1zRTllnnXWs3Gyzzaxcd911rdTj0jb4L7KAVhi/88471oZeJ06aNMm29Xdm+vTpkfpo2rSp1dPz1hprrGHbmke9X9UK0kideFiJRFfMSSPRFQ6QRFc4J85CAAH/BPSGRy9cVJLo8m8uiTg/ARJd+dnTc3kBvQEl0VXeiCPZC5Doyt48To8kuuLoRa+beqLrscces+iKeg0jZUyHDRsWfRZqoObVV19to3z44YcLNdrevXvbePr16+fFuLSkedq0aU7Fq2sPFfWTBlfd9QmQvttf7YNCn2zr2gHV1k/rfH2ClXT7WlL+5JNPWtOPPvqolUpoJd1f2Pb0ietGG21kVbbZZhsru3fvHrYJp8/TJ5xz5sxxKk6tvGjWrJlTcbkajP5OvPzyyxbiiy++aOVLL71kpa4l42r8wbi0oksfeG688cZ2ij4551opQTE3txcsWGCBKZH1t7/9zbb1uExrBWFUDT2ufvWrX1kTPXr0sHLTTTe1cvnll4/adCHr6dpoec2jnp+1IjsqshKuN910kzXx/PPPWzlv3ryoTVast9xyy9nxPfbYw0q9rqhYqcRBXRtMXzUvcUouu3Rtq7RWRn7yySc2LuVBtPIuLwetWNbz01ZbbWXx6e+HHqe5TEaKnZLoiolLoiscIImucE5pn+VqwoVEV9ozX7p9El2lXcrtJdFVTibd/SS60vXNqnUSXVlJ0081AiS6qtHy71wSXdHmjERXNDfVItEliXzL1BNd//jHP2yEl1xySb4jTal3rYQYPXp0Sj0Uo9nLLrvMBvLEE08UY0ALRzFgwAD7acstt/RqXH/605+cilefMBT1WmcffPCBeR999NFOuevaH1deeWWkuAYNGmT1dI2BSI2kUOm+++5LpFUltu6//35r75577rFSFxtOpJMUG9G1hPbff3/rJa2VbikOwZo+9thjrZw8eXLaXVXVvp7XOnfuXFW9op8cTBzok+xnnnnGhq5P+IvqoLvn/f73v7chbr/99lbq2ilFHbcv49K1tHQNYd0d/vPPP/dlCCXj1IoNXcNLj7vf/e53dn5RV2yUxPjFzn/961+2ldfrSyWMrr/++l9E1fCPWsF8xx132Ml33XWXldrfcAvJnBF3Qcff//53C8S1bz4deeSRFlfUlWpB3ffff9923XzzzVZqxZ2eD4Pnu7Ktlcn77ruvhaSb7OnviStxRo2DRFdUuYX1SHSFA9QbAhJd4bzSPotEV9rC9dsn0VXfI+0tEl11wiS60n2k6XmNRFd9Z72w11fBSHSR6Kr/CMl3i0RXvv5Z906iK544ia5wfiS6wjllfVbqia7nnnvOxnTeeedlPbZM+lPG884777T+uFZHafbzzz/fDjz77LOlT/B076WXXmqRr7766l6NgERXttNFoitb76iJLr1Bf+SRRyzg8ePHW6k3RtmOIvneevbsaY3qmoK6RkXyPSXbIiu6kvVMujVdI0bXrtPdlfV3L+n+fGtPrxN1d9Q999zThqC76Pk2Ht/i1bXf7r77bgv9oYcesrLoKws1T1pRtPvuu9sufQNBly7QeUUtfUt06fXGkCFDbEpee+21XKfmoIMOsv532223SHEUdUWXLqkwatQoc3n66aet1OvISFgOVFJi85hjjrFo9M0PB0KLFAKJrkhsP1fSCxgSXT+blPqJRFcplfz2kejK1l5v+PjqYjbuJLpKO5PoKu0SdS8ruurkSHRVfgTpdSKJrspOaR0l0VV3UXESXWen9RCr2K4SjWG/ukiiqyJnYgfjfnWRRFdiU5FqQ6knut58800bwIknnpjqQPJu/KqrrrIQVlpppbxDcbL/wYMHW1y625KTQVYRlD4Ju+2226yWbyv5SHRVMdkJnEqiKwHEKpqoNtE1depUa113B3btmmNVDD3UqbqG0MCBA+183TUuVOUcTmJFVw7oFbrUJ9ZPPfWUnXXjjTda+dlnn1WoxaGgwIYbbmi7DjzwQCtXXXXV4ClsRxBQ4lXXVNTrtFpZwdUQme7+d/DBB9upm222mZVKyDZU37fjvqzo0t/PM88804g//vhjJ6ivueYai2PFFVeMFE9RVnTpeU93URwzZox56FqukXAcrqT3tfvtt59Fucsuu1jp298JEl0JPchIdFWGJNFV2SfroyS6shUn0ZWtN4muyt4kuir7hD1aqyu69IKfRFfYR0rp80h0lXaJu5dEV2VBEl2VfZI+GnZFF4mupOUrt1ftii4975HoalQZ1rGjqSe6vvzySxuyvuPr2PgTC+e0006ztjbaaKPE2ixSQ65+Ih/VuFu3blZV36GP2k5e9Uh0ZStPoitb77CJrkcffdQCu+6666ycPXt2toHm3Fvjxo0tgj59+li544475hxR6e5dff6otUTX22+/bRM0cuRIK7VdetbYG1ZAd8PbdtttrYruktq6deuwTXDejwJvvPGGOYwYMcJKPe+CU1lgnXXWsRP69+9vZadOnSpX8Oyo6yu6vv32WxM96aSTrPzoo4+cENZNVvQ8FzUo31d0ffXVVzb0Sy65xMqJEydGpfC6ni59oWt3NW/e3IvxkOhKaJpIdFWGdPWNSuWoyx8l0VXeJsqR9dZbz6rldfvnKDFXU0cvuLlGVzVq0c8l0RXOjkRXOKdyZ+kNgN4QlDuvKPuV2CLRleyMkuhKxpNEVzRHEl3R3MLWamhFF4musJLJnhd2RReJrjp3El1lHn9a6rfHHnvYGUX9xHyfffax8aksw1Gzu+Xy3XffFcJA1zbYddddvRwPK7qynTYSXdl6l0t06Rot+qq5PmnMNjp3e9tpp50sOK3wciVSVz8oKXqiS78vugbXgw8+aA+J+fPnu/LQKGQc7du3t3Hpg5Hu3bsXcpxxB6XH4S233GJN3X777VbqfUfc9mutvq7Jo9fruiaPErG+eri6oktfsdU1uf773/86RXzAAQdYPHr/HjU4vc4aNmxY1CZSqddQokvXar3ooous/y+++CKVOHxrtEuXLhbyWWedZaXrK49TX9GlJxz9opDo8u0hnUy8euIk0ZWMZ9xWSHTFFayuPomu6rzink2iK5ogia7q3Eh0VefF2eEESHSFcyLRFc4p7FkkusJKVXdeuRVdJLqqc0z6bBJd0URJdJVxGzBggB15//33y5zh925dm0tfYfR7NMlFryW5++67b3KNOtDSlVdeaVGsssoqDkRTfQgkuqo3i1ODRFccverrBhNdn376qTVy7rnnWvnhhx9W32gN1XAt4cWKrmwffO+++651qE+yXbn7V7YK+femu1vtsMMOFsyhhx5qpe8rbOLK6qtEF198sTXl2kqYuONzpf5aa61loejaUUrAuhJf2DhcXdGlFYjjx48PO5RMz7v66qutv44dO8bq17cVXbpb67hx42zcSkjGQihg5V/96lc2Kl1yxtWVXamv6NLckuiSRG2VJLrcnG8SXdnOC4mubL1JdMXzJtEVzq+oK7pIdIWb/7TPItFVWphEV2mXpPeS6EpGtNyKLhJdyfhGbaXcii4SXeFESXQFnLQC5q9//WvgSDE227RpYwO54YYbrNQLlGKMLvooXnvtNat8yimnRG/EoZorrLCCRXPttdc6FFX1oZDoqt4sTg0SXXH0qq+rRNdbb71llbWSS2+Qqm+xNmvst99+NvC99torVwBWdGXDr2twjR492jqcM2dONh3TSygBJR5OPvlkO79du3ah6hXlpMmTJ9tQtIKAa+ZkM7N6f6OVXboZUza9x+/FtRVdU6ZMsUHpec21v7P6poret8edAddXdG211VY2RL2ve+ihh+IOuabq63lJr7P1FWhXEDJb0aVfGBJdrkx9NnGQ6MrGudpeSHRVKxbvfBJd8fyqrU2iq1qx0ueT6Crtor1FW9FFoksz62apNxQkus62CSLRlc3jlERXPOfgii4SXfE8k6qtFV0kuuKJ6nmp5hNdjz76qEmOGDEinqjjtYv2wjcu9wMPPGBNKFMet7286x944IEWwu677553KLH6J9EVi6/qyiS6qiaLVUHXStQ1hmbNmhWrvVqtrJXJ8vztb3+bC4U++daKjlyCKNGp78/3uvbIddddZ6Pjk+wSk+zgrmWXXdai0t3aOnXq5GCUyYX06quvWmNkG18jAABAAElEQVR6I/X9998n1zgthRbQteF0N9AtttgidN08T3RtRddf/vIX49DjOk+bUn0n/QGXqyu6dHdpXePvxRdfLMXBvpAC22yzjZ2pBGLIaqmfltmKLhJdqc+lkx2Q6HJyWhYj0ZXtvJDoytZbiRkSXfHcSXRV9iPRVdmHo+kIkOgi0ZXOI6tyqyS6KvuUOxpc0UWiq5xUtvtJdCXrXfOJLlff6CU7zYstdvDBB1uTu+66a9JNe9me3gg88cQTXsavoJs2bWo/6tolSy+9tA55WZLoynbaXP37F/daDIMGDTLISZMmZQvaQG+NGze2M3T7+QZO53ADAksuuaSdcdVVV1mpr7I0UC2xw6zoSozSGpo9e7aVQ4cOtVIrHpLthdbSFlhiiSWsizPOOMPKNddcM+0uM23/ueees/50d0U9bjMNgs4WEdAHIAcddJAdc/39jv6+6dpuiwwo5R1KdOmmbPogLuVuIzevb16tvPLKkdv4ZUVXV3Q1b97cwuTvyi9nK/7PJ554ojXSs2fP+I0l0EJmK7pcfaOXgGG9Jkh01eNYjERXfQ9Xtkh0ZTsTrv79I9GV7ePA195IdJWeOT2/de7cufQJju7VC3sSXY5OUMiwSHSFhOK0RAVIdFXHSaLr7wY2bNiw6uBSPptEVzrANZvoEudhhx1mP37++efaVaiyS5cuNh59AlWowUUYzKGHHmq1pk2bFqG2O1WUmdYvsDuRRYuERFc0t6i1SHRFlaOeSwK6JotWWGUVm/rjGl3xxHWtOl3raOLEifEapLYTAq1atbI4zjrrLCu7du3qRFxRg9AKnCFDhlgTupZc1Paol66A69eu1eMp7xVd+sqxayvg9ejQtf6GDx+uXYmUrq7oSmRwNLKIQNu2bW3f1VdfbaWenxY5MaMdma3o0nhIdEmiNkoSXW7OM4mubOeFRFe23vSWjgCJrvquvq3oItFVf/6KsqU3EiS6ijKjfo2DRFfl+dKKLhJdbq3oqjxrHI0qUPOJLt3d5/77749q6EW9kSNHWpwdOnTwIt6kg/zoo4+sySOOOCLppjNtT0u0r7jiCutXX/XKNIgUOiPRlQJqhSZJdFXA4ZA3Avp7qIv8awVz2gNgRVc84Tlz5lgDSoToLlPxWqW2awJKeJ1//vkW2mqrreZaiBXjee211+y4rjmmr9hWrMRBZwS0kMG115d5r+jy5Zqh++yzjz2WVCb1wGJFV1KSfrWz8847W8Ba8JJX9Jmv6CLRlddUZ9svia5svavtzbUXIuutt54NIa+l5dX6VXs+ia5qxTjfRQESXfVnxZcVXSS66s9bUbdIdBV1Zv0YF4mu0vNEouvvBuPaNbpKzxZ7kxKo2UTXq6++aoa6vWpSoK61s+eee1pI+++/v2uhZRLP7bffbv2MHz8+k/7S6mTzzTe3pgcOHJhWF7m0S6IrW3YSXdl601u6AhtvvLF1cOqpp6bb0cLWWdEVjXnBggVWUSvw/vnPf0ZriFpeCSyzzDL15r19+/ZOx//ee+9ZfHpf8N133zkdL8GVFtAHISeffLKdsMkmm5Q+MeO9ea/oyni4kbu78sorrW7S31xhRVfkKfG6YosWLSz+66+/3sqllloql/FkvqKLRFcu85x5pyS6MievqkMSXVVxxT6ZRFdsQhpwSIBEV91kuL6ii0SXQ780GYZCoitDbLr6SYBE108UXv5AosvLaXM26JpNdOmFl67dNHXqVGcnKU5guh37qFGjrBlNeJw2fap71FFHWbgffvihT2H/FGvTpk3tZ901Yvnll//pWBF+INGV7SyS6MrWm97SFdAbGt2daeWVV061Q1Z0ReMdO3asVZwwYUK0BqjltcAaa6xh8Q8dOtTK5s2bOzWeL7/80uLR77e2nQqSYKoW0ONMjzs9DqtuKKEKrOiqDLnSSivZCVdddVXlEyMeZUVXRLiCVNtrr71sJPvtt18uI8p8RReJrlzmOfNOSXRlTl5VhyS6quKKfTKJrtiENOCQAImuuslwfUUXiS6HfmlyCEUJBiUclIDIIZSSXSqxRaKrJI+3O/U40+NOj8O8BkSiq7I8ia7KPhyNJ1BziS5x3XPPPfbj6NGjtauQZd++fW1cO+64YyHHFxzUpEmTbNegQYOCh7zazvsXM20sEl1pC9dvn0RXfQ+2iiGw66672kAOPvjgVAekN8KTJ09OtZ9qG3c10fXMM8/YUC644AIr9QFjtePj/GIIbLfddjaQ/v37OzGg+fPnWxy6uyJ3AXViWhIPQt+E0N/J1q1bJ95HmAZJdFVWSvv9Diu6KvsX/ai+Sq9vuOmD0qzGnfmKLg2MRJckilWS6PJjPkl0ZTtPJLqy9aa3bARIdF1m0J07d84GPGQvJLpCQtXIaSS6amSiHRsmiS7HJqRMOCS6ysCwOxGBmk10zZgxwwD79Olj5cyZMxMBda0R3WXgmmuusdDy+kQjK5dzzz3XunrhhRey6jLRfvSG5ZJLLrF2mzRpkmj7rjRGoivbmSDRla03vWUjkNULGFZ0hZvPTz75xE6U1w8//BCuImfVhMApp5xi48z7bni33HKLxaGyJvBreJA9evSw0ef1TQ9WdFV+8F1++eV2wmqrrVb5xIhHWdEVEa5g1YYMGWIj6tatW6Yjy21FF4muTOc5s85IdGVGHasjEl2x+KquTKKrajIqeCBAosutFV0kujz4pckxRBJdOeLXcNckutyefBJdbs9PUaKruUSXJu7GG2+0H++44w7tKmSpa3Tpml1FG+Trr79uQ9ILKd+uCaK7LA4bNszGseqqqxZtiuqNh0RXPY7UN0h0pU5MBzkKXHTRRdZ7165dU4lCK5S4RldpXj3f6vlXz8elz2ZvrQq0adPGhj5ixAgr9Y2DrDx0La7TTz/dutTjNqv+6SdfgeOOO84C6NWrV6aBFH1FV6tWrcxTv9/6hpRu9lAOu0OHDnZo5MiR5U5JZD8ruhJh9L6RvL5Cn9uKLs0YiS5J+F3qhbVeaPv2AoZEV76Pv/XWW88COPvss/MNJKXeSXSlBEuzTgiQ6Mr3Gl16vtXzr56PnXhwEIQzAnojTKLLmSmpqUBIdKUz3SS60nGl1WQFajbRpa8waqXT999/n6ysI63pLgPnnHOORfSb3/zGkcjihTFv3jxr4Pjjj7fStU/cw46uX79+dmrv3r3DVvH6PFZ0ZTt9JLqy9U67N127b+2117aulltuOSvbtm1rpa7F+M0339j2F198YaVu1jFt2jTbLsp/BxxwgA1ljz32SGVIrOiqzForN/eprMDRhgSaN29up5xwwglW/u53v2uoSiLHZ8+ebe0cddRRVn766aeJtEsjfgloBaESrUq8pj2Koq3o0gfDuoj8WmutZYSNGzeuR6nXGU899ZTtv//++63U/t133922DzzwwHr1kt6o9RVdSkSussoqRrv00kvXK+fMmWPber347rvv2vb06dOtLMp/HTt2tKFcffXVmQ4p9xVdJLoyne/EOyPRlThpJg2S6MqE+adOSHT9RFGIH0h01Z9GEl35rugi0VX/8chWaQESXaVd2JuNAImuZJxJdCXjmFUrJLrqpGs20aUH2oQJE+zHsWPHalchy/bt29u4dFe/du3aeT3OG264weK/8847vRzHtttua3EfccQRXsYfNWgSXVHlotUj0RXNzZVauvaUVnxuuOGGFtoSSywRKcT33nvP6t17771W/uMf/7BSHxxEajTHSuuuu671rhXLSYfCiq7SolopePjhh9sJujZL6bP93bv44otb8F26dLFSKyl1Lc3ll1/e9i+77LJW6o1Fs2bNbFv/aWXRrFmzbNf//vc/K3UR/ylTpti2Vl7qK6Cqp3Z8KzfYYAML+c9//rOVK664YqZD0N0VVWbaeQadrbTSStbLr3/9aytXXnllK+Wsx6FW+upuqHocfvbZZ3a+Hn9vvPGGbet5Ql9Ntp0F+G/LLbe0UQwYMCCT0fi+okvfCDrooIPMa5dddrFS+8Mi6vWFVnitvvrqVlWP17DtVHterazo0iVwNt98cyPadNNNrdQ3uHQ8rN/UqVPt1EcffbReqb8fYdtx7bwxY8ZYSMqHpB1f7iu6NEASXZLwqyTR5dd8KVoSXZLIpiTRlY1zWr2Q6KosS6IrnxVdJLpWtQcmia7Kv58kuir7xD1Koqs6QRJd1XkpoUWiqzq3rM9WIotEV2X5mk10KdPs+7WeKk/vz0f1SeT5559vO/VJz89nuP2TPhG4+OKLLVDfPnHq1q2bxa2Ln+urSG6rJxcdia7kLMO0RKIrjJI75+iaW3phudlmm1lwesGZdKTvvPOONam7vn700UdJd5Fqe1pBoxUbSTuxoqv09F122WV24Iknnih9gmd79bhRYkZ3Z9too41sJC1atMh0RFrJ9eKLL1q/f/3rX63897//baWrr3u0su2www6zOHv06GFl1v/pWly6Npc8s44jqf7kutVWW1mTW2yxhZV6vkiqH7Xz9ddf249PPvmklVrZ8eGHH+oUL0tdS+rSSy+1+FdbbbVUx+H7ii69Dtltt91SdUqr8aKv6Npkk02MTvOklZxJe+oumldeeaU1rcd10v2k3Z5umiO3tPtzZkUXia7Wac91ou2T6EqUM/PGSHRlS06iK1vvuL3pjYteuJDoqixKoiufFV0kuio/LuMeVWKGRFc0SRJd0dxUi0SXJOKVSgjog+14rWVfW69DSHRlbx+mRyVsNE8kuiqr1WyiSyz6ZPvEE0+0XUqA6XjRSn1H+owzzrCh6a5dro7zmWeesdB0O3nf5kefHA0ZMsTGEfUaO67OT9i4SHSFlUrmPBJdyTim3Yqu/XPqqadaV0suuWTaXdZrX9dYOvPMM22/rhFU7ySHN0aNGmXRaeVDUqGyoqu+pK7dIxdXVxbVj3rRLa3gUiJ5zz33tJN0d6pFa7ixR3/Px40bZwHpjXRe0ekrMzvvvLOFIMesV8AFx69vLDz77LPBQ15s6/X43nvvbfFuvfXWVub1DQD9nut1+I033mjxfPzxx154BoPs3r277Ro8eHDwUKLb+v30LdGlla16PZAoSoaNFW1Fl37/jzzySFPUV3GzItXfAf3++3aN7H333deo9Hc1bTdnVnRpoCS66m5PLw/XSj3BkuhybWaqi4dEV3Vecc/WG6Ojjz46blOJ1tcbSi2FrrbxQYMGWRVdvLna+q6dT6Ir3oyQ6IrnF7Y2ia6wUumcp7/nJLoq+5LoquxT7VG9wdXrcL3RJdFVWZJEV2WftI+S6EpWWH8H9PtPoquyr3OJLoWridPFzrW/qKU+Adc1yvSGK+/x6hfq1ltvtVBUan/e8YXtX3cVOe+886xKmzZtwlYt5HkkurKdVr0xItGVrXvY3nQNG/39bd68ediqqZynu+qcdNJJ1r4eP6l0lmCj+uRZn0Qn1bRWLk2ePDmpJhNpR18d7Nw5268u+p5A0G3GdbdjXTMzkUnJoRG9kb788sutd33lLO1QdDcv3XVTF0VPu9+G2tc1pPR859vrRV1MWnepdPUauvpqrd7w3nfffTY1vnnrWr+6q2pDj69qj+v305cVXbpL5/Dhw22oaX0VrlrHqOcXJdGlFbL6gHf99dePSpJoveuvv97a0+9/oo2n0JjuRnnyySen0PqiTZLoWtQklz0kutJlJ9FV35dEV32PtLeUqNAL/7T7C9s+K7rqpEh0hX3EVD6PRFdln6SOkuhKSjKZdvRGmkRXnSeJrmQeVw21QqKrIaG64/r9JNEVzivps0h0JS1avz0SXfU9glvOJrr0iYSupfTCCy8EYy/ktq5Zsf3229v49tprLyuXXnrpTMera8Nce+211u+7776baf9JdaZroOkaALW+kkuuJLokkU1Joisb52p70SfIWumZ90quYPxawXTCCSfYoblz5wZPcWq7X79+Fk/v3r0TjYsVXXWcejwMHDjQduh1UqLYKTb2+9//3lrXXfj0CXmKXWba9FdffWX9XXLJJVZOnDgx0f7btWtn7fXp08fKnj17Jtp+Uo1ppaMvdwPVNXf69+9vBLoWV1IeWbXz/PPPW1d6/Omaj1n1H7Uf3VX1tNNOi9pExXq+Jbp0jb3999+/4rh8Oeh7okvvy//yl78Y+cYbb+wUvV4X6hsJurSBU0H+IhitgNfzxC8OpfIjia5UWKM3ql8oEl3RDX9Zk0TXLzV+/plE188WWfxEoisL5er7INFVvVmlGiS6KunEP0aiK75hmi2Q6KrT1RsYEl1pPtoWbZtE16Im/38Pia7SLlntJdGVrjSJrsq+zia6FPa3335rP+o7sXrDqONFL7XC4I9//KMNVZ/g6RpejRs3jkXw5ZdfWv2XXnrJykcffdTKN998M1a7eVfWNT9097RWrVrlHZJT/ZPoynY69HeLry5m616ut/bt29uhYcOGWam7a5U7P+/91113nYVw//335x1Kxf61Anm//fareF61B1nRVSfmWwJB86yVCVqpoP1FLXU36hEjRtgQH3/88UhD1UqjHXbYwerrblUtW7aM1F7alaZNm2Zd9O3b10o5pN1v1PZ1LSS9TtRdAKO250o93dRLd3PX+yhX4gvGoQ/4R44caYeSviaVL4kuvd8bM2aMOWR91+fgvCS17Xuiy5fnL71vP/HEE5OaulTa0ett3cwllU5+0SiJrl9guPij/vCR6Kpudkh0VfYi0VXZJ+mjJLqSFo3XHomueH7lapPoKieTzH4SXck4pt2KEjwkuualTR2rfRJdsfgSq0yiq45S7/dIdCX20EqkIRJdiTD+1AiJrp8o6v+glUf6juzUqVPrn1BjW7oLjL7rqout6xMAXftCF6vUXbw+++wzk9LFQnVbYt+u9VFuurfbbjs7pLvl6BPRcufX6n4SXdnOPImubL0b6k2fdG+44YYNnerEcV9WSujaNroGU1J4tb6iS3fx07WZ9LyelG9a7Rx88MHW9K677ppWF063q9dVuiue7ibeUNDrrLOOnaK7KeqmIQ3Vy/v42LFjLYQJEybkHUrF/vVNCN3VdpNNNql4vq8H33rrLQv99NNPt1LvA1wdz84772yhHXrooYmG6MuKri222MLGree7RBFybMzXFV36O6xruCohmyNlqK61QvWVV14JdX7WJ+l9+V133WVd6+9xWnE4v6JLAyfRJYm6kkRXfQ9tkeiSROWSRFdln6SPkuhKWjReeyS64vmVq02iq5xMvP0kuuL55VWbRFde8pX71RsrEl2VnbI+SqKLRFfWj7lK/ZHoqqQT/RiJrgbs9Mm2rtmlFUoNVONwQQUWX3xxG5lWcG211VYFHWmywyLRlaxnQ62R6GpIKJvjWsGlRFc2vSbXy/nnn2+NPfvss8k1mmBLPXr0sNb0/JxU0/qEWxdjT6rduO3oq4RaWR23vXL1tUJGK2bKnefKfq3g0oouV+LKO47Ro0dbCPfcc0+9UHQ36EMOOcT2b7755lb6soJACT2tONTr9HqDdGhDj0s9Th0KLZVQdNd63cVe85VKZzEa1TdSdO2epk2bxmjt56q+rOjSShzX7ur3s2S0n3xb0aVEuK7hmvbzezTV8rX0+lCvF8ufme+Rm266yQLQ731a0XizoksAegLVC2kSXZKpzZJEV7R5J9EVzS1qLRJdUeWSrUeiK1nPYGskuoIiyWyT6ErGMe9WSHTlPQN1/ZPoWuDGRASi0BteEl0bB2T83iTRle38keiq7+1dokvhf/rpp/bjaaedZuXnn3+uQ5Q1ILDqqqvaKHV3CV2jrAaGnsgQSXQlwhi6ERJdoalSOVGf0Oni0B07dkyln7Qbdf0F4wYbbGAEZ555ZqIUtb6ia8CAAeb5/vvvJ+qadGMbbbSRNamVCb6sSEraoVx7Wklz9dVX2yn6CocudqxLUpSr7+r+SZMmWWj6ANrVOJWIP+WUUyzEWnt86lpxd9xxh6tTZHHpfZ3+nsQN1vUVXVq5dvPNN9tQdY3luON2pb7rr1uCTttss43tOvLII4OHvNieNWuWxXnAAQdYOXPmTCfj1gc/yyyzTKrxkehKlZfG0xIg0RVPlkRXPL9qa5PoqlYs2fNJdCXrWa41El3lZOLtJ9EVz8+V2iS68p0JEl032gSQ6Mr3cRjsnURXUCTfbRJd2fiT6ArprIu06rvnb7zxRsianOaTgD7h0O3rd9ppJwtfTxA+jcWFWEl0ZTsLJLqy9Q72pk+G9Ulx8Lgv2zNmzLBQtQJEb5xdib9bt24Wip6Pk4qrVld0ufp3Izivul348OHD7ZC+ghQ8j+1iCmiF2sMPP+zkAPV4vOqqqyw+XRPNyWBTDGru3LnWuv6e6u7rKXYZqelevXpZveOOOy5S/WAl11d0denSxUK++OKLg6EXYtuXFV1a4am/Zx06dPDa/9xzz7X4dY0+1wZzzTXXWEgrrrhiqqF5u6JLKiS6JFHskkRXsvNLoitZz4Zac/UNq25bf+WVVzY0hJLH9VUVfXWl5EkO7CTRlc0kkOhK1tnVvxvBUZLoCorU1rbeGJLocnveSXSd7eQEkehyY1pIdGU7DyS6qvTWH/Dx48dbzbvvvttK1z7xrnJYNX/6JptsYgaHHXaYlWl/l7dWwEl0ZTvTrr5hrZVEl64Zpa/WZTv7yfemv4euXZtyzTXXtMFeeOGFiQ5aKxBq7a6Lt9xyizmqTBQ1wca0UlIJ5QSbpimHBfT6+sADD7Qo9cGzayHrq79bbrmla6HlEo8+mNIHVbkEUaHTVq1a2VHdlU3XsqtQpeIh11d07bjjjhZ/3759K47D14O+rOhad911jficc87xlbpe3HrdoLLeQQc2tAK8U6dOqUbj/You6ZDokkSxShJd6cwnia50XMu1SqKrnEw2+0l0ZeNMoitZZ71AVZls68m1RqIrOUufWiLR5dNs/Rwria6fLVz4iUSXC7Ow2GIkurKdBxJdMb31h3zkyJHWkt5oxmyW6ikLaIXJIYccYj1179495R5rs3kSXdnOu/7+HH300dl23EBv+n0r6lcXl1tuORO47rrrrNTS9AZYnD/s6rUXunbtanYXXXRRooa1uqJLdxV+8803E/VMqrH111/fmjrrrLOSapJ2PBJw9XlNhLq7ru62q5uS6Hitl4MHDzaCl19+2UmK888/3+JaZ511YsXn+oquo446ysa39dZbxxqnq5V9WdGlu7FqgYWrnmHjevbZZ+1U/R6FrZfVeVdccYV1pZvLpdVvYVZ0BYFIdAVF/NjWG28SXenOF4mudH2Drbv6hkC/byS6gjPm9jaJLjfm57LLLrNAOnfunEpAJLpSYaXRhARcfV7T8Eh0SaJ0SaKrtEvWe0l0ZS1euj8SXaVd0tpLoish2Xnz5llLjz32mJW33367ldOnT0+oB5qJI6BPanbbbTdrRtfQKcrKizg2adYl0ZWm7qJtu/qGoOiJrh122MEm489//vOik+LxnnHjxln0d911l1OjYEVXMtOhu2secMAB1uD8+fOTaTihVvT8fOmll1qLaSX6EgqXZlISeOSRR6xl3c0wpW4iNztw4ECru/nmm0duo8gVX3/9dRveySef7OQw99xzT4tLdxmOGqTrK7q04kbvh6KO09V6rq/oat68udHdfPPNVmrbVc+wcU2dOtVO7d+/f9gqmZ5HoishbhJdCUGm1Iz+sJPoSgm4TLMkusrApLSbRFdKsA00S6KrAaCED5PoSgaURFcyjrSSrgCJrnR9026dRFfawuHaJ9EVzimts5TYItGVlnDpdkl0lXaJvXf27NnWxuOPP27lgw8+aOWUKVNit00D5QX0CbDuyqTEli5eXL4mR9IQINGVhmr5Nkl0lbdJ80hRL5J9//33G5uuPZamYTVtk+iqRqv8uS+++KIddPXuT0W7aG/5meBIJQGt6Pvb3/5W6bTMjy255JLW55gxY6zUG9nMA/GkQ3117sMPP3Qq4m7dulk8Q4YMiRWX6yu6tEK7bdu2scbpamXXV3QV9fls5syZ9pDQykjXHh8kulKaERJdKcE20CyJrgaAMj5MoitbcBJd2XqrNxJdksimJNGVjDOJrmQcaSVdARJd6fpm1TqJrqykS/dDoqu0S1Z7SXRlJV2/HxJd9T1S29LtkV999VXr46GHHrLyueees1JffUwtgII23KVLFxvZ73//eys322wzK9u1a1fQEfs1LBJd2c4Xia5svZs0aWId3nTTTVa2atUq2wBS7u3JJ5+0Hi6++OKUe6queRJd1XmVO1uP29tuu63cKbnuP/XUU63/jTfeONc46DxfAV378NNPP803kEDv22+/ve05/PDDA0fYLCVw9913226tgCt1Th77WrZsad3eeuutVuoD82pjcXVFl+4COmHCBBuStqsdn+vnu76i68ADDzTC3Xff3XXKSPFpRZdWeEVqJIVKJLpSQC3VJImuUirx95Hoim+YZgskutLUXbRtEl2LmqS5h0RXmrrl2ybRVd6mmiMkuqrR4ty8BEh05SWfbL8kupL1DNuaElskusKKpXMeia50XBtqlURXQ0IpH//iiy+sB91+9/3330+5R7+a1xvJNdZYwwLXJ7s9e/a07eWXX96vAdVYtCS6sp1wEl3Zeq+++urWob5ak23v6ff2yiuvWCdaWZN+j+F6INEVzqmhs84880w75d///ndDp2Z6vHXr1tbf+PHjrdTrgEyDoLPcBbQyYK+99rJY9IFx7oEtDECv27t37+5KSE7H8dFHH1l8RxxxhJNxjhgxwuJaeeWVI8Xn6oquNm3a2HhuvPHGSOPypZLrK7ouvPBCoyzqNaNd/UCCRFfOv8EkuipPgF7gkuiq7OTqURJd2c4Mia5svUl0Zeut3kh0SSJeSaIrnh+10xUg0ZWub9atk+jKWryuPxJd+bgHeyXRFRTJZptEVzbOi/Qyd+5c23f11Vdb+de//nWRc2phR4sWLWyY+griOuusY9trr722lXpDo/NqwaRIYyTRle1skujK1lvXBjzhhBOy7Tij3nR3LF1EOKNuG+xGzwsXXXRRg+dWc8Kxxx5rp0+ePLmaaqmfe9lll1kfnTt3TrSvQw45xNqbPn16ou3GbaxXr17WxHHHHRe3Kep7LODq85lej+qrv82aNfNYOfvQDzvsMOv0888/z77zCj0OGjTIjvbo0aPCWeUPubqiq1OnThb08OHDywdfgCOur+i6+eabTXmJJZYogPaiQzjxxBNt55tvvrnowRz3kOjKCZ9EVx28XjCQ6MrpgZhytyS6UgYONO/qG4NVVlnFIr3yyisDEYfb1AvQSZMmhauQ0VkkujKCDnRDoisAEnGTRFdEOKplIuDq85let5LoivYwINEVzS1qLRJdUeWSrUeiK1nPsK2R6AorldB533zzjbV0/vnnW5nWGzd9x1wrpH744Qfr7/vvv7cyuK393333Xb3zgneD1N1IdA0NPeE3b97c6umuY8sss4xtr7jiilausMIKVnbo0KHe9rLLLmvbuliibfBfYQR22mknG4sr19ZYb731LJ6zzz67MMa/HIirbwyKmujStWP222+/X05DYX6eNm2ajeXQQw91akwkuuJNh+tfCRs4cKANcPPNN483UGp7LfDCCy9Y/Oeee65T49A3DoYOHepUXL4Eo5W4Tz31lFMhx71YuKsrurp162bOQ4YMcco76WBcXdG11FJL2VB1zcmkx+1Ke7pm4csvv+xKSBYHia6Mp4NEF4mujB9yuXZHoitbfhJd2XqT6MrWW72R6JJEtJJEVzQ3amUrQKIrW++seiPRlZV0XT8kurL1DvZGoisoku02ia6MvKdMmWI9nXPOOVZ++umnqfSsuxEeffTR1r5WXEXtbPbs2fWqauVWvZ1sIFBGYJdddrEjwZWBZU5PfTcrulInLtnBaqutZvsvv/zykscb2unqVxcPP/xwC3377bdvaAheHp8xY4bF7dqKNRJd8R5O7733njVwzDHHxGsopdq6dmnHjh1T6oFmfRC49957LcxRo0Y5Fe4OO+xg8eguY04F50EwEyZMsCjHjh3rVLRbb721xRP1mpSurujabLPNbFwnnXSSU95JB+Pqiq5VV13VhqqES9LjdqU9fVPt2WefdSWkeu6ah7SCa/TjV5cWpNW4D+2S6PJhlogxaQESXUmLVm7P1RVdJLoqz5urR0l0uTEzSV+MnkSXG/NKFJUFSHRV9vH1KImubGeORFe23sHelGAh0RWUyWZb7pqHtHqt2UTXSy+9ZKZaqqtrYSUF3aRJE2tKF3fs3bt3Uk3TDgKxBXbffXdrI7gyMHbDERtgRVdEuJjV1lhjDWth2LBhkVpydUWX7jKjlbSRBudwJf3e6vfYlVBZ0RVvJnQNDV1TI15rydVu2bKlNXbrrbdaqWuCJtcDLfkkcP3111u49913n1Nh9+/f3+LZbrvtnIrLl2Cef/55C9W1a0ZttNFGFtdpp50WidLVFV16X9ivX79I4/Klkqsrumrlq6N6fa95cOVxQ6Ir5Zkg0ZUyMM07LaA3yHrDnHewJLrymQESXfm4x+1Vv7f6PY7bXlL1SXTFkyTRFc+P2tkIkOjKxjnrXkh0ZStOoitb72BvJLqCItluk+hKyVufQI0ePdp6mD9/fqI9aSXXCSecYO1uuummibZPYwgkIaCLdesun0m0GacNEl1x9KLXXXPNNa3yhRdeGKkRV1d06e6delxFGpwHlXbeeWeLMunnsahDJ9EVVa6u3t/+9jf74dJLL43XUMK1437FOeFwaC5ngeHDh1sEjz32WM6R1O9eK360Aqj+UbYaEnjnnXfslOOOO66hUzM9Hvd5xdUVXXvuuac57r///pl6Zt2ZVhJpZVHW/Zfrr0ePHnZIr2PLnef7/quuusqG8Mgjjzg1FBJdKU0Hia6UYGnWKwESXdlOl6vX6CLRle3jIOneSHQlLVpde0lfo4tEV3X+nJ2PAImufNzT7pVEV9rC9dsn0VXfI+stEl1Zi9fvj0RXfY/IW7qrnO4WlPYnUH369LFYd9ppp8gxUxGBtAX23Xdf6+Lbb79Nu6tQ7WvljVbihKrk0UmuJrrWWWcdU9RdWaol1SdhkyZNqrZqqudffPHF1n6XLl1S7Sfvxl1LWMf95L2c57HHHmuHJk+eXO6UXPYnnejSB3H6algugyrRqVbIaMVMiVPYVUMC+vv65JNPOjVqrRjRV/KdCs6DYL744guL8uCDD3Yq2pVWWsni0cqUaoNzdUXXPvvsY0NRWe24fDnf1RVdW221lREeffTRvlBGilPfYLvnnnsi1U+rEomuhGRJdCUESTOFEiDRle10kujK1ltvxEh0ZetOoiueN4mueH7UzkZAf19JdGXjnVUvJLqykq7rRwkuldn2nl1vJLqysy7VE4muBQsWlILxfZ9uvz506FAbyiuvvJLqkNZdd11rXytSuCtRqtw0HlNA1wT45ptvYraUTHX9/pxzzjnJNOhYK64muuK6u7qi6/LLL7dHgK4t5NjDIbFwDjjgAGvr66+/TqzNOA2R6Iqjt9hiEyZMsAbGjh0br6GEa9fKJ98JsxW2uXPPPdfG9sILLzg1Rn1zo2PHjk7F5Uswuvv83nvv7VTIyy+/vMVz3XXXRYrL1RVdBx54oI3HtZvKREKuUMnVRNf2229vUR9++OEVovf/0Pjx420Qt99+u1ODYUVXzOkg0RUTkOqFFiDRle30kujK1ptEV7be6o1ElySilSS6orlRK1sBEl3ZemfVG4murKTr+iHRla13sDcSXUGRbLdJdEX0njJlitXUE/Enn3wSsaXqqukuSauvvnp1FTkbgRwEDjroIOv1yy+/zKH3Rbss+m1+XU10de/e3SZj8ODBi05KiD2urujSxZI7deoUYhT+nuLa7zGJrniPpdtuu80auOmmm+I1lHDtHXbYwVr885//nHDLNOejwOmnn25hT5w40anwdW275ZZbzqm4fAlGl3rZZZddnAq5Xbt2Fk/Ula6urug69NBDbVy6qYxT6AkG4+qKrh133NFG2bdv3wRH615TN998swV16623OhUcia6I00GiKyIc1WpKwLU3yCS68nn4kejKxz2pXl37PSbRFW9mSXTF86N2NgIkurJxzroXEl3ZipPoytY72BuJrqBIttskuqr0fvnll63GRRddZOV3331XZQvRTu/cubNV1N2XorVCLQSyFTjkkEOsw+nTp2fbcZne4t79r0yzzuzW3eJ09zhXAot7NzVXV3TVyrVa9EJ52rRpTjykSHTFmwZ94qpPYOO1llztXXfd1Rpz7W5syY2QlqoROPXUU+30tK99W01M///cUaNGWZVll1222qqc/6OAq4mu9u3b2/yMGTMm0jy5uqJLK4mUcIk0OA8qubqiSysX9X7IA8pIIbr6uoJEV5XTSaKrSjBOr2kB/WEn0ZXNw4BEVzbO6oVElySyLUl0xfN29QUpia5481q02iS6ijajdeMh0ZXtvJLoytY72BuJrqBIttskukJ6P/DAA3amPsnRH+qQ1WOfpu9W65P12A3SAAIZCBx22GHWy+eff55Bbw13seaaa9pJF154YcMne3jGO++8Y1Efd9xxTkW/ySabWDynnHJKpLhcXdGluzPpbk2RBudBpT59+liU//vf/5yIlkRXvGm46667rIFx48bFayjh2n/605+sRT1vJNw8zXkmoLuLa6WMK+HXygccaXn/8MMP1vRee+2VVheR2l1hhRWs3rXXXhupvh6netxGaiSFSv3797dWt9tuuxRad6dJV1d06W6XuimAO2LJRqK7Lerui8m2Hr01El0h7Uh0hYTiNAR+IaA3LCS6foGS4o8kulLELdE0ia4SKBnsItEVD5lEVzw/amcjoISBEgjZ9NpwLyS6GjaqdAaJrko6yR8j0ZW8aTUtkuiqRiv5c0l0lTHVii1l9h9++OEyZ2azu1+/ftZR7969s+mQXhBIQEBPsFOnTk2gtfhNrLHGGtbIsGHD4jfmYAtvvvmmRXXiiSc6FV3Pnj1jxeXqiq7Ro0fbuJZZZhmnvJMORl99+Oyzz5JuOlJ7JLoisf1U6b777rOfdfe4nw7k/MO2225rERxxxBE5R0L3LghccMEFFsbTTz/tQjg/xaBr5erauT8d4IdQAroLt25yEqpSBietvPLK1suIESMi9aaErBK0kRpJodKAAQOs1S233DKF1t1p0tUVXXvvvbch7bvvvu5gpRDJnXfeaa3ecMMNKbQevUkSXWXsSHSVgWE3AlUIkOiqAiuBU0l0JYBYRRMkuqrASvBUEl3xMEl0xfOjdjYCJLqycc66FxJd2YqT6MrWO9gbia6gSLbbJLoC3jNmzLA9eoL973//Gzgjn80jjzzSOt5mm23yCYBeEYggoGtF6St1EZpItIo+gdUnsok27kBjr732mkUR9VpYaQ1h8803t6YHDhwYqQtXV3Tpk6ull1460rh8qaQVxZ988okTIZPoijcNWqGur2DFay252nFXfiYXCS25IKDn6SeeeMKFcH6KYfDgwfZz9+7df9rHD+EFXL1pTtxruLq6okuvu/Q6LPxM+XWmqyu69ttvP4N07Zp0Sc/uhAkTrMmxY8cm3XSs9kh0BfhIdAVA2EQghgCJrhh4EaqS6IqAFqMKia4YeDGqkuiKgfdjVRJd8fyonY0Aia5snLPuhURXtuIkurL1DvZGoisoku02ia6F3rqG0DnnnGN7Pv7442xnooHeauUXpQEGDnsmcNppp1nErqyM7NChg8UzcuRIzyTDhfvKK6/Yibote7ha6Z+lawtqZVC1Pbq6ouumm26yoSy55JLVDsmr8137CjKJrngPH62QUSIhXmvJ1Y67oiK5SGjJBYFrrrnGwnjwwQddCOenGI466ij7eeutt/5pHz+EF3jhhRfs5HPPPTd8pQzO/N3vfme9/OUvf4nUm6sruvSBc69evSKNy5dKrq7o0t0WdVF6XzyrjfOee+6xKrqkR7X10zqfRNdCWRJdaT3EaLeWBUh0ZTv7JLqy9SbRla23eiPRJYloJYmuaG7UylaARFe23ln1RqIrK+m6fkh0Zesd7I1EV1Ak2+2aT3R98MEHJq435F9//XW2MxCytw033NDOPOOMM0LW4DQE8hc477zzLIjnnnsu/2B+jKBNmzYWx4033uhEPEkH8eKLL1qTWpmadPtR29O1CbQytdp2XF3Rddttt9lQWrZsWe2QvDpf14icMmWKE3GT6Io3Da4mxHX3Utc+EY6nTe2oAnfddZdVHTduXNQmUqmnlRl6A5tKJwVu9N5777XRjRo1yqlR6hrIer6rNjhXV3Qde+yxNpQtttii2iF5db6rK7oOPfRQc9x555298qw2WFd/r0l0keiq9rHM+QiEFiDRFZoqkRNJdCXCGLoREl2hqRI9kURXPE4SXfH8qJ2NAImubJyz7sXVN8QkurJ+JCTbH4muZD2rbc3V3+uaTXTNnTvX5lAX6dPKrmonNqvzmzZtal1df/31VrZr1y6rrukHgcgCugaMvioTuaGEKur3SHcHSahZZ5r5f+2deZwV1ZXH2XfEBQkGEQQ0GFEMMeAyLhOJjhqNEtSgRHEAxQRxg6ggbizKIoRBBD4YFcMijsuMmahoAiOIG/MhGsEoookElEVlExBEmOR0ftHX9OuuV1W36tZ733/6vKq695xzv7f6dfXvnXfvggULLJexY8d6k9PfE+nTp4/lc+6554bKy9eKrscee8zGU6dOnVDjykonfcJNRVc6M6b3Ue0aGzWLNWvWmIsrrrgiqisn/WfMmGF+99lnHyf+cZoNAgsXLrREx4wZ41XC2m1Ruy96lVwGkhk3bpxlKWHCl5R79eplqXTr1i1USr5WdF199dU2nh/84AehxpWVTrqfdH/5knffvn0tlXPOOceXlJzkgdC1Z88eJ2RDOkXoCgmObhAogID+QUPoKgBahKYIXRHgheiK0BUCWgxdqOiKBhGhKxo/eidDAKErGc5JR5EQIWEi6fj54iF05SOTjfO6n3R/+ZI1Qle6M1GyFV2+bq9d1e3QuXNna6Jd1apXr15VF65DIDUCvi4m+5//+Z/GpG7duqmxcRF47ty55nbSpEku3If2GXWNCF8rurTLTI0aNUKzyUJHKrrSnSV9YBBXRdeXX35pA/rxj39sdvfu3ekOsFx0VcqocqbcZQ5LhMA777xjIx00aJBXI9Zanw8//LDlxXN4YdPj2y6+yl67LWr3RZ0Pan2t6PrZz35mQ/i3f/u3oEPJZDtfhS7d72eeeWYmuQZNmoouzyq6ELqC3rq0g0B4Aghd4dmF6YnQFYZa+D4IXeHZRelJRVcUetWqIXRF40fvZAggdCXDOeko+sdfu90nHT9fPISufGSycR6hK915QujyTOjy9Y026G16yimnWFN997rY14gJyoV2fhHQ7oaqoPIlO+3qpV2+fMkrah4SXjS+qP7i6q9dbVWRWqhfXyu6nnrqqUKHksn2VHSlO21xV3RpNFo7b926dTrlhVWl2WWXXeZFPiSRDoENGzZYYF/vg/Hjx1t+bdu2TQdQxqLqfUbvO76lP3nyZEupRYsWoVLztaJL/+8We0WRr0KXnp+02UGomysDnRC6ELpivU0RumLFiTNHBBC6HIHN4xahKw8YR6cRuhyBrcItFV1VAAp4Wf9w6h/QgN2cN0Poco44EwEQujIxTYGT1PuM3ncCd0yoIUJXQqAdhUHocgQ2oFuELk+EruXLl9uUDRw4MODU+d3swAMPtAQvvPBCs//yL/9itmHDhn4nHlN2X3zxhXnasWOHWX0lY/v27TkRPvvss5xjXY+6Nknt2rXNryrqtKuf1nCQLfY1fHLgfu3A1+3B7777bsvy29/+9teyzf7Lhx56yAbh266SUXlT0ZXuvalPJNl1MZ15cFXRNWrUKBvQokWL0hlYnqgtW7a0K76tNZgnXU47JqCKLglfjsMFdt+zZ09rq+fvwB1LtKGvS8Y0aNDAZmT27Nlmw665RkVXujc2Qle6/BG6ELqc3IEIXQhdTm6smJwidMUEMqAbhK6AoGJqRkVXTCALdENFV4HA8jRH6MoDhtNeEUDo8mo6QieD0BUaXaSOfHUxEr7InfVBIV9djIwylIOS23VR28Frt5RQ1DzupIqiI444wrI85JBDzB588MFmVeml3eZUabRr1y67XlWFlPTKrVu3Wnv92LZtm71UhZQqrORPVufVTpVVQf1+/vnnFkf5Kr6vVp8MqbJr//33t1S1BoDmR59gH3bYYXZdAqav4wqa17x586ypKhKC9nPd7vrrr7cQp556qutQifq/5557LN4LL7yQaNyqgqkyQ/d5Ve3LX6eiqzyRZI/1oEZFV7LcFU3vn3Htuii/vn7VWflNnDjRXrZq1UqnsCVIYMSIETbqV1991avR6/nt3nvv9SovX5P5xS9+Yam9/fbbXqV49NFHWz7Dhw+PlBcVXZHwRe5MRVdkhJEcUNElJSMSxuidEbrKvtKI0BX9XgriAaELoSvIfRJXG4SuuEgG80NFVzBOcbeioiseoghd8XDEi1sCCF1u+SblHaErKdK5cajoyuWR9JE+KKSiK2nyZfFKrqJr2LBhNvLFixenQ5yoEAhAoHnz5taqQ4cOZr/zne+Y/d73vme2Xr16Zn3/8cc//tFS1K57vuR7ySWXWCoXXXSRLynFkoevlU/Tp0+38e23336hxunruBC6Qk1n5E4IXZERmoO33nrL7E033RSPw5i9aJcw/aMWs3vcZYSA7x9Qjx071kgefvjhGSGabJorV660gP379082cMBoeg7Uc2HAbns1o6JrLySJnqCiK1HcewWjosuTii6Err3uTU54SAChy+2k6IFGDzhuoyXn3VdBCKEruXvARSR9IslXF13Qrdqnq68uInRVzZ4W6RNA6Ep/DqJkgNAVhV70vvqgQB8cRPfopweErnTnBaErZaFL4bVLypYtW9K9I4gOgRAEVMnVpUsX6921a1ezHTt2DOHNfZcPP/zQgvTr1899sAIinHDCCdba10qGAoaS0/TSSy+1440bN+acT+ugZs2aFlr/qOi40Hx8FfCo6Cp0JuNpT0VXPBx37txpji6++GKzOo7He3Qv+ns3bdo0c6a1LqN7xkOWCLz55puW7pAhQ7xMW7ud66t5XiaZYlLjx4+36PPnz08xi/yh77rrLrt45JFH5m8U4AoVXQEgOWyC0OUQbgDXCF1SmgLActFE4RG6XNDFZ1IE9OCP0BWNOEJXNH5Be0vYQugKSszPdlR0pTsvriq6JGwhdKU7v0SvnABCV+V8fL+K0JXuDFHRlS5/PT+xRlc681Aya3R9+umnRrhXr17pkCYqBBwSaNeunXm/4IILzB533HFmtRi+w9CVutY/UspLgnOlnRK4qLWi9JW6BEI6DbF27Vrz37dvX6dxCnXerFkz63L//fcX2jWnPRVdOTgSP9CDGl9dTBy9BXQldGk0vi/pcNZZZ1mqvlUGix/WLQHt2q0PqrVbt9uowb3rOUu7L4bdXTh4xGy0XLVqlSWqtbm027ov2Tdo0MBSmTlzpll9MBc2Pyq6wpKLpx8VXfFwDOuFiq6U/8NF6Ap769IvCwQQugqbJYSuwniFbY3QFZacX/0QutKdD4QuhK5078B0oyN0pcs/bHSErrDk4u1HRVe8PAv1pucnKroKJRdP+5Kp6Prggw+M2NVXXx0PObxAwGMC7du3t+z0BtuqVatUs/3pT39q8Tdt2pRqHuWDT5482U61aNGi/KVMHf/ud7+zfPWG7kvy2jV05MiRkVKioisSvsid9T5CRVdklKEcuBa6fH3/ECxVWtxzzz12qk2bNrqELSECY8aMsdEuXLjQy1Frd+w77rjDy/ySSkp1DbfeequFfOONN5IKXVCcU045xdrfcMMNBfXL15iKrnxkkjlPRVcynPNFoaJL73z5CDk+j9DlGDDuvSKA0BVsOhC6gnEK2wqhKyw5v/ohdKU7HwhdZZtaIHSlex+mHR2hK+0ZCBZf/+4hdAXj5boVFV2uCVfuX89PVHRVzsnVVRUAtG7d2lUI81v9b298e5xGqMK574tZVpE+lyEQioA+Ce/evbv179Gjh9kaNWqE8he203XXXWdd33vvvbAunPT7yU9+Yn61GLOTIAk4HThwoEVZvnx5AtGChzjttNOs8TXXXBO8UwUtqeiqAEqCp/SgRkVXgtC/Fsq10LV582aLpl1bfVtLRyhUmSzBq06dOrqErYDA//zP/9hZ7TJ+0UUX2XHSf/8rSC3UKVVySfAK5SSBTvp7fPLJJycQzb8Qzz//vCU1ceJE/5L7Wka33HKLHXXu3PlrZ8O/pKIrPLs4elLRFQfF8D6o6ELoCn/30BMCIQkgdFUODqGrcj5RryJ0RSXoR3+ErnTnAaGrjD9CV2H3IUJXYbziao3QhdAV170Uhx8quuKgGN6Hnp+o6ArPMErPkqnoeumll4zT3XffHYUXfSGQaQLf/e53LX89iDVs2DCR8UyYMMHi/P73v08kXtAgTZs2tabTpk0zK2EwaP+026mCS/OZdj7l42uX227dupW/VNAxFV0F4Yq9sR7UqOiKHW0gh66FLiUxdOhQe+nrmjrKs2vXrvZywIABOoX9GoElS5bY0Z133mlWFXpHH320HWtNIm3K8rWuXr/Ubota81O7OvuWtJ6rxo8fb6k1b97ctxSd5POXv/zF/A4aNMjsjh07nMSJ6rRRo0bmQrtu165dO6pL609FVywYQzuhois0ulg6UtGVckUXQlcs9zFOMk4AoSt3AhG6cnnEfYTQFTfRdPwhdKXDXVERukSizCJ05fIof4TQVZ5IsscIXQhdyd5xlUejoqtyPq6v6vmJii7XpCv2XzIVXa+++qoRGDFiRMUkOAuBEiJw8MEH22j1++D6k91nnnnG4mnxd99Q9+vXz1I666yybex9y698PvrcYPDgwXZp2bJl5Zt4cazFaI899thI+VDRFQlf5M56UKOiKzLKUA6SErpefvlly++uu+4KlWfSnXr27GkhL7zwwqRDexlPFb563922bVuFeervvSq7VOlVYWMPT6pSav78+R5m91VKbdu2tQP9PtWrV++ri0X0Srtpq5JrzZo1Xo/u3HPPtfz69OkTa55UdMWKs2BnVHQVjCzWDlR06T+zWLEGd4bQFZwVLYufAEJX7hwjdOXyiOtI/3AhdMVFNB0/CF3pcFdUhC6RyLUIXbk8ELpyeaR9hNCV9gxUHB+hq2IuWT+L0JXuDCJ0pSx0LV261O4AVUCkezsQHQJ+ENDiviNHjrSEGjdu7CSx999/3/xee+21TvxHddqkSRNzcd9995l1xSFqnurv6x905Sf7wAMP2Et9RVTnC7VUdBVKLN72CF3x8izUW1JC15dffmmp9e3b1+zHH39caKqptL/sssss7o9//ONU4qcdVLuKDx8+3FLRWlZV5aXdF7UbozZnqV69elVdU73+7rvvWnxVpKWaTIDgHTt2tFb64CeuNaEChHbaZOvWreZ/yJAhZvWc5zRoBOe6rydNmmRe9IFvBJc5XanoysGR+IGvz8V6fuKri4nfEhawZL66iNCVzg1GVL8JIHSVzQ9Cl5v7FKHLDdekvepBja8uJk2+LB5CV+XcEbreNEAIXZXfJ2ldRehKi3xuXISuM3OBFNkRQle6E0pFV8oVXfqkwdeKknRvT6KXOoH27dsbAq0lEffug6oU0CfGvu7Go8X69cmrHox8uT9WrlxpqWgtjKCf3Cedvyq4JHRFjU9FV1SC0fojdEXjF7V3UkKX8nzsscfs5cMPP6xTmbDnnXee5SnhK+6/Y75B+N3vfmcpTZkyxWzUXQglyKhSat999/VtyDn5aLdhfWUz56KHB1oL7aabbrLstPufh6lWmpIqPbWrp3ZbrLSTBxc7depkWdx+++1OWnDzzgAANAJJREFUsqGiywnWwE4RugKjctIQoQuhy8mNhVMIxEEAoauMIkJXHHdTtWoIXfFw9MULQle6M4HQFYw/QtfOYKDytELoygMmptMIXTGBDOkGoYuKrpC3TqRuen7iq4uRMIbuXDJfXVTlQ48ePQzW7t27Q0OjIwSKlUC3bt1saL169XIyxKFDh5rfN954w4n/uJyeffbZ5uqKK64wm3Zl19q1ay0P8fN9V6OTTjrJ8lXlmR1E+EFFVwR4MXTVgxpfXYwBZggXSQtdW7ZssSy1Vle+3ftCDCWRLkcddZTFUWXS/vvvn0hc10E0D6rgUgVD3HG1K6MqpsQz7jhR/S1cuNBcjBkzJqqrRPu3aNHC4unvY5s2bRKNHzbY66+/bl216+WGDRvCukqln76xcOSRRzqJT0WXE6yBner9cNy4cYH7JNFQz08IXUnQ3jsGQtfeTDgDgZIlgNBVNvUIXdF+BRC6ovHzrbce1BC60pkZhK7CuEuYQegqjJtaI3SJhBuL0OWGa1VeEbqo6KrqHnFxXc9PCF0u6Fbts2SELqEYMGCAvczKd8qVNxYCSRBQ5ZLWXtBXGeKK/dvf/tZcTZ06NS6XTv2ceuqp5l9/qOrWres0XnnnWntkxIgRdikrn6CKV1x/2KnoKn9nJHus+UToSpa7oiUtdCnunDlz7OXMmTN1KlO2QYMGlm/Pnj3NnnXWWWa126Dvg9E3D55//nlLVfOwcePGRFIXJ62tqd0Z9ZyQSBKVBNGKKNddd5210lq8lXTx6pLWkOvevbvlpV1D69Wr50Weus9mzJhh+eg+FHcvkgyQRIcOHayVdhcP0CVUEyq6QmGLrRMVXbGhDOWINbo8eWdE6Ap1/9KpRAjoARahq2zCEbrC3fgSRhC6wvHzrZfmE6ErnZlB6ArHHaErHDf1QugSCTcWocsN1/JeEbquMiRnnklFV/l7I4ljPT/F9TycRM5hYiB0eSJ0TZ482ebvmWeeCTOP9IFASRBo1aqVjXPChAlm9cAbdfDarad3797mypO3hSqH1bx5c2ujNbu0aL2EwSodBGywefNma6lKClXA6ZP9gG5SayYe06dPtxzi2rWLiq7UptQC60ENoSudeUhL6Pr8889twFdeeaXZrFSU5pslvY/rK/rf//73rWmdOnXydUn0/NatWy3evHnzzOo5ddWqVYnmkS+YKrz1ldC43t/zxQt6/g9/+IM1ve2224J28bJdkyZNLK/zzz/f7GmnnWZW510nrbU/586da6H0/KH3AdfxXfkfPXq0udamS67iUNHlimwwv1R0BePkqhVClyf/0SJ0ubrF8VtMBBC6cmdT/yAhdOVyKX+E0FWeSHEcI3SlO48IXfHw1/s4Qlc4nghd4bgF7SVBC6ErKLFg7RC6qOgKdqe4aaXnJyq63PCtymvJrdGlNW+0m0xVgLgOgVIm4OoNesiQIYb1zTffzCReLSarT1y//e1v2zjatWtntqoKgXXr1lm7d955x+zixYvNLlq0yOwXX3xhNms/tH368OHDY02diq5YcRbsTO8DVHQVjC6WDmkJXUpelUX6oFDns27r169vQ+jSpUuO1fu5FmWPe5yqnNEudqpIWrJkiYXasWNH3CFj9Scueo7W4v+xBgnh7NZbb7Ve4hrChVdd9NXG73znO5aXrO5PPYcEXdNLu6muXLnS/C1dutSs7r8//elPduxJXYLlEuXH8ccfb931/BDFV5C+VHQFoeSuDRVd7tgG8UxFlyfvnAhdQW5X2kCgjID+wY37kwiELoSuQn7H9KC6bNmyQro5b/vUU085j+FDAL0PIHSlMxsIXW64I3SF44rQFY5bob0QugolltseoauMx1VXUdGVe2cke6Tnp7j/j0p2FFVHQ+jyROjSVN144432Up9g6DwWAhD4ikDTpk3t4P777zcb11pdL7zwgvm75557vgpWRK/0D1Tjxo1tVDt37jSrT1S//PLLIhrtV0ORIKUHzK+uRHslvwhd0TiG7a0HNYSusASj9Utb6NIagXpuUiVqtFH537tZs2aW5EEHHWT2G9/4hlm9r6uSplatWnZea2xpTaPPPvvMzq9evTrHbtu2zY6z/kPPAz169LChXHjhhWb1Ffakx6f3J+3CqL+7SeeRdDzdjw0bNswJrd9bPXds374953qxHqiifuLEiTZE/f66Hi8VXa4JV+6fiq7K+bi+itCF0OX6HsM/BGIngNAVDilCV9lXBsLR27sXQtfeTJI8g9CVJO29YyF07c0kiTMIXZVTRuiqnE9SVxG6ckkjdOXyoKIrl0fSR3p+oqIrafJl8UpujS5hVmWAvkKlTz50HQsBCHxFYPDgwXZw3HHHfXUywit90qrdFzdt2hTBG13TJqBKh6lTp1oq+gcorrwQuuIiGc6PHtRUMRHOS3y9vvWtb5mzMWPGxOf0b56uvfZa8/f+++/H6jeqs7SFLuWv+S+1ihmNH1s5gWOOOcYaaFdGLa5eea/4rz7xxBPm9KGHHorfOR69J3DppZdajt27d080Vyq6EsW9VzAquvZCkugJKro8q+hC6Er0/idYxgkgdGV8Ah2nj9DlGHDK7hG60p0AhK50+RM9GAGErmCcaOWWAEJXLl8qunJ5JH2k5ycqupImXxavZCu6hHvOnDn2cubMmTqFhQAEyhHQbj933HFHuSvRDh977DFz8PDDD0dzRO9UCbj+Q05FV6rTW03zq4qedLOpVo2KrnRn4PHHH7cEpk+fnm4iRPeSwCWXXGJ5XXTRRankp29o6O8Ga/GmMg2JB23btq3FHDt2rFkt5p9UIlR0JUW64jhUdFXMJamzVHR5VtGliUfoEgksBPITQOjKz4Yr1f4phLj6xEr/sKgS1xfm7LqYzkwgdKXDXVERukQCWxEBhK6KqHDONQGErooJU9FVMZekzuqDQlfPx0mNo6o4CF2eCl1Ka9y4cTaH2g2uqgnlOgRKiYDWXFLl1T777BPL8LX7VJ8+fcyfdqmKxTlOnBPQVxanTJlisVx9gorQ5XwqKw2gBzUquirF5OyiL19d1AC1a+zQoUPt1NKlS3UJW8IEOnbsaKNX5beeG9JC8tFHH1lorSmn54208iGuGwLa/XT8+PEWoEWLFm4CVeGViq4qADm+TEWXY8BVuEfokqJUBaikLysthK6kyRMvSwT0wIrQlaVZc58rQtdT7iF7EAGhK91JQOhKlz/RgxFA6ArGiVbxEkDoqpwnFV2V83F9Vc9PVHS5Jl2x/5Jfo0tYJHhpzQnt2qLrWAhAoFq166+/3jCceuqpseL4r//6L/P3wAMPxOoXZ24J3HjjjRbgxBNPdBqIii6neKt0rgc1KrqqROWkgW9Clwap3XL1d2H9+vW6hC0hAs2aNbPR6gPjuCq+40K4ePFiczV8+HCzet6Pyz9+0iWg95+4n0sLHRUVXYUSi7c9FV3x8izUGxVdnv9lUXoIXYXe2rQvJQKuHigQurJ5FyF0UdGVxp3LGl1pUN87JkLX3kxK8QxCVynOuj9jdvVcWugIEboKJRZve4SueHkW6g2hS0pSoeRSar9o0SKLfP/995v95JNPUsqEsBDwh8App5xiydxwww2xJqU1X66++mrzu2rVqlj94yxeAvqKyrBhw+J1nMcbFV15wCR0moquhEDnCeNrRZfSfe+99+ylhO+dO3fqEraICdSpU8dGd/fdd5tt166d16NlEwWvp6fg5M4//3zrc/nllxfc10UHhC4XVIP7ROgKzspFS4QuhC4X9xU+IZAoAYSuRHF7Gwyhq2xq2HUxnVuUiq50uOeLitCVj0xxn0foKu759X10CF3BZog1uoJxctVKHxSyRpcrwpX7ZY2uyvlU2759u7WYPXu22aefftosn1hWAY7LRUngwAMPtHH96le/cjI+7d41ZMgQ858xfdwJE5+catFX/eFo3rx5IulR0ZUI5rxB9KDGGl15ETm94HtFlwa/cOFCezl27FizvH+LTHFZ7a47cOBAG5jrNRrjpqe1xFQBErd//Lkl0KVLFwswePBgs9WrV3cbMKB3KroCgnLUTL/P+v12FKZgt3p+QugqGF0sHfT/SuvWrWPxl89J9b898OzJd9Hn8whdPs8OuSVNAKEraeJ+xUPoyp0PKrpyeSR1REVXUqQLi4PQVRivrLZG6MrqzBVH3ghdhc0jFV2F8Yq7NUJX3EQL84fQVRivalp89dlnn7WeqvDasGFDgZ5oDoHsEpgxY4Yl72p3Je2+qEXqs0uquDJP6w82FV3p3keadyq60pmHrFR0ic7zzz9vL++9916zGf2cU8PB/oOABC4t/n3SSSdlko3WBB09erTl//LLL2dyHKWWtJZMGDp0qA1dX531hQMVXenOBBVd6fJnja4iedJB6Er3F4nofhBA6PJjHpLOQoJH0iXYCF1Jz3RuPM07Qlcul6SOELqSIk2cygggdFVGh2uuCSB0hSNMRVc4bnH10vNT0s/NceUf1A9CV5EIXeUnfNeuXXZq8eLFZrVbo4711cfy/TiGQJYJ3HnnnZb+Mccc42QYX3zxhfnVGgzvvPOOkzg4DUbgX//1X63hddddF6xDzK0QumIGWqA7PaghdBUILqbmWRO6NOxnnnnGXk6ZMsVskT4GarhFa2vUqGFj027LWa3kKj9BVHaVJ+Ln8VFHHWWJ3XrrrWbr1q3rZaJUdKU7LVR0pcsfoatIn3AQutL9xSJ6OgQQutLhnlZUhK6KybNGV8VcXJ9ljS7XhOPxj9AVD8e0vSB0pT0DpR0foSva/FPRFY1f1N76oJCKrqgkw/Vnja5w3KrspV0ZH3/8cWurXRur7OhZg/r161tGsuW/E69PVmrXrp2Tuc7XqlUr5/yOHTvsWAKhLoqXrM7rEzdVxqnSR37UDpssgb59+1rAc845x2lgrX2nNUE++eQTp/Fwnkvg8MMPtxMjR440W/73P7e1uyMqutyxDeJZD2pUdAWhFX+brFZ0icRvf/tbezlt2jSzu3fv1iWsxwT0VUVV8p588skeZxs+NT1nsmZXeIYueh533HHmVrt7pvX8EXRsVHQFJeWmHRVdbrgG9UpFV5FWdOW7ASTYIHQhdOW7R7J8HqEry7MXPHeErspZUdFVOR9XV6nockXWjV+ELjdcXXtF6HJNGP+VEUDoqoxO8GtUdAVn5aKlPiikossF3ap9UtFVNaOCWqjiaM6cOdZPQpc+MSrIWYTGjRo1st6HHHJIjm3RooUdN2nSxKx2zdt3330rPF++UssaefBDnD/77DPLRlabBaxfv97OqwJIx6tWrbLzK1euNKv2dsCPwAS6detmbXv16hW4T5SGH3zwgXUfMmSI2c2bN0dxR98qCOh946677rKWjRs3rqKH28tUdLnlW5V3PahR0VUVKTfXs17RJSpLliyxl2PGjDG7detWXcJ6REDv9zfddJNlpa+OeZSik1RUaTh9+nTz/+STTzqJg9PKCZx99tnWQB+o6quzlfdK/yoVXenOARVd6fKnoqtEKrokwCB0uf2FE2cJXLISriRsIXS5mQeELjdcffGK0BVsJqjoCsYp7lZUdMVNNBl/CF3JcI4aBaELoSvqPRSlP0JXFHp796Wia28mSZ7RB4VUdCVJ/atYVHR9xSLSK+0KJ6CuP/lu27at5dupUyez+sStVatWdrzffvtFGk+pdJYwpvlbunSpDf3NN980+95775UKioLGqbU6tHZCQZ0jNNZ8aPedLVu2RPBG1/IE9P6hzQZ8eR+hoqv8TCV7rAc113/Xgo4KoSsoKT/brV692hIbMWKEWVVa+5lt6WR12GGH2WAHDRpktnnz5qUz+ApGOm/ePDs7adIks/qAtYKmnIpAQGtv9evXz7x07do1grf0ulLRlR77v0emoitd/lR0FXlFl4QShK50f9EKjY7QVSixsvYIXeG4+d4LoauwGaKiqzBecbVG6IqLZDp+ELrS4V5VVISuXEIIXbk8XB0hdLkiW+aXii63fKvyrg8KqeiqipSb69JlWrdu7SbAP7xW/5vOtcdphISda9e/mTNnWmT9w6Pv+MedzimnnGIuu3fvblb/kMYdB3+5BNasWWMnFixYYPa5554zu27dutyGJXbUoUMHG7F240t6+KosueOOOyx0qc9HVP5HHnmkudAaaFrjL6rfuPpT0RUXyXB+9KCm37twXuLrhdAVH8s0PW3bts3Ca02kZ5991o6L7HExTcSVxtbaR+edd56169mzp9nyu2VX6qQELuqD7PHjx9toP/zwwxIYtfshaokE7ardpk0b90EdRqCiyyHcAK6p6AoAyWETKrqK7MkFocvhb4tHrhG6Kp4MhK6KuWT1LEJXuJnTBxzhemenF0JXunNVLIvRl6eI0FWeSLLHCF3BeCN0BeNUaCuErkKJhWtPRVc4bnH10vMTFV1xES3MDxVdhfGqpjWcJk6caD0/+uijAj0Ea37AAQdYQ/2CHHvsscE60sopAe2eqZL22bNnW7yPP/7YaVzfnOuTN/0DllZ+GzZssNBjx441q7XV0sona3G16Gvv3r0tdV8/yaeiK907S3+HqOhKZx70Pqv33XSycB/1rbfesiBaE8mX+839yJONoPuof//+Frhdu3bJJpDRaPqA+9e//rWN4De/+Y3ZIvsc39ns1KxZ03yfc845ZlVBqK8uOguckGMquhICnScMFV15wCR0moquIvlLgNCV0G+Mp2EQusomRg/K+gcsrelC6IpGHqErGj8quqLxC9ubry6GJed3P4SuZOZHf78RugrjjdBVGK/yrRG6yhNJ5piKrmQ454uiDwqp6MpHyO15Krqq4Lt9+3Zr8dBDD5l1vYZE+/btLc7QoUPNaptnO+CHdwS2bt1qOU2dOtWsPlHwLtGYEzr44IPN43333Rez53DupKM/9thj5uCRRx4xyy5JuTy1i6J2Nzr++ONzG3h6REVXuhOjBzVfKmwQutK9H1xH1/u2KmaefPJJC6nNY1zHLzb/et+/+OKLbWg/+MEPzOqri8U23qTGs2zZMgt1//33m9Wu0EnFz0qcY445xlLt06ePWX1lMSv5B82Tiq6gpNy00/9f48aNcxMgpFc9PyF0hQQYsRtCVxUAEbqqAFTilxG6ELqy9Cugf3gQuuKZNSq64uFYqBeErkKJZas9Qle886X3fYSueLkidAXjidAVjJOrVlR0uSIbzC9CVzBOrlohdOUhu2TJEruitSLWr1+fp2U8pzt37myOBg0aZLZu3brxOMZLogTmzJlj8bQbZ6LBEwzWrFkzi6ZPMhMMHSiUNhH41a9+Ze1fffXVQP2KrZHWvjjzzDNtaD169DDboEGDTA2Viq50p0sPalR0pTMP+oq4vnKWThbpRdVXxubOnWtJqMLrk08+SS8pjyPr7/OPfvQjy1IVXPXq1fM46+ymporyl156yQah579Vq1Zld1ARMtfmNj/5yU/MS8eOHSN4y05XKrrSnSsqutLlzxpd+kuQ7jwEjo7QFRgVDb9GAKHrazBSfInQVQYfocvtTUhFl1u++bxT0ZWPTHGeR+gqbF4RugrjFbW1/r1B6CojidB1Z9RbKtb+VHTFirNgZ/qgkK8uFowulg5UdP0D42effWavVKGiXfVioVyJE5X03nbbbdZKizVW0oVLGSAwY8YMy/LRRx/NQLaFp6ivQkyfPr3wzin0WLFihUV94oknzOqBdPfu3Slk4y5kw4YNzflpp51m9vzzzzerXVzdRXbrmYout3yr8q4HNSq6qiLl5nqpV3SVp6qvNr7yyit26YUXXjCrDyh37dpVvktRHmuNrU6dOtn4VLmlbwjwPJnOtOu5YtGiRZbAc889Z/aPf/yjWQlj6WQXX1R9kHbCCSeY07POOsus1hqOL1I2PFHRle48UdGVLn8qujx/Z0foSvcXpNiiI3T5NaMIXQf4NSEFZoPQVSCwmJsjdMUMtEB3CF25wBC6ynggdOXeF74cIXSVbarly3wklQdCV1KkK46D0FUxl6TOInR5KnS9/PLLdg9MmTLF7IYNGxK5J7Rr3ZgxYyyeKjESCU4Q5wT0oDNkyBCLpUVLnQdOKMCBBx5okbQGVkJhYwvz6aefmq+FCxfm2HfffdeOPX27+uf49UmqKkL1ieqJJ55obVjj75+oeBEDgY8//ti8+FIpU7t2bcsn7krF5cuXm19tQhMDulhcHH744eanfv36sfgrVidbtmyxoalid/HixXb8pz/9yayuZ238WlurQ4cOlnqXLl3MHnfccWabNGmStSGVZL5aUuH3v/+9jf+1114z+5e//MWsr88dtWrVsvy01pZ2a5Zld3jDU03/P7711ltlJzz52bZtW8ukefPmnmTkJo3PP//cHG/cuNFNgJBe99lnH+uZtbVxCx2u1jL/8MMPC+3qtL2WutDfUVfBqv/tDXyPK+dR/CJ0RaFH33wEELrykfHjPEKXH/NAFtkggNCV7jwhdAXjLyELoSsYL1olSwChK1neSUdD6EqaeG48hK5cHkkfIXR5InRt2rTJ5n7q1KlmX3zxxUTvBSmK+irCN7/5zUTjEyxZAh988IEFHDBggFlPfg0iQzjooIPMh36PIjv0xIH+UVq6dKllpEqAP//5z3as+XT1iVH16tUtjhYTbtmypR0fdthhZo844gizWgND7yd2kh8QgAAEILAXAf3d1RpzqrBWBe9HH31kfdauXWtWuzmq314OYzqhtS71Pt+iRQvzfMghh5hVJYbe/1lzKybwnrnR/yWvv/66ZabnD92v2r1x8+bNsWZe/nmj/H2nReWTqoiIdXA4gwAEIJAgAW8quvQHRf+gI3QleBeUYCgJIwhd2Zh8hK5szBNZQgACEAhKQIKVhAOErqDkaJcEAf1fgtCVBG1iQAACEIifQOpCl3blmTZtmo0u7k9GgiK7/PLLral2Qwvaj3bZJjBq1CgbgHbhyfZoqlVr1aqVDWHixIlZH0qo/LXdvT75V8n6tm3bzN/OnTtzrBYN1loXWmNI393XJ/uyWoMrVHJ0ggAEIACB0AS02P26devMhz4A0fv+1q1b7bza6Sszel9Xpa3WXtXaajq///77W/9GjRqFzpGOpUdA96HuS22ipftSawvqWPefnj+0lpueM7TGIc8bpXcvMWIIQCBeAghd/+CJ0BXvjZUVbwhdWZmpYHnqQRKhKxgvWkEAAhDICgEJWBIUJDDofR+hKyszWVx56j7UfYnQVVzzy2ggAIHsEkhc6FKFhXZT1KLzaSFs3bq1hR4/frxZ1lpIaybSievrtsNhaWj3p5EjR4Z1QT8IQAACEIAABCAAAQhAAAIQgEBmCSB0IXRl9uaNI3GErjgo4gMCEIAABCAAAQhAAAIQgAAEIOAHgcSErgULFtiIJ0+ebFYl5mljGDZsmKXQsWPHtFMhfgoEdu3aZVF79uxpVms5pZBKLCGPP/5483PzzTfH4g8nEIAABCAAAQhAAAIQgAAEIACBLBFA6ELoytL9GnuuCF2xI8UhBCAAAQhAAAIQgAAEIAABCEAgNQLOha45c+bY4GbNmmVW20mnNuJ/BD788MPt1dixY9NOhfgeELj99tstiyVLlniQTfgUzjjjDOv885//PLwTekIAAhCAAAQgAAEIQAACEIAABDJKAKELoSujt268aSN0xcsTbxCAAAQgAAEIQAACEIAABCAAgTQIOBO6Fi5caONRxZQvlVyCrDWMtKaRzmNLk8CMGTNs4I8++mimAVx66aWWf/fu3TM9DpKHAAQgAAEIQAACEIAABCAAAQiEIYDQ9Y/Fu8PAo0/xEEDoKp65ZCQQgAAEIAABCEAAAhCAAAQgULoEYhe6Nm3aZDT79etn1pfdFTXFTZo0sZfTp083W6NGDV3CljAB7QqqCsSsohg0aJClftJJJ2V1COQNAQhAAAIQgAAEIAABCEAAAhAITQChC6Er9M1TTB0RuoppNhkLBCAAAQhAAAIQgAAEIAABCJQqgdiFrnvvvddYPvfcc14yPf300y2v/v37e5kfSaVDYOnSpRZ48ODB6SQQU9R77rnHPB122GExecQNBCAAAQhAAAIQgAAEIAABCEAgOwQQurIzV2TqkABCl0O4uIYABCAAAQhAAAIQgAAEIAABCCREIDaha8OGDZZy7969ze7atSuhIRQW5vbbb7cOnTp1KqwjrYuawIcffmjj09pyWRus1pqbM2eOpV63bt2sDYF8IQABCEAAAhCAAAQgAAEIQAACkQkgdEVGiINiIIDQVQyzyBggAAEIQAACEIAABCAAAQhAoNQJxCZ0zZ4921jK+ga2Zs2altKjjz5qtnbt2r6lSD4pElBF4mWXXZZiFuFDt2jRwjpPnjw5vBN6QgACEIAABCAAAQhAAAIQgAAEMk4AoSvjE0j68RBA6IqHI14gAAEIQAACEIAABCAAAQhAAAJpEohN6LrqqqtsHKtXr05zPHljH3rooXZtwoQJedtwoXQJbN261Qbfo0ePTEI4+eSTLe+BAwdmMn+ShgAEIAABCEAAAhCAAAQgAAEIxEEAoSsOivjIPAGErsxPIQOAAAQgAAEIQAACEIAABCAAAQhUiyx0rVy50jD279/fa5xdu3a1/AYMGOB1niSXDoEdO3ZY4AsuuCCdBCJGVUXlmWeeGdET3SEAAQhAAAIQgAAEIAABCEAAAtklgNCV3bkj8xgJIHTFCBNXEIAABCAAAQhAAAIQgAAEIACBlAhEFrqefvppS33KlCkpDSFY2H//93+3huedd16wDrQqKQKbNm2y8f70pz/N5LgnTZpkebds2TKT+ZM0BCAAAQhAAAIQgAAEIAABCEAgDgIIXXFQxEfmCSB0ZX4KGQAEIAABCEAAAhCAAAQgAAEIQCD6Gl3jxo0zjP/7v//rNc5rrrnG8jvttNO8zpPk0iHw0UcfWeArr7wynQRCRt1///2t54MPPmi2evXqIT3RDQIQgAAEIAABCEAAAhCAAAQgkH0CkSu6ELqyfxMwgmrVELq4CyAAAQhAAAIQgAAEIAABCEAAAtknEFnoUqXUn//8Z69pDB482PI77rjjvM6T5NIhsGLFCgt8/fXXp5NAyKinn3669fR919OQw6MbBCAAAQhAAAIQgAAEIAABCECgIAIIXQXhonGxEkDoKtaZZVwQgAAEIAABCEAAAhCAAAQgUEoEIgtdF110kfHavn2719xGjBhh+R111FFe50ly6RB48cUXLfDo0aPTSSBk1FtuucV6du7cOaQHukEAAhCAAAQgAAEIQAACEIAABIqHAEJX8cwlI4lAAKErAjy6QgACEIAABCAAAQhAAAIQgAAEPCEQWujasmWLDeGSSy7xZCiVpzFs2DBr0LFjx8obcrUkCcyaNcvG/cgjj2Ri/I0aNbI8p0+fbrZ27dqZyJskIQABCEAAAhCAAAQgAAEIQAACLgkgdLmki+/MEEDoysxUkSgEIAABCEAAAhCAAAQgAAEIQCAvgdBC1/r1681p79698zr36cLNN99s6Rx//PE+pUUunhC46667LJOXX37Zk4wqT+OMM86wBj//+c8rb8hVCEAAAhCAAAQgAAEIQAACEIBACRFA6CqhyWao+QkgdOVnwxUIQAACEIAABCAAAQhAAAIQgEBWCIQWuv7617/aGLNSUTJgwADLt2vXrlmZG/JMgMCePXssyqWXXmp206ZNCUSNHmLUqFHm5IgjjojuDA8QgAAEIAABCEAAAhCAAAQgAIEiIYDQVSQTyTDCEUDoCseNXhCAAAQgAAEIQAACEIAABCAAAR8JhBa6Vq9ebeO56qqrfBzXXjl1797dzqlyZ68GnChJAsuXL7dxDxw4MBPjP/TQQy3PCRMmZCJfkoQABCAAAQhAAAIQgAAEIAABCCRJAKErSdrE8o4AQpd3U0JCEIAABCAAAQhAAAIQgAAEIACB0ARCC10bN260oFmpkOrcubPle8stt4SGRcfiIzBr1iwb1COPPJKJwfXv39/yPP300zORL0lCAAIQgAAEIAABCEAAAhCAAASSJIDQlSRtYnlHAKHLuykhIQhAAAIQgAAEIAABCEAAAhCAQGgCoYWunTt3WlCtfRU6g4Q6Nm3a1CI98MADCUUkjM8EtAh93759Lc1169b5nG61/fbbz/KbNm2a2Tp16nidL8lBAAIQgAAEIAABCEAAAhCAAATSIIDQlQZ1YqZOAKEr9SkgAQhAAAIQgAAEIAABCEAAAhCAQOwEQgtdyqRbt272cteuXTrltZ04caLl16pVK6/zJDm3BP7v//7PAtx5551uA8XkvXfv3ubpRz/6UUwecQMBCEAAAhCAAAQgAAEIQAACECg+AghdxTenjCgAAYSuAJBoAgEIQAACEIAABCAAAQhAAAIQyBiByELXz372MxvyqlWrMjH0Xr16WZ6qRMtE0iQZO4Hbb7/dfC5ZsiR233E6ZG2uOGniCwIQgAAEIAABCEAAAhCAAASKnQBCV7HPMOOrkABCV4VYOAkBCEAAAhCAAAQgAAEIQAACEMg0gchC16hRowzAokWLMgGiZcuWlue9995rtnr16pnImyTjIbB06VJzNHjw4HgcOvYyYMAAi9C1a1fHkXAPAQhAAAIQgAAEIAABCEAAAhDIPgGELoSu7N/FBYwAoasAWDSFAAQgAAEIQAACEIAABCAAAQhkjEBkoWv27Nk2ZNmsjH/YsGGWaseOHbOSMnlGILBnzx7rfcMNN5hdsWJFBG/uu7Zp08aCjB8/3iyVh+6ZEwECEIAABCAAAQhAAAIQgAAEsk8AoQuhK/t3cYARIHQFgEQTCEAAAhCAAAQgAAEIQAACEIBAxglEFrpeeeUVQzBy5MhMoejUqZPlq0XJM5U8yRZM4Nlnn7U+9913X8F9k+ygyi2tfde+ffskwxMLAhCAAAQgAAEIQAACEIAABCCQaQIIXbffnukJJPlgBBC6gnGiFQQgAAEIQAACEIAABCAAAQhAIMsEIgtd27Zts/H37NnT7K5duzLF47bbbrN8v/vd72Yqb5INRmDNmjXW8JprrjG7ffv2YB1TanXOOedY5L59+6aUAWEhAAEIQAACEIAABCAAAQhAAALZJYDQhdCV3bs3QOYIXQEg0QQCEIAABCAAAQhAAAIQgAAEIFAkBCILXeIwdOhQe/nGG2/oVCZsy5YtLc9f/vKXZmvXrp2JvEmycgKqLLzpppus4fLlyyvvkPLV5s2bWwb/8R//YbZevXopZ0R4CEAAAhCAAAQgAAEIQAACEIBA9gggdCF0Ze+uDZAxQlcASDSBAAQgAAEIQAACEIAABCAAAQgUGYHYhK7f/OY3hmbatGmZRPTDH/7Q8r7iiisymT9JlxHYs2ePvZgwYYLZefPmeY2mZs2alt/dd99t9lvf+pbX+ZIcBCAAAQhAAAIQgAAEIAABCEDAZwIIXf+YHYQun2/T4LkhdAVnRUsIQAACEIAABCAAAQhAAAIQgECxEYhN6Pr000+NTZ8+fczqq2NZA6Y1nU444YSspU6+fyMwa9Ys4/DII49kgkevXr0sz27dumUiX5KEAAQgAAEIQAACEIAABCAAAQj4TAChq9zsIHSVA5KxQ4SujE0Y6UIAAhCAAAQgAAEIQAACEIAABGIkEJvQpZzGjx9vL+fPn69TmbJ16tSxfO+44w6zRx55ZKbyL9VkH3/8cRv69OnTM4FAFYM33nij5Vu9evVM5E2SEIAABCAAAQhAAAIQgAAEIAABnwkgdJWbHYSuckAycojQlZGJIk0IQAACEIAABCAAAQhAAAIQgIBDArELXe+//76le+211zpM273rBg0aWJDhw4ebbdeunfugRAhMQIvOq4LriSeeCNw3zYZt27a18NplsW7dummmQ2wIQAACEIAABCAAAQhAAAIQgEBREUDoyjOdCF15wHhyGqHLk4kgDQhAAAIQgAAEIAABCEAAAhCAgEcEYhe6NLbbbrvNXv7hD3/QqUzaevXqWd6/+MUvzB577LGZHEexJP3555/bUCZOnGh24cKFmRjaN77xDctz9OjRZvfbb79M5E2SEIAABCAAAQhAAAIQgAAEIACBLBFA6KpithC6qgCU8GWEroSBEw4CEIAABCAAAQhAAAIQgAAEIJAhAs6Err/+9a+GYcCAAWa//PLLDGHZO9UaNWrYycsvv9zsueeea5bd8vZm5eKM7ietbaVjF7Hi9NmkSRNzN2rUKLPf/OY343SPLwhAAAIQgAAEIAABCEAAAhCAAAS+RgCh62swKnuJ0FUZHffXJGwhdLlnTQQIQAACEIAABCAAAQhAAAIQgEBWCTgTugTkwQcftJdPPvmkThWF7dixo43jmmuuMdu0adOiGJcvg1AF4NNPP20p/frXvzarry76kme+PLQG15133mlNWrVqla8p5yEAAQhAAAIQgAAEIAABCEAAAhCIiQBCV0iQCF0hwQXshtAVEBTNIAABCEAAAhCAAAQgAAEIQAACEPgnAedC1/bt2y1Y//79za5fv/6fwYvhRaNGjWwYF154odkf/vCHZmvVqlUMw0t8DEuXLrWYU6dONfvBBx8knkOUgAcddJB1HzZsmNlmzZpFcUdfCEAAAhCAAAQgAAEIQAACEIAABAoggNBVAKyKmiJ0VUQl/DmErvDs6AkBCEAAAhCAAAQgAAEIQAACECh1As6FLgFevny5vbz55pvNfvHFF7pUVLZ58+Y2nosvvtjsSSedZLZmzZpFNc64BvP222+bq5kzZ5p944034nKdqB+twaU1ubRGV6JJEAwCEIAABCAAAQhAAAIQgAAEIFDiBBC6Yr4BELoKA4rQVRgvWkMAAhCAAAQgAAEIQAACEIAABCCQn0BiQpdSePbZZ+3lfffdp1NFbbUb49lnn23j7Nq1q9kmTZoU9bjLD04VfC+99JJd0n2wbNmy8k0zddy+fXvLd+jQoWYbN26cqfxJFgIQgAAEIAABCEAAAhCAAAQgUEwEELoczyZCVxlghC7HNxruIQABCEAAAhCAAAQgAAEIQAACEKiWuNAl5pMmTbKXc+fO1amSsDVq1LBxduzY0azW8Pre975nx1mv9JKgpUXlX3vtNRvXggULzG7ZssVs1n+cfvrpNoQrr7zSbO3atbM+JPKHAAQgAAEIQAACEIAABCAAAQhkngBCV8JTiNCF0JXwLUc4CEAAAhCAAAQgAAEIQAACEIBAyRBITejas2ePQZ4wYYLZefPmlQz0igZavXp1O33IIYeYPfroo81qDSjt6teiRQs7n9Yujtu3b7f4K1asMPvuu++a1aLyr7/+uh1//vnnZovlR506dWwoffv2NXvGGWcUy9AYBwQgAAEIQAACEIAABCAAAQhAoGgIIHR5MpUIXZ5MRJ40ELrygOE0BCAAAQhAAAIQgAAEIAABCEDAIwKpCV1ioMquX/7yl3Zq/vz5uoStgECtWrXsrCq7tNj9vvvua+d1XL9+fTtu2LChWQlpOlbF1a5du+z6Z599Znbnzp1m165da3bdunU5dv369XasebODIv5x6KGH2ugGDhxotmXLlkU8WoYGAQhAAAIQgAAEIAABCEAAAhDINgGErozNH0JXshOG0JUsb6JBAAIQgAAEIAABCEAAAhCAAASiEEhd6FLyu3fvtpcPPvig2f/+7//WJSwEEiOgryh269bNYl5wwQVm2VUxsSkgEAQgAAEIQAACEIAABCAAAQhAIDQBhK7Q6OhYjAQQuopxVhkTBCAAAQhAAAIQgAAEIAABCJQKAW+ErvLAFyxYYKcmTpxodseOHeWbcAyB2AgcddRR5qtfv35mWYsrNrQ4ggAEIAABCEAAAhCAAAQgAAEIJEYAoSsx1ATymQBCl8+zQ24QgAAEIAABCEAAAhCAAAQgAIFgBLwVupT+ihUr7OXo0aPNrlmzRpewEAhN4IADDrC+ffr0MXviiSeG9kVHCEAAAhCAAAQgAAEIQAACEIAABPwggNDlxzyQRcIEELoSBk44CEAAAhCAAAQgAAEIQAACEIBAAgS8F7rEQGt0zZw500499dRTZrVbo9phIVARgcaNG9vpc889N8fWr1+/ouacgwAEIAABCEAAAhCAAAQgAAEIQCCDBBC6MjhppFw4AYSuwpnRAwIQgAAEIAABCEAAAhCAAAQgkDUCmRG6yoN999137dSkSZPMvv/+++WbcFzCBPbdd18b/XnnnWf2rLPOMluvXr0SpsLQIQABCEAAAhCAAAQgAAEIQAACxU0Aoau457dkR4fQVbJTz8AhAAEIQAACEIAABCAAAQhAoIQJZFbo0pzt2bPHXr744otmZ82aZXb16tVqgi0BAk2bNrVRnn/++WbPOOMMs3Xq1CmB0TNECEAAAhCAAAQgAAEIQAACEIAABP5OAKGL+6AoCCB0FcU0MggIQAACEIAABCAAAQhAAAIQgEAkApkXusqPXrswzp8/3y49/vjjZletWlW+KccZJFC7dm3LukuXLma///3vm+3UqZPZGjVqmOUHBCAAAQhAAAIQgAAEIAABCEAAAqVHAKGr9OY80yNG6Mr09JE8BCAAAQhAAAIQgAAEIAABCEDAKYGiE7ry0VqxYoVdmjt3rllVfO3cuTNfF857QKBly5aWhSq3unbtasdNmjTxIDtSgAAEIAABCEAAAhCAAAQgAAEIQMAnAghdCF0+3Y975YLQtRcSTkAAAhCAAAQgAAEIQAACEIAABCCQh0DJCF3lx79x40Y7tXDhQrOvvPKK2WXLlpnVWl92wA9nBOrWrWu+O3ToYFZrbcm2aNHCWWwcQwACEIAABCAAAQhAAAIQgAAEIFBcBBC6ELpSvaMRulLFT3AIQAACEIAABCAAAQhAAAIQgEBREShZoSvfLG7evNkuvfbaa2YXL15s9q233jK7adMms/wIRqBmzZrW8JBDDjF7zDHHmFXF1hFHHGHHderUMcsPCEAAAhCAAAQgAAEIQAACEIAABCAQlgBCVzlyCF3lgEQ8ROiKCJDuEIAABCAAAQhAAAIQgAAEIAABCAQmgNAVGFVZw9WrV9uLt99+26wqvd577z071vUdO3aUdSjSn6rAUqVW27ZtbaRt2rQxq+PWrVvbsdrbAT8gAAEIQAACEIAABCAAAQhAAAIQgIADAghdBUKVkIXQVfZVQ4SuAm8gmkMAAhCAAAQgAAEIQAACEIAABCDgjABCV8xo9+zZYx7Xr19vdtWqVTl27dq1dqyvSH766ad2rLW/ylu7GMOPWrVqmZd69eqZVYVV48aN7fjAAw8027RpU7MHHHBApeebN29u1/XVRDvgBwQgAAEIQAACEIAABCAAAQhAAAIQSJEAQlfM8BG6YgaKOwhAAAIQgAAEIAABCEAAAhCAAAQgEJAAQldAUGk12717t4Xetm1bTgpbt261YwlrutioUSN7WaNGDbMNGjTQJSwEIAABCEAAAhCAAAQgAAEIQAACEChqAghdnk8vQpfnE0R6EIAABCAAAQhAAAIQgAAEIAABCHhDAKHLm6kgEQhAAAIQgAAEIAABCEAAAhCAAAQgAIEoBBC6otCjLwQgAAEIQAACEIAABCAAAQhAAAIQgIA3BBC6vJkKEoEABCAAAQhAAAIQgAAEIAABCEAAAhCIQgChKwo9+kIAAhCAAAQgAAEIQAACEIAABCAAAQh4QwChy5upIBEIQAACEIAABCAAAQhAAAIQgAAEIACBKAQQuqLQoy8EIAABCEAAAhCAAAQgAAEIQAACEICANwQQuryZChKBAAQgAAEIQAACEIAABCAAAQhAAAIQiEIAoSsKPfpCAAIQgAAEIAABCEAAAhCAAAQgAAEIeEPg/wG1D+QmScuklAAAAABJRU5ErkJggg==;" vertex="1" parent="1">
          <mxGeometry x="638.87" y="340" width="93.35" height="79" as="geometry" />
        </mxCell>
        <mxCell id="uCTicKS0ZdumBR-8Xd1L-44" style="edgeStyle=orthogonalEdgeStyle;rounded=0;orthogonalLoop=1;jettySize=auto;html=1;exitX=0.25;exitY=0;exitDx=0;exitDy=0;fontSize=14;strokeColor=#EA6B66;strokeWidth=3;" edge="1" parent="1" source="uCTicKS0ZdumBR-8Xd1L-24" target="uCTicKS0ZdumBR-8Xd1L-22">
          <mxGeometry relative="1" as="geometry" />
        </mxCell>
        <mxCell id="uCTicKS0ZdumBR-8Xd1L-45" style="edgeStyle=orthogonalEdgeStyle;rounded=0;orthogonalLoop=1;jettySize=auto;html=1;entryX=0.75;entryY=0;entryDx=0;entryDy=0;fontSize=14;strokeColor=#97D077;strokeWidth=3;" edge="1" parent="1" target="uCTicKS0ZdumBR-8Xd1L-23">
          <mxGeometry relative="1" as="geometry">
            <mxPoint x="709" y="300" as="sourcePoint" />
          </mxGeometry>
        </mxCell>
        <mxCell id="uCTicKS0ZdumBR-8Xd1L-24" value="" style="shape=image;verticalLabelPosition=bottom;labelBackgroundColor=default;verticalAlign=top;aspect=fixed;imageAspect=0;image=data:image/jpeg,/9j/4AAQSkZJRgABAQAAAQABAAD/2wBDAAYEBQYFBAYGBQYHBwYIChAKCgkJChQODwwQFxQYGBcUFhYaHSUfGhsjHBYWICwgIyYnKSopGR8tMC0oMCUoKSj/2wBDAQcHBwoIChMKChMoGhYaKCgoKCgoKCgoKCgoKCgoKCgoKCgoKCgoKCgoKCgoKCgoKCgoKCgoKCgoKCgoKCgoKCj/wAARCAHlAmwDASIAAhEBAxEB/8QAHAABAAMBAQEBAQAAAAAAAAAAAAYHCAUEAwIB/8QAVRAAAQMCAgMHDQwIBAUFAQAAAAECAwQFBhEHITESExdBUYGRFBUjNkJUVWFxdJOk0wgWIjJmobGywdHS4zM1N1JzlLPCJGKC8ENTg5LhREVyouKj/8QAGwEBAAIDAQEAAAAAAAAAAAAAAAMEAQIGBQf/xAA6EQEAAQICBggEBgMAAQUAAAAAAQIDBBEFEhMhMVEUFTJBU3GR0WGBscEzNEJSofAGIuEWNWNygsL/2gAMAwEAAhEDEQA/AIuACg+XgAAAAAAAAAAAAAAAAAAAAAAAAAAAAAAAAAAAAAAAAAAAAAAAAAAAAAAAAAAAAAAAAAAAAAAAAAAAAAAAAAAAAAAAAAAAAAAAAAAAAAAAAAAAAAAAAAAAAAAAAAAAAAAAAB16fDl8qYGy09nuU8L0zbJHSvc1U5UXIN6LdVfZjNyAdz3qYi8A3X+Sk+4+b8MX+JjnyWO6MY1M3OfSyIiJ0Gcpb9Huftn0ccAGEID226219xkey30dRVvambkghdIqJ48j3+9TEXgG6/yUn3GcplLTZrqjOmJlwwe2422vt0jGXCjqKR70zak8L41VPFmeIw0qpmmcpAAGoDvWrCV+uiNWhtFXIxyZte+PcRqnic7JFOsmjDGC/wDtC/zMP4jOrPJZpwd+uM6aJmPKULBLazR9iqjjV81mqFRP+SrJV6GqpG6yjqaGZYaynmp5U2xzMVi9CjKY4tLmHuW+3TMecPMAfelppqydsFLFJNNJqbHE1XOXyIhhFEZzlD4A7nvUxF4Buv8AJSfcfObDd8ghfLPZrnFExquc+SleiNRNqquWwzlPJL0e5+2fRxwDo2+zXO5se+326sqo2rk58ED5EReT4KGEdNE1zlTGbnA7nvUxF4Buv8lJ9w96mIvAN1/kpPuM5Sk6Pd/bPo4YPtU081LPJBUxSQzRrk6ORqoqL40U+JhFMZTlID7UtPPV1DIKaGSaaRcmxxtVVVfEiHW96mIvAN1/kpPuGWbem1XVvpjNwwdStsV2oIN+rrXX00OaJvk9O+NM/KqHloaKqr594oaaaqmVN1vcLFcuXkQbybVUTqzG95Qdz3qYi8A3X+Sk+4/nvUxD4Au/8nJ9xnKW3R7v7Z9HEABhCA9tvttdcpHst9HVVb2Jm5sMT5FROY9/vUxF4Buv8lJ9xnKZSxZrqjOImfk4YO0uF8QNRVfYrsiJrVVo5PuOKYa126qO1GQAA0AAAAAAAAAAAAAAAAAAAAAAAAAAAAAAAAAAAAAAAAAAAAAAAAAAANWaO+0axeaR/QZTNWaO+0axeaR/QTWeMuh/x38avy+6Sn8VM0yU/oLLr2W9JOHfe3iiogiYraKbs1OvEjV7nmXNOgiRpXSzhzr/AIWe+CPd11FnNCiJmr07pnOnzohmoqXKdWXBaWwnRr8xT2Z3wtr3PX66u3m7Prl7lEe56/XV283Z9cvcntdl02g/ydPnP1UR7oX9d2nzd/1ypS2vdC/ru0+bv+uVRHG+WRGRor3vXJGomtVILvalzGlozxlfn9nZwnhuuxPc0pLe3JE1yzP+LE3lX7jQWEMC2bDkcboqZtRXImurmTN2f+VO55ulT04Bw3DhjD8NIiN6qkykqX7d1Iv2JsQlRPbtxTGc8XS6N0XRh6IruRnX9AETxjjS14WjY2te6WqembKaHW5U5V5EK7m02VDnpvVliYzjR9Qqr9CGaq6ad0rd/SWGw9Wpcq3/ADleByMQ9QNs1VNd4Ip6KCNZZWSsRyKjUz2KVnQ6aqZ8ipX2eeKP96CZJF6FRv0nn0o49t12wtHRWSp311XJlMitVqsa3XkufKuXQpja05Zwgu6Vw1VqqqiqJyjhz+Uqgq5Wz1UszImQsker0iZsbmuxCTaKv2gWX+K76ikSJboq/aBZf4rvqKVqeMOOwk54iifjH1akOFjXtNv3mE/9Nx3ThY17Tb95hP8A03FyrhL6Bf8Aw6vKWSy+/c99rl087/sQoQvv3Pfa5dPO/wCxCra7TjdB/nI8p+i1gAW3cKN064c3mrgv9Kz4E2UNTlxPT4rudNXMnKVAa8v9qp73aKu3VSdhqGK1VRNbV4lTxousyhdrdUWq51VDVN3M9O9Y3Jl86eIq3qcpz5uN05g9le2tPCr6u1o17fbJ5whqoyro17fbJ5whqoks8Hpf49+BV5/aFd6c+0OXziP7TP8AabhUWq5QV1E/cTwSJI1eLPkXxGgNOfaHL5xH9pnI0vdp5mnappxcTHHKGtcLXunxDZKa5UqfAlT4bONjk2t6TuGbtEeLPe/fOo6yTK21qo16quqKTid9i/8Ag0iTW69aHR6NxsYuzrT2o4/34s5aY8L9ZL+tfTMVKGvVZEyTVHL3Sc+1OfkK7NYYwsMGJLDU2+bctc5N1C9U+JImxf8AfEqlJaLsIS3HF8rblCrae1SZzNfxyouSN6UVebxkNy3/ALbu9z2ktGVdKiLUbq/45+60tE2Gfe9hlklRGja+tymmzTWxO5ZzJ86qTwHJxDdqexWequNYvYoG57lNrl4kTxqpYiIpjJ1Vq3RhbUUxuimFf6a8VdbrYllon7mrrG5yqncw60y5/ozKEPfe7nU3m61Nwrnbued+7XLYnIieJE1HgKldetObhNIYucXem53d3kAA0UQAAAAAAAAAAAAAAAAAAAAAAAAAAAAAAAAAAAAAAAAAAAAAAAAAADVmjvtGsXmkf0GUzVmjvtGsXmkf0E1njLof8d/Gr8vu7dajn0VQkbla9WLkqbUXI4mB7/HiPDlLcEVu/Km9zsTuJE2+Tl8ioSRUzRUM76E8SdasQrbaiTKkuGTGZrqZL3HTs6CaqrVmIl72KxXR8Rapq4VZx9MmiTMOlTDXvdxNLvEe5oavOeDJMkT95vMvzKhp4hek7DvvjwtNFC3dVtP2any2qqbW86avLkYuU61LXS2E6TYnLtRvj2V57nr9dXbzdn1y9yhvc9vRL7dWLtdToqJ5H/8AkvkWuyj0H+Tp85+qiPdC/ru0+bv+uRPRZb23LHlqjkbnHFIszv8ASivT50Qlnuhf13afN3/XOboERFxtJ4qORf8A7sIqvxHh3qIr0rqz+6Ps0SeK41UVBb6mrn1QwROlf5ERVU9pF9JL1jwLe1YuTlpnJ06ixM5Rm669XqW6q47omWZr3c6i83apuFa/dzzu3a8iciJ4kTUc8G0SrRRr573FaP0fOkZrqmvKYy7s888/jDFwNogk2Hxel/43/wC7/H/WLiW6Kv2gWX+K76inu00/tDuH8OL+mh4dFX7QLL/Fd9RSKIyqyeNatbHGRbzzyqy9JakOFjXtNv3mE/8ATcd04WNe02/eYT/03FurhLu7/wCHV5SyWX37nvtcunnf9iFCF9+577XLp53/AGIVbXacboP85HlP0WsRTD99SqxJfLLO9FqKKVJI811uieiL8yuy50JWZ7xjepMO6Zqy4xbpzInRb61O6jWJiOTo+fIsV1auUuo0hieixRcnhrZT5TEtCFK6dsN/ocQUrOSCryT/ALXr9H/aXBSVENZSw1FM9skMrUkY5uxyLrRT43a3090tlTQ1aZwTxrG9OPX9pmunWjJJjMNTi7M2/Tz7mZdGvb7ZPOENVGY8MW2WxaU6C31uqSCtSPPl/dXnzRec04R2eEvM0BTNNqumeMT9ld6c+0OXziP7TORo3Tn2hy+cR/aZyI73aeTp/wDNR5QGidD+LOv1l631su6uNE1EVXLrlj2I/wAfIvNymdjv4IrbjQYpoJrQx8lWsiRpCi6pUXa1fF9G3iNbdWrKrozF1Ya/ExwndMNZHlipoYZJ5Io2tfM/fJFRPjLkiZrzInQepNgLjvpjMM9aacU9dbz1po350VE7sip3c3H0bOktLSZfZ8P4TqamiietRIqQslYmqJXZ/DXk2dKoZh5SC9Vl/q5vT2NmmIw9Pfvn7AAK7lAAAAAAAAAAAAAAAAAAAAAAAAAAAAAAAAAAAAAAAAAAAAAAAAAAAAAANWaO+0axeaR/QZTNWaO+0axeaR/QTWeMuh/x38avy+6SmMY3PjkR0blY9FzRyLkqKbOMXG1/uT/5JOWy+f2ap0f39mI8M01Yqt6pb2KoRE2SJt1ePUvOSgzjoaxGtnxI2iqH5UdeqRLyJL3K/Zz+I0cSW6taM3r6MxfSrEVTxjdKuLFYFsWla4SwMalDcaF87P8AK9JI903pdn/qTkLHPwrWq5HKiZpsU/ZtEZblqxYpsxMU8JnP1UR7oX9d2nzd/wBc4ehOrSnx/TMX/wBRE+H/AOu7/sO57oX9d2nzd/1ytbBcn2m9UNwjzV1PM2TJFyzRF1pzpqK1c5V5uQxl3Y6Sm5ymPs2CcLGNG+44Wu1HG3dyzU0jY28rtzq+c6dHUw1lJDU070khmYkjHJsVF1oeotcYdnXTF2iae6Y+rFxf/DTY+8Ll0R/iI3pH0a10dxnueH4Unp5lWSSmi/SRrx7hONPEnQVyuHb0km4W0XFJNu5Wmkz+gqZ1W5ycVROL0ZXVRRHH4Z55NN4OxJTYotT6+jimijbKsWUqJnmiJyeUkJXmhiiqrfhCSGvppqWZap70jmYrHZZN15KWGWqZmYiZdfg7ldyxTXc4zG9mnTT+0O4fw4v6aHh0VftAsv8AFd9RT3aaf2h3D+HF/TQ8Oir9oFl/iu+opVnt/Nxtf/qP/wB//wBNSHCxr2m37zCf+m47pwsa9pt+8wn/AKbi1Vwl2t/8Orylksvv3Pfa5dPO/wCxChC+/c99rl087/sQq2u043Qf5yPKfotYzJpj/aReP+j/AEmGmzMmmP8AaReP+j/SYS3uD2v8h/LU/wDyj6SsPQXiPq20y2Wpkzno+yRZ8cSrs5l+lC2DIuGLxNYL7R3GnzcsL/hN/ebsVOdDV1vq4a6hgq6Z27hnYkkbsss0VM0M2as6ckmhMZtrOzq40/Tu9kDx/YFdinDeIaZrd3DWwU9T42LIiNdzKuX+pOQsg/D2te1UciKnIp+ySIyenasU266q6f1fVXenPtDl84j+0zkaN059ocvnEf2mcite7TkdP/mo8oC8dCWE0pqVb/XRpv8AOm5pWuTWyPjf5V+jyld6N8LvxRiCOGRHdQwZTVL9nweJmfKv38hp6GNkMTY4mo2NqZNREyRENrNGf+0rOg8Br1dIr4Rw8+fyfYHiuVbBbqCerq3pHTwMWSR68SIVno50iPvmJq6iuWUbKqRZKJP3URP0fQmflz5UJ5mImIl0d3F27Nym3VO+rgsy5UNPcqCoo6yNJKeZqxvbyoZZxjh+owzfaigqNcafDhk/5jFXUv8AvjQ1mQzSRhRmKbC6KNGpXwZyU715eNvkX7jS5RrR8VLS2A6Vb1qO1Tw+PwZhB9ZonwSvjljfHLGqsc1yZKi8aKfIqOGmMgABgAAAAAAAAAAAAAAAAAAAAAAAAAAAAAAAAAAAAAAAAAAAAAAAAAAA1Zo77RrF5pH9BlMtbD+ltLPZKK3JZd/6mjSLfOq9xusuPLeyW1VFM73s6FxVrDXKqrs5RMfH7L7MXF0cOHye9d/LKXM3aoqyyS6bxtnFbPY1Z5Z57p+HMauRqTRtiH3yYWpqmRyLVxJvNR/804+dMl5zLZLMAYwnwfXVE0dP1TBPHuZIN3veapsXPJdmvpNbderO/graJxsYS9nX2Z4/ZqUFLcOHye9d/LHDh8nvXfyyfa0un65wX7/4n2eH3Qv67tPm7/rlSku0g4v9+FZS1HUXUm8RrHud+3zda8+RCIleuc6s4cjpG7RexNVyic4lb2iHHcVDG2x3qVI4FX/DTPXJI/8AIq8nIpeSazF5MsL6Q77h5jYI5W1dE3JEp6hFduU5GrtT6PEb0Xcoyqero3TWxp2V+M4jhLT4Kjt+mm3yNXrhaquF3FvEjZUXp3J7OGjD3eV29FH7Qm2lPN7tOlcJVGevC0AVJXaaba1n+BtdVM7kme2L6N0Rq7aY7zUbtluoqWijcmSOfnLIi8uepPmMTdpjvRXNM4Sj9WflH9hydNP7Q7h/Di/poeHRV+0Cy/xXfUU4F2udZd66StuMyy1MuW6kVETPJMuI9OFbx1gxBR3PeN/6mer963W4z1Km3JeUra3+2bk9vTVi9twjWz/nNro4WNe02/eYT/03FZ8OHye9d/LPBetLyXOz1tAtj3pKqB8O+dV57jdNVM8t717SxN2nLi6m7pfB1UTEV9090+ypi+/c99rl087/ALEKEJ7o/wBIHvQt1TSpbeq9+m33db/veWrLL4q8hBbqimrOXM6Kv0YfExcuTlG9pQzJpj/aReP+j/SYTLhw+T3rv5ZWOML174sRVd16n6m3/c9i3e7y3LUbtyTkJLtcVRueppjH4fFWIotVZzE58J5Tz83FLx0EYhSoop7FUP7JTKs1Pnxxqvwk5lXP/V4ijjp4dus9jvVJcqb9LBIj8s/jJxpzpmnORUVas5vG0fipwt+m53d/l/d7XwKW4cPk967+WOHD5Peu/llna0uv65wX7/4n2SXTn2hy+cR/aZ4pYZamoihp2LJPK5I2NbtVV1IhYOONJfvpsTratq6lzkbJvvVO+bPFuUI5gjEFPhq8JcZrd1fK1u4hRZt7SNV2r8Vc1yILlUVVZ5ud0jesYrFRVTV/rlETOUtB4Cw1DhewRUjUa6pf8OpendP8XiTYhKiluHD5Peu/lnyn01yvge2GxtjmVFRr3VSvRq8Sqm9pmTRcoiMoe9a0rgLVEUUV7o+E+z8accVb7O3D1FJ8CNUkq1Tjdtazm2rzchUtLPLTVEU9O9Y54nJIxzdqKmxfmFTPLU1Ms1Q9ZJ5XLI9ztqqu1T4leqrWnNyeMxdWJvTdn5fBqnAWI4sTYfhrWo1KhOx1DE7mRNvMu1PKSgytgTFtRhG5y1EMXVEErNxNAr9zu+Rc8lyVPJxqWBw4fJ7138snpuxMb+Lp8JpqxNqNvVlV5T67ofPTZg9WvXENuj+A7JtY1OJdiSfYvN4ymy4qrTLFVUz4KjDbJYZWq17HVmaORdqfoyo6h8b6mZ1PG+KFXKrY3O3StTXkmfGRXNWZzpeDpScPcu7TD1Z58YymN/z5viACN5QAAAAAAAAAAAAAAAAAAAAAAAAAAAAAAAAAAAAAAAAAAAAAAAAAAAAAAAAAAAAAAAAAAAAAAAAAAAAAAAAAAAAAAAAAAAAAAAAAAAAAAAAAAAAAAAAAAAAAAAAAAAAAAAAAAAAAAAAAAAAAAAAAAAAAAAAAAAAAAAAAAABK9HmE5MWXnqdXvho4W75UStTWiZ/ETxr95mIznKEtmzVeri3RG+UUBoHgaw733dvSx+zHA1h3vu7elj9mSbGp6nUWL5R6s/A0DwNYd77u3pY/Zjgaw733dvSx+zGxqOosXyj1Z+BoHgaw733dvSx+zHA1h3vu7elj9mNjUdRYvlHqz8DQPA1h3vu7elj9mOBrDvfd29LH7MbGo6ixfKPVn4GgeBrDvfd29LH7McDWHe+7t6WP2Y2NR1Fi+UerPwNA8DWHe+7t6WP2Y4GsO993b0sfsxsajqLF8o9WfgaB4GsO993b0sfsxwNYd77u3pY/ZjY1HUWL5R6s/A0DwNYd77u3pY/Zjgaw733dvSx+zGxqOosXyj1Z+BoHgaw733dvSx+zHA1h3vu7elj9mNjUdRYvlHqz8DQPA1h3vu7elj9mOBrDvfd29LH7MbGo6ixfKPVn4GgeBrDvfd29LH7McDWHe+7t6WP2Y2NR1Fi+UerPwNA8DWHe+7t6WP2Y4GsO993b0sfsxsajqLF8o9Wfge+92yps11qbfWt3E8D9wvIvIqeJU1ngInkVUzROrPEAAagAAAAAAAAAAAAAAAAAAAAAAAAAAAAAAAAAAAAAAAAAAAAAAAAAAAAAAAAAAAAAAABp3Rlhv3t4YiimZua6o7NULxoq7G8yfPmVFoew318xK2rqG50VAqSuzTU6TuU+bPm8ZpEsWaf1S6rQGDyicRV5R9/b1AATumAAAAAAAAAAAAAAAAAAAAAAAAAAAAAFUaa8K9cbal7oo91V0bcp0Tuota5830KvIUKbNexHtVr0RyKmSovGZi0l4XXDGIpGRMd1BU5y0zuRONnN9CoV71P6nKadwOrV0miN08fdDwAQOaAAAAAAAAAAAAAAAAAAAAAAAAAAAAAAAAAAAAAAAAAAAAAAAAAAAAAAAAAAAAAA/ccb5ZGsjar5HruWsRM1VT8Fm6EsN9cr4+7VUedJQOTe89j5uLo2+XIzTTrTlCxhcPViLsWqe9bmj+wMw5hmmosm9UOTfahycci7ejUnMSgAuxGW6H0S1bptURRTwgABlIAAAAAAAAAAAAAAAAAAAAAAAAAAAAABFsfYcixPh6ajduW1LeyU7/3Xp9i7OclIExnulHdtU3aJor4SxpUwyU88sE7FjlicrHNdtRUXJUPiW/pwwtvU6YgoY13uRUjqkTidsa/n2dHKVAUqqdWcnz3G4arC3ZtVd30AAaqoAAAAAAAAAAAAAAAAAAAAAAAAAAAAAAAAAAAAAAAAAAAAAAAAAAAAAAAAAAPvSU8tZVRU1OxZJpXJHG1ONVXJENWYRscWHcPUtuiyVYm5yOTu5F2r0lU6CcNb9Vy3+rZ2KHOKm3SbX907mTVzryF6FmzTlGtLsNBYPZ0Tfq41cPL/AKAAmdAAAAAAAAAAAAAAAAAAAAAAAAAAAAAAAAAAADx3GiguFFPR1bEkp5mLG9i8aKZWxfYZ8N36ot0+atYu6hkVP0ka7F/3x5mtSvtLOFffDYXVNLHncqNFfGiJrkb3TftTx+Uju0a0PH0vgek2tejtU/zHfDN4AKjhwAAAAAAAAAAAAAAAAAAAAAAAAAAAAAAAAAAAAAAAAAAAAAAAAAAAAAAAA6NjtdRervS26kTOaeRGJ4uVfIiaznF46C8NLT0ct+q2dmqE3qnReKPPW7nVPm8ZtRTrVZLuj8LOKvRb7u/yWZYbZT2a1UtupW5QwMRqeNeNV8armp1AC6+g00xTEU08IAAGwAAAAAAFa12lvD9JWT0yw3CV0MisV8LGOY7LVmiq7YYmqKeKC9ibViIm7VlmsoFX8MuHe9Lt6KP2g4ZcO96Xb0UftDXaU81frTCeJC0AVfwy4d70u3oo/aDhlw73pdvRR+0G0p5nWmE8SFoAq/hlw73pdvRR+0HDLh3vS7eij9oNpTzOtMJ4kLQBV/DLh3vS7eij9oOGXDvel29FH7QbSnmdaYTxIWgCr+GXDvel29FH7QcMuHe9Lt6KP2g2lPM60wniQtAFX8MuHe9Lt6KP2g4ZcO96Xb0UftBtKeZ1phPEhaAKv4ZcO96Xb0UftCX4SxJRYntbq23pI1jXrG5kuSPaqcuSrxZKZiumd0Sls42xeq1bdUTKQgA2WgAAAAAAAGdNMeFesl8640kapQVzlXJE1Ry8ac+1OfkK5Nb4nstPiCy1VtqviSp8F2WuNybHJ5FMrXi3VFpuVTQ1rNzPA5Y3J9qeIq3aNWc473FaZwOwu7Sjs1fxPJ4QARPEAAAAAAAAAAAAAAAAAAAAAAAAAAAAAAAAAAAAAAAAAAAAAAAAAAAAAHdwbYJsS4hpbdDmjHrupnp/w2JtX/fGqGqqSnhpKWKnp2NjhiakbGpsRE1IhX+hjDXWfDyXGpjyrbgiP17WRdynPt505Cyi1ap1Y3u40Ng9hZ16u1V9O4ABK9gAAAAAAD5SyMhic+VyNjamblXYiAQbS3iTrBhp0NPIja+uzhiyXW1vdO6NXlVDNhJdIGIXYmxLU1iKvUzOxU7V4mJnl07ecjRTuV60uB0rjOlX5mOzG6P78QAGjzQAAAAAAAAAAAAAJjoyxQuGcQsfM5et1TlFUJyJxP5vozIcDMTMTnCWzeqsVxco4w2cxyPYjmKitXWipxn7Kq0KYr65WxbLWP3VVRtziVe6i2Zc30ZFql2mdaM30PC4mnE2ouU94ADKwAAAAABUmm7CnVlvS+0UarU0qbmoRia3R/vf6fo8hbZ8pI2SxuZI1HMcmSouxUNaqdaMpVsXhqcTam1V3sZglmkbDD8L4ilhjavUM/ZaZ66/g/ueVPu5SJlOYynKXz29Zqs1zbr4wAAwiAAAAAAAAAAAAAAAAAAAAAAAAAAAAAAAAAAAAAAAAAAAAAAAACX6M8NLiTE8UM7FdQU/Z6heJUTYznX5syIGnNF+GUw3hqOOaPKuqMpqjPai8TeZPnzJLdGtO/g9TROD6Vf39mN8+3zTRqIiZImSH9ALbvAAAAAAAAAqvTbiXrdaG2elkRKquTObcrrZD/8ApdXkRxY9yroLdQVFXVu3EEDFkeviQylie8zX++1Vyqc0WZ/wW5/o28ScyEV2rVh4umsZsLOzp7VX07/ZyAAVXEgAAAAAAAAAAAAAAAAAA6FkudTZrrTXCiduJ4H7tM9i8qL4lTNDVWHrvT32zU1xo17DM3Pc8bF40XxopkUsrQxirrReetVY9Eoa13Y1X/hzbEXn2dBLaq1Zyl7mhcdsLuyq7NX8S0OAC07QAAAAAAABBNK2G5MRYYd1Lm6to1WaFqd3yt6PnRDNJtEzlpiwstjvy11Kz/AVyq5ETZHL3SfanPyEF6n9UOZ09gc8sTT5T9pV2ACu5UAAAAAAAAAAAAAAAAAAAAAAAAAAAAAAAAAAAAAAAAAAAAAAD7U8MlTUMgp2LJPK5I2NbtVV1IgZiM90J9oaw116xD1dUszoqBUkXPY+XuE+3mTlNGkbwRYIsN4dprfHuVlRN3M9O7kXav2eREJIXLdGrGTv9GYTotiKZ7U75/vwAAbvQAAAAAAA4+JbvBYbHVXGq1sgbukbnkr3cSc6hrXVFETVVwhV2nXE2SR4epX61ylqsuljPt6Clz13OumuVxqa2qdup55FkcvjU8hSrq1pzfPcdipxV6bk8O7yAAaqYAAAAAAAAAAAAAAAAAAAAA0vorxSmJLAjaiTO5UmUc+62vTifz/Sik6Mm4LxBNhnEFPXxIrom9jnjTu2LtT7fKhqeiqoK2khqaZ7ZIJmpIx6bFRdhbtV60fF3OiMd0m1q1T/ALU/3N6wASPXAAAAAAj+L7HBiOw1NunyRZEzifl8SRNjv98WZIAOO5pcopuUzRVGcSxvXUk1BWTUtWxYp4XLHI1eJUPMXTpwwor9ziKhjzVqJHVtROLuX/Qi8xSxSrp1ZyfPsdhasLem3Py8gAGqmAAAAAAAAAAAAAAAAAAAAAAAAAAAAAAAAAAAAAAAAAAAWxoMw11VcJb5VMzhpux06Lxyca8yfT4itbNbqi7XSmt9G3dzzyJG3718SbTV2HrVBZLRS26l/RU7Eai5a3LxqvjVc15yW1TnOfJ7uhMFtru1q7NP1dUAFp2YAAAAAAAAUDpvxKlddWWWkkzpqNd3Nl3UvJzJ86qWvj7EEeG8NVNbm1ahU3uBq91IueXRrXmMszSvmlkllcskkiq9zlXNVXlIL1W7VhzunsZqUxh6eM758nzABXciAAAAAAAAAAAAAAAAAAAAAAAAFhYG0lVOGLS63TUTa6Fr93D2be1jz2psXNM9fOpXoMxVNO+E+HxFzDV69qcpXRw4fJ7138scOHye9d/LKXBvtKua711jf3/xHsujhw+T3rv5Y4cPk967+WUuBtKuZ11jf3/xHsujhw+T3rv5Y4cPk967+WUuBtKuZ11jf3/xHsujhw+T3rv5Y4cPk967+WUuBtKuZ11jf3/xHsuOp0zRVNO+GfDbZIpWq1zXVmaKi7U/RlOAGtVU1cVXE4y9ispuznl8I+wADVVAAAAAAAAAAAAAAAAAAAAAAAAAAAAAAAAAAAAAAAAADt4Rsc2I7/S22DNElXOWRP8AhxptX/fHkZiM9ze3RNyqKKeMrS0E4a3qnlv9XH2SbOKmzTY1PjO511cy8pch5aKmhoqOClpmJHDCxI2NTiRNSHqLlNOrGT6Hg8NGFsxaju4+YADZaAAAAAAAg2lbEyYdw09tPJuK+szigyXW395/MnzqhiZyjOUV+9TYtzcr4QqXS9ibr/iV9LTPVaGhzijy2Of3Tvs5vGQEApTOc5vneIv1Yi5NyrjIADCAAAAAAAAAAAAAAAAAAAAAAAAAAAAAAAAAAAAAAAAAAAAAAAAAAAAAAAAAAAAAAAAAAAAAAAAAAAAAAAAAAAA0FoVwz1rsK3WpZ/jLgiKzdbWw8Sc+3oM+mldEuImX7CcMciolXQoyCVE40RPgv50TpRSazlrb3t6Bpt1Yn/fjlu/vkngALLtQAAAAAAAHze9GMVz1RGomaqvEZb0i4jdiXE1RUxud1JF2Knav7icfPtLn00XKrt2DJWUTHbmpkSCaRO4jXPPpyy5zN5Beq/S5XT+LnWjDxw4z9gAFdzIAAAAAHdwzhe64jqN6tdK6RiLk+Z+pjfK/7NpKdGej+TEL23G5tdDaY3fBanwVnVOJORvKvR4tAUNJT0FLHT0cMcNPGmTGMTJEQmota0Zy93R2hqsREXLs5U/zKr7Bodt9OjX3uqlq5NqxQrvcfkz2r8xOrfg/D9va1KW0UTVbse6NJHp/qdmpIQT00U08IdPZwGHs9iiPq+bGIxiNYiNaiZIicR9ADZcAAAAAAAAAAAAAAAAAAAAAAAAAAAAAAzDpQxKuI8TyrFKrqClzgp0RdS8r+dfmRC3tMGIW2TC0lPE7/G13Yok40TuncyfOqGbiveq/TDltP4zfGHp85+3uAAgcwAAAAAAAAAAAAAAAAAAAAAAAAAAAAAAAAAAAAABLNG+JVw1ieColevUU3YahP8i91zLr6eUiYMxOU5wls3arNcXKOMNnNcjmorVzRdaKh+ys9CuJEu2H0ttS5FrLfkxM9rou5Xm2dHKWYXaZ1ozh9Ew1+nEWqbtPeAAynAAAAAHMvNuprta6mgrGo+Gdixu+/wAqbTKd/tU9kvNZbqtOywSbjPLLdJxLzpkpr8qbThhnq23R3ykZuqikTczoifGi5eZfmVeQhvUZxnyeJpvBba1taY30/RQ4AKzigAACR4Bw8/EuJaah+EkCdlnenExNvTqTnI4Xb7ny3olDdrgqIrpJWwNXkRE3S/WToN7dOtVlK9o3DxiMRTbnh3/JbVJBDSU0dPTxtigiajGNamSNampEPUAXH0GIy3QAAMgAAAAAAAAAAAAAAAAAAAAAAAAAAAAAfKWRkUbnyORrGpm5V2Ih9Sq9NuJut1nbaKWREqq5M5dyutkP/wCl1eRHGKp1YzlXxWIpw1qbtXcqjSBiJ2JcS1NYiu6lZ2Kna7iYn2rt5yMgFKZznOXzu7dqu1zXVxkABhGAAAAAAAAAAAAAAAAAAAAAAAAAAAAAAAAAAAAAAAA7uDb9LhvENNcYVVWMXcTMTu2LtT7fKiGq6WeKqp4p6d6SRStR7HN2Ki60UxuXjoLxGlTRTWOqem/QJvkCu7qPjTm+jLkJrNWU6rotBY3UuTYq4VcPP/q4AAWXXAAAAAAeaohjqYJYZ2JJFI1WOa5NSoupUPSAxMZ7pZQx1h5+GsR1NCqPWHPfIXr3bF2fdzEdNH6X8NdfsOOqKVmddQ5ysy2vb3Tft5vGZwKdyjUnJwWlMH0W/NMdmd8f34AANHmhffufZmuw1cYM+yR1e7VPErGon1VKELF0KX1tpxQ6iqH7mnr2tizXYkifF+lU5ze3OVUPT0Rei1iqZq4Tu9WjAAXHegAAAAAAAAAAAAAAAAAAAAAAAAAAAAAAAPHca2C30NRV1btxBAxZHu5EQyjim9TX++1dyqM2rK74DP3GcSdBaunbEm9xRYfpHfDflNU5Lxdy37eZCkyteqznVhx+ncZtLkWKeFPHz/4AAhc+AAAAAAAAAAAAAAAAAAAAAAAAAAAAAAAAAAAAAAAAAAAdGw3Oez3emuFMq75C/dZIuW6TYqZ+NM0OcB35tqKpomKo4w2BZ7jT3e2U9dSO3UEzUe3l5zolI6CMS7mWawVMmp2c9LmvH3bP7uku4u0Va0ZvoeBxUYqzFzv7/MABstgAAAAAZl0q4Z972JHvp49xQVmcsGSamr3TeZfmVDTRE9IOHW4mw5UUaIiVTOy07l4pEz1eRdnOaXKdaMnm6VwfSrOUdqN8e3zZaB+5I3xSPZIxWSMXcuaqZKin4KbgpjIP0iq1UVFVFTWiofkBhonRdjqHENLFQXKRsd4iblr1b+icaePlTn8lkGM4ZXwSsmge+OWNUVr2rkqLyoW9gvS4+JsdJidiyMTUlZEmv/Uzj8qdBYouxwqdZo3TVMxFrETlPP3XcDl2e8W+8U+/Wythqo9WaxuzVPKm1Oc6hO6KmqKozpnOAABsAAAAAAAAAAAAAAAAAAAAAAAAHKxBdYLJaKu5VS9hp2K9Uz+MvEieNVyTnOqURp0xKtTXRWGmk7FTqklRku2RU1J5ERc+fxGtdWpGalj8XGFszc7+7zVneLhUXW51VfWO3U88iyOXP5k8SHhAKT59VVNU5zxAAGoAAAAAAAAAAAAAAAAAAAAAAAAAAAAAAAAAAAAAAAAAAAAA9VtrZrdXwVlK5Y54JEkY7xoatwxeYb/Y6O5U/wAFszc3Nzz3Ltit5lMkFo6EcSrbrs+z1T0SmrV3cefcyon2onzJyktqrVnKXt6Fxuwu7Ors1fVoAAFp2oAAAAAAADP2m7DHW68NvNJHlS1qqkqNTU2b/wApr8qKVea3xNZ4L9Y6q3VWpszckd+4/icnkUync6Ga23CeirG73PA9Y3N8aFW7TlObitNYLYXdpT2avr3+7yAAieIAAD701RPSTJNTTSQTM2SROVFTnQlVt0j4pomta26PnYnFO1smfOqZ/OQ4GYmY4JrWIuWvw6pjylZjdMmIkaiLSWtVTjWGTX//AEP1wzYh7ytPopfaFYg22lXNZ6zxfiSs7hmxD3lafRS+0HDNiHvK0+il9oViBtKuZ1pi/ElZ3DNiHvK0+il9oOGbEPeVp9FL7QrEDaVczrTF+JKzuGbEPeVp9FL7QcM2Ie8rT6KX2hWIG0q5nWmL8SVncM2Ie8rT6KX2g4ZsQ95Wn0UvtCsQNpVzOtMX4krO4ZsQ95Wn0UvtDpYc0l4nv97pLdTUVq3c78ldvUnwG90v6TiQp8vnQdhnqG0vvVVHlU1ibmHdbWxcv+pfmRDeiquqeK9o/E4vF3ot685d/ktgAFl2YAAAAAAACP4yvkOHMP1Vxkyc+NNzExV+PIvxW/74szKtVPLVVM1RUPWSaR6yPcu1VVVVVLC014l67Yg62UsmdHb1Vjsl1Ol415tnSVsVbtetOXc4nTWM297Up7NP17wAETxQAAAAAAAAAAAAAAAAAAAAAAAAAAAAAAAAAAAAAAAAAAAAAAAA+kEr4Jo5opFZJG5Hsci5KipsU+YDMTk1ZgO/x4kw3TVzVbv+W9ztTuZE2/fzklM3aHsR9ZcSspKl2VHXKkS59xJn8Bfs6OQ0iXLdWtGbvtGYvpViKp7Ubp/vxAAbvRAAAAAApbTphjNseIKRmtMoqvJOZr/7eguk8dxooLjQVFJVsSSCdixvbyoprVTrRkqY3C04qzNufl5sdA7GK7LNh6+1VuqM13t3Y3/8xi7F6DjlOYy3PntyibdU01cYAAYaAAAAAAAAAAAAAAAAJFgWwPxLiSmoUR+8575O9O5Ym37E5zU1PDHTQshhYjIo2o1jU1IiJqRCB6HsNdY8OpV1TMq6vykdutrI+5b9vP4ixS3ao1Yz5u50Pg+j2dartVb/AGAASPXAAAAAAiOkfEaYawzUVMaolXJ2KnT/ADLnr5kRVJcZk0q4lTEOJZGwSbqgo84ocl1OXunc6p0Ihpcr1YzeZpXGdFsTMdqd0e/yQtzlc5XPVVVVzVV4z8gFNwQAAAAAAAAAAAAAAAAAAAAAAAAAAAAAAAAAAAAAAAAAAAAAAAAAAAAAbDTWi7EbcRYcY+aTd11P2OfNfhKv723j/wDHEZlJfo0xI7DeJI5JHZUdQm8zo5ck8T18i/NmSW6tWXqaJxfRr8Z9md0tRA/ET0exHJnkqZ60yP2W3eAAAAAAAAKv014YS52NLtTR51lAmcm5TW6Hj6NvSZ+NmyMa9qteiKipkqLxmXNIuG1wziaamjR3UUvZadf8q8XNsK96n9UOU09gtWqMRRwniioAIHNAAAAAAAAAAAAAATPRdhhcR4kjSePdUFLlLUZ7F5Gc6/NmRCGJ80rI4mrJI9UY1iJmqryGotHuG2YZw7DSIjeqpOy1Dk45F4vImWRJao1petonBdJvZ1dmnfPslSaj+gFt3QAAAAAAHykkZHG50iojETNVXYiAQbS1iTrBhl0VPJua6uzhiyXW1O6d0avKqGbCT6QcRLiXE1RVtc7qWPsVO3kYnH5V285GCpcr1pcFpXF9KvzMdmN0f34gAI3mAAAAAAAAAAAAAAAAAAAAAAAAAAAAAAAAAAAAAAAAAAAAAAAAAAAAAAAAND6HsTpeLCy3VLl6rpOx5qqfCb3PlXby/FXMsoydgi/vw5iKlrkVd4z3udE44129GSLl4jVNNPHUwMlgcjo3tRzXIuaKhatVa1O93GhsZt7OpV2qfp3PQACV7AAAAAAEYxfhO34rpaeC4umj3h26ZJCqI9M01prRdS6uhCTgxMZ7paXLdN2maK4ziVX8DWHe+7t6WP2Y4GsO993b0sfsy0Aa7Onkp9V4Tw4VfwNYd77u3pY/Zjgaw733dvSx+zLQA2dPI6rwnhwq/gaw733dvSx+zHA1h3vu7elj9mWgBs6eR1XhPDhV/A1h3vu7elj9mOBrDvfd29LH7MtADZ08jqvCeHCr+BrDvfd29LH7McDWHe+7t6WP2ZaAGzp5HVeE8OFX8DWHe+7t6WP2Y4GsO993b0sfsy0ANnTyOq8J4cK/w7oxsVju0Nxppa2eaFVVjZ3tViLy5I1NZYABtERHBZs2LdiNW3GUAAMpgAAAAAKv02YmS2WJLTTSZVlemUmS62w8fTs6Sxa2phoqOapqXpHBC1ZHuXiRNamU8XXybEV/qrlLmiSrlExf+HGmxOj58yO7Vqw8bTWM2FnZ09qr6d7igAqOIAAAAAAAAAAAAAAAAAAAAAAAAAAAAAAAAAAAAAAAAAAAAAAAAAAAAAAAAAAAL30I4lWutrrLUv3U9Km6hVVVVWLk5ubahRB1MNXiaxXuluNPrfC5FVmfx28aG9FerOa9o7FThb0V93f5Neg8Fqr6e50ENZRyJJDK1HtVPGmevpPeXH0GmqKozgAAZAAAAAAAAAAAAAAAAAAAAAAAAAAAAAAA5d8ucFmtVVcapcoadiuXx8iJ41XJA1qqimJqq4QrLTriTeaWGw0r8pJspanLiai/Bbzrr5k5Sjzo3y51F5u9XcKt2c1RIr18XInkRNRzilXVrTm+fY/FTir03O7u8gAGqkAAAAAAAAAAAAAAAAAAAAAAAAAAAAAAAAAAAAAAAAAAAAAAAAAAAAAAAAAAAAALn0FYkzSWw1UutEWamzX/AL2Jr5+deQuox3abhParnTVtI7czQSJI1fHyeQ1The6Q3qw0tdTOXcStz17c+NF1Jrz25ceZZs1Zxk7LQeM2tvYVcafp/wAdsAEz3gAAAAAAAAAAAAAAAAAAAAAAAAAAAAAKM064l36pisFM/scWUtRlxu7lnRr505C1cX3uHD1gqq+fJXRt7G395/EnSZVraqatq5qmpesk0zlkkcvGq61Ib1WUZQ5/TuM2dEWKeM8fL/rzAArOPAAAAAAAAAAAAAAAAAAAAAAAAAAAAAAAAAAAAAAAAAAAAAAAAAAAAAAAAAAAAAAAAC1tB+Jm0Nwms1bIjaepzlhc5dTZETWnOifN4yqT70s8lLURVFO9Y5oXJIxybUVFzRTamrVnNZweIqw12LtPc2UCuLLpRw5LaaZ9yrepqxWJvsSwSv3Lk8aIufSdLhPwf4Y9Wm/AW9enm7ynH4aYidpT6wmoIVwn4P8ADHq034Bwn4P8MerTfgGtHNnp2G8Sn1j3TUEK4T8H+GPVpvwDhPwf4Y9Wm/ANaOZ07DeJT6x7pqCFcJ+D/DHq034Bwn4P8MerTfgGtHM6dhvEp9Y901BCuE/B/hj1ab8A4T8H+GPVpvwDWjmdOw3iU+se6aghXCfg/wAMerTfgHCfg/wx6tN+Aa0czp2G8Sn1j3TUEK4T8H+GPVpvwDhPwf4Y9Wm/ANaOZ07DeJT6x7pqCFcJ+D/DHq034Bwn4P8ADHq034BrRzOnYbxKfWPdNQQrhPwf4Y9Wm/AOE/B/hj1ab8A1o5nTsN4lPrHumoIVwn4P8MerTfgHCfg/wx6tN+Aa0czp2G8Sn1j3TUEK4T8H+GPVpvwDhPwf4Y9Wm/ANaOZ07DeJT6x7pqflVREVVXJEIZwn4P8ADHq034DkYj0nWFtjrFtNek9fuMoY1gembs9q5tyy4xr082tWkMNTEztIn5wgmmfEq3O9pa6Zy9TUbuyZccvH0bPKritT9ySPlke+RyvkeubnKuaqp+CnM605y4PFYirEXJuVd4ADCuAAAAAAAAAAAAAAAAAAAAAAAAAAAAAAAAAAAAAAAAAAAAAAAAAAAAAAAAAAAAAAAAAAAAAAAAAAAAAAAAAAAAAAAAAAAAAAAAAAAAAAAAAAAAAAAAAAAAAAAAAAAAAAAAAAAAAAAAAAAAAAAAAAAAAAAAAAAAAAAAAAAAAAAAAAAAAAAAAAAAAAAAAAAAAAAAAAAAAAAAAAAAAAAAAAAAAAAAAAAAAAAAAAAAAAAAAAAAAAAAAAAAAAAAAAAAAAAAAAAAAAAAAAAAAAAAAAAAAAAAAAAAAAAAAAAAAAAAAAAAAAAAAAAAAAAAAAAAAAAAAAAAAAAAAAAAAAAAAAAAAP/9k=;" vertex="1" parent="1">
          <mxGeometry x="644" y="235" width="83.09" height="65" as="geometry" />
        </mxCell>
        <mxCell id="uCTicKS0ZdumBR-8Xd1L-48" style="edgeStyle=orthogonalEdgeStyle;rounded=0;orthogonalLoop=1;jettySize=auto;html=1;exitX=0.25;exitY=0;exitDx=0;exitDy=0;entryX=0.25;entryY=1;entryDx=0;entryDy=0;fontSize=14;strokeColor=#EA6B66;strokeWidth=3;" edge="1" parent="1" source="uCTicKS0ZdumBR-8Xd1L-26" target="uCTicKS0ZdumBR-8Xd1L-23">
          <mxGeometry relative="1" as="geometry">
            <Array as="points">
              <mxPoint x="662" y="460" />
            </Array>
          </mxGeometry>
        </mxCell>
        <mxCell id="uCTicKS0ZdumBR-8Xd1L-26" value="" style="shape=image;verticalLabelPosition=bottom;labelBackgroundColor=default;verticalAlign=top;aspect=fixed;imageAspect=0;image=data:image/png,iVBORw0KGgoAAAANSUhEUgAAAbYAAAD1CAIAAACz0EdRAAA0TElEQVR42uy9S36qWrf/nex3F04NVu3UwBaAtVMDWyC2ANICsQWSFoAtEFsAtgDSAkgLILWnBmlB3s/j+O/5mXsCk6t4yfiW1jLGKOCPcR9///z8vExKnufn8zkMwziO4RH1wna7VVX1BUEQ5HH4a9qXOxwOy+XStu2iKI7HY5ZlURSt1+sgCJbL5WazKcsSDzqCII/C64RWpOM47+/vLy8vpmn6vs+Ylqqqfn9/q6qaJAkedwRBHoL/z3GcqfzrzWbz8vIiSVIYhv/zP/9D/1QUxf/93/89n8//+c9/RFH8v//7Pzz0CIL8Ikc7DENiS4qiWH2CZVmSJL28vJxOJzzuCIL8LokkQUZd15ue8+fPn5eXlzRN8bgjCPIQTBaLjON4tVq9vLwURbFcLvM8ZxQzvwD/njyNjiAIcg3+nuqFdF0XBOH7+9v3fSKFIJ3MM8HdRhAE+UWO9svLi23bLy8v5/PZNE2+mOJxRxDkdznagKqqn5+fqqrmed5UAhlFEaokgiC/USJJ/WPTEyRJot1wBEGQ3+Jov7y8yLIcxzEn2ijLMh50BEF+qUSCr52mKT8ciSAI8hsdbRrDMM7nc/Xxoihqa8sRBEGe34okMG3ahN1uh8MsEAT57Vbkf1/99bX2cVmWLcuq5rXLsiS9N6qqKoqCsUsEQZ5TItM0XS6XI1/Etm3XdfE8IQjybBK5XC7pdmxFUT4/Pwe8TpIkOIsXQZCbcK1Y5NvbG62P6/UaRqXRSJLkum50YbvdCoJQ+1JkhhCCIMjDW5FlWW42m2prdpUsy0ioMU1TRlUJQRAYhoGnCkGQh5fINE03m03H/hmSrknTlJPjppUUQRDkUSXycDjAJIsJwYZFBEFuyF9TOder1WpyfXx5efn+/sYRvAiCPLBEQnFPl+DjYPHFjA2CIA/paIOEzWDo6bpu2/Z6vcZzhiDIw0ik53m73W7MKxRFEcdxeIEzRQ0QRdEwDF3XZVnWNA3PH4IgTy6R9BtI09T3/TAMv76+uvyufAEUU1EUrDBHEOS+JBK2v47Z+1pb0xPHsed5tYOCWm1M0zRxqjmCIPcikWVZwvbXYbiu25QKj+PYMIxW77tWtV3XxZFrCILcXiIhl/Lx8THsd2VZzrKsVnmhIlLX9QEqaRhGEAR4ghEEGcM0dZG9goCSJK3X6/0FQRDyPHccp/o0qCXabDaLxWLAWwrDEAsqEQQZyTR7tLu4tJqmQTKa1lN45P39Xb/AWKYgoIPfVRiGmMBBEOT2ViSnw1pRFNd1syyL43i5XH5/f398fBDhg0U3giBsNpuq0YcChyDIjfmZglotUxQliqKiKBzHaZpDoaoqMR5FUQyCgH7Z7XbL8dY7fkBd1y3LSpLkB0EQpCcTpGviOF6tVtXHoWixb2MidNGIopjnuW3bxD7VNE3/B+JHV2dQcpBl+Xg8Yj0QgiDduesGREmSdF03LlR/6jjO+/t739fUdf14POJ0NQRBri6RZVnudrumTYeDURQFZJETi0zTdLVaDdukKIqi4zgcLx5BEGSsRMZxvNvtprIfoX0QbEZ+frwsS1EU+3rZaE4iCDKHRH58fMDUifHiCOFFvrVYK5F5nquqOr49XBRF27a32y324SAIUk+XnE6WZbZtT2JwKYqy3W6jKOL8uSRJoImwKIraJ2iaBhnqSYb9yLLsOE6WZZi8QxCkd0bb9/23t7eRskiS0aIoQqsiva8Gct9E74gTbVnW8Xis9ZE/Pz9d19V1fVjvTZPrLcuyqqqmaaJdiSBIuxU5eM2/IAimaR6Px6Iosizzfd+yLL5DLYqiZVlZloEVCTCVksSKhJ9alnWlYKJlWXxTF0GQ325F5nk+wEYzTRPy0efzGaKWfZsIHcc5Ho8wMlKW5SRJGJvu9fW1u1KDLkM5JJirRJFrJRsKOcMwPBwOsixblmWaJmZ1EATTNSy2bR8Oh14vZxiGZVkwQnxYRQ7RL/Lruq5HUdTF8dc0DUQQtO/r60uSpGE7uMuyVFWVTPZVVRXWQqADjiDoaLP+bBPShRnepKqqkE6JooiIlCAImqbt9/sgCKr9haZpEpeZ+VFRFGEYtrYk1u7JQQccQX4VvSVSEIT1eg1BRt/3Z7aq4K+7rtsqcPQbowOax+MRfqRpGv8VOLXlsiz7vt+UcEcQ5FdIZDVXs16viwu+788Wnusui//6YP9WNHgwiiJFUUzTrM0C9TWioUsHhRJBfmm6BjInsMNaVVXDMF5fX8fHGTsCYUQYKDkkyPrvlA58zMViUTvhvDYW2XHbBLYzIsgvjUWSyJ3nebONbtQ0DeZLjtT+/X6vKAp5TSiAX6/X3X+9b7QU560hyO+yIvM83+12YEVe25UGa5Fu0C7L8uPjI01TqMIhQ9WgWGe73Q5LVXcBdkJ0fLKiKKIopmn6/f19PB4ty8L7LoI8uRWZZdkMX3VFUfb7fdX4SpIE/jrkrDVNo/PmUJR+vX7BahkmH5LgPh6PkiRVE+gIgjxVuiYIguvlqemum9o3BAtjFUVhnnM8HvtmbGbQR8DzPBKUAN3HCwtBntPRfnt7u8b8Rxh0pl7guLd5nkPt900qtA+Hg+M4ZVmC4w8p+7Is4zj+/Pzk/y4ZaQ4tSUEQXC8OgCDIbRztqZxrKNPZ7/e9qqz3+/2txu2EYUjy5oqi1Fq4QRCYpikIQqvTTZcZIQjyJI72SH0UBAGmnHHqBJMkIT91HAfW1NwqEZwkie/7zJA3QRBa6xyDIKhtvAFl9DwP/n08HvHyQpAnkcjxZX2u6/L/0na7JQYaU5xo2/acBiNnPlDrpyAURXE8HtfrdZNdiRKJIE8Si+y75ECSJFmW8zwnUx6gFsfzPNIZ3QozjSLLsuu16+R5/vHxEYZhHMf8ovdhbwMqk2AcOgRSSSgTQZCH5r8SuVgsWueVrddrSLmQmF3tRDKY4N0klIfDoSxLWZbhCWSqbtNcssGUZfn5+RnHcXqh4zQ2SZL6zm1DEOS5+dvzPI4uaJpmWVZ15VbT4po8z/f7PSx3ZX602WxIFbrv+0EQTCWLYM+C4II112WvDoh+nuen04noO14QCIL8y4qkJzPSmKbpOE6TajS1MK/X69punGq/iqqq9GSzVpOQfoT023RUw6ruwxgOZpmipmmkhwdBEOS/VmRVHyVJ8n2fNgPJ0kHyiCiKmqbBFhqar68v0B3mcVEUoyhK09TzPIhgpmm62WzoWbmMpJ7P56n2LJJaS3oCOZifMJ7DNE1iSyIIgjQiSRJd9cIYkqZpkp9CJ0n1FSBvw8kQua5LssDMUDIYmTHS4ZUkCRp4upcTgVK3TpBEEOTXFf0w0LJCV0qSvayMojVVC223W37FDJRhk1496Aof01QjSdKYDkWs90YQpEUi6ebiIAiaTEuGLMtc16UH0AqC0L0qcJKRGYZhjDwQYBHjBYEgSKNE0iYYHYvkm4SMx9q96bAoimHiCA2OTM22LMtdZok3ARKPFwSCII0SSYsXk32e9q9mWeY4zmC3mkzGTZLEdV1aLi3LGrYpASTyVk3iCILcJ381JZSZ/3KqYWD27cfHx/l8fn9/32w2y+Xy9fW1tiooz/O3t7fFYgEzdYZJJLE9YXcrLIpIkgQmNg5LgoPVjKXjT0Acx5vN5vX1dbVazbBBBGnldDotFos/f/5MPkVsboj9VV3sJYpiUyakqXBHEATaLB2w3QHm6dIONZ3hmRaYTIELYB+aJEmYnoXuTffINYiiiPnWP5yj9jdz+4Uph9V7b1mWq9UqCIJq20xTjc5qtTqdTtACOKwk++vra8ImHIaPjw86xQQfGa3IB6Usy91uVzVS8ITeijzP39/fa8/IY7Wx/cvR5q+pAZXc7XbMZdfk2MJMHc/zOPoI2185R/lKljmMYqu+c/xGPaI4vr+/LxaL2ksFHe1bnZHlcvnwbjVIJD368HQ6tWqE53mLxeLt7e18Pn98fJxOJ3pgT18+Pz/P5zMnc32NFTplWR4OB464I4/yVTydTsvlkhPXxr77mc/I4XDgn5HHg4kkQoHh8XgkjyiKEgRBx37qCZEk6UrTdondCoEqKBWCR3DtzKPEHDs2GuAJnfOMdBScB4tF6rpOdyiHF+h77+uFz8/P2W4LsEfQcZwrvT6JJxiG4ft+nudkz8zT25VxHL+/v0MxgCiKJLIsCMI1Yr7MUFHyIO2swH/hzbSOdg7D8P39Hc3/++F0Onme98xnpJqShibrGf70drult8EoimKa5pjy7161oIqiQCIbduzAg0/fpn3njic/3Ul3fHUErcirMmBbweNZkVASKEkSuduXZQmbWq+K67oz/JVaMwr+AQbUx8eHbdu/J0vDNAXcFYIg8BV8njs30h2I6T83/y+jPb9a3UQfaVcadkuUZamq6u8ZE3nPKtPq6ePe3XujdtbXc0rk5Ilj0zT3FzSKjoHCq9p0JKKqqmoYhoqiiKJIRvZWJ2A+GZZlZVnWfcXQnFRLbqu31SiKmtZPDpNdZKTBcTwen1woics97ddGFEXHcZjQEmwNhODjDDHHWvb7PbzDIAhkWXZdl1nH+HtSkPd2ZXePG2ZZ1lEosV1qti6ajjbQw52RlzGx8C4YhhGGYVWkdF2/rUSS2FwURXTU+Vdd2d3vi/v9vnsNVpIk0T8cj8f9fs/Zpjv4y0OXpqFE3gNPeUb+pQitF3EtkiQ1+dHrC5qmmaZJLEryteQfrCuZmfRZNE2zKp2/bdhPl6TkVIl+mDMy4ZeHueGhRN6/Sj62RA7wtWmVqdqh1cNBpwv4hmQQBIxaQbXwsFlntLMPdwJBEOjXT5Lk136pOLIFdB8Y2uX4N3lkw448/82jRM4P3+N+uDPy18iMIezzYpLFhNVqBa2KMCdtsVjQiew4jjldnLquM62NWZYNW3nIBEnjOF6v13Ec0yUmvzmu31qlP2FjFaycrA2DtqZrmhJQmDa5t5Tgc6ZrBvvaqqoGQdDxuFRHhfNvR4Zh0AvFaIf9Sne/X2h3tBZLTl6ATWz28Ymy2pdCK/KGPNkZ+Wv8nRzWvRJ7ELbWNCV/LMui7fA8zzk1ibquh2G4WCygQlUURdh/fe06ht922xdFsdXXnhZVVaeqoMCynnvjyc7IX9UEdFX1O74WjL99e3tbLpfQCFzldDoxtYetrd/Q7bNcLucRr985Pmv+xsQJe/CHpRkRZIhEVq3I3W7X5YUURYnjGEKNMEa3iwApisKxW+knp2k6Zvzc7+mfeSBRRkMSeTyJlGWZ+FwwNKyj7fb19QVjxvsqFycV4HkeGVxm2/aY5jlZljt+EBzCehNDEi3BZ+KZ+m1q1nsRX7uX3pVlGcdxa++gIAhQRLler4MgaE2V2radJImmaZ7njZndK1/o8kwctDWnIUmqMoels5H7ZObZslfl7+pDuq5PPpRbkiTHcQzD6HLsfN//+vqSZVnTNFmWYcyE7/ue5/m+j0Uez4TneYZh0CM7EeTercjJ7+eKoqRp2jomGqa9wrdFEARY7LVcLk+nU1mWlmXBi4x5J/zlPMD39zdeFnOi63rHEeIIchcSKYpi91ACTPTZbrecX7Ftu8sXIM9zx3EWi8Vms4ExPGVZwosvFov39/eRUUIoGm8VR3S0EQThSWQvQ/Lr6wvWHKZpGkVRbdC9Y8LRsizQ2TiOoS2nLEvDMMqydF03iiJSIDkYmKnR9FMURwRBJpbIOI5hISKsx/3z5w/9U03TFEXhSGQYhvC78F+6rMf3/cViAYpmWVYcxzBppouzzPHpunw0TGojCDKNRNJytlgs6Iy267pxHPNNM13XkyQBkYUB4GSgJEjV5gJolizLtm2PjOs3ufy0D47mJIIgPImshiNhVWzVjxYEAaaLVzvYWv3rsiwhPqgoCojs4XCAtIzruqRPMQzD1Wo1oWzVViah5YggSFeJrBqSuq4bhlEt3rZt27kQxzEjoK0NLWmaHg4HopLQaLjZbERRtG07jmOYUi5JUpqmE6pkbYFkmqbk/f+ebV8IgkwjkefzubaD+3A4QFGOLMvMTzmV52Cy6bpeFAW42KCSxGaEJ4iiaFlWnudRFJmmOSYK2QpYryiRCIIMkcg8z5fLZZ7nzLxMqFj88+fPcrlk5lPked7UMmgYBsy5cBwHYpEwKwjG91frH3Vd9zxvwsEHtaalLMu/YaMbgiDd+bvpBzAgiyzXBld0uVwy6Q6Yww5FP9UXeX9/13UdgpKn0wm6ZcBUlGU5DMPj8eg4zmazgUKfLMtEUSwv3ORwwKfDmRcIgrRYkU15bUa8drvd5+dn0wyesiyXy+Vms1kul5ZlLRaL1WoFoyviOM6yjB6bBrFI0Kn5Z3Mh1yNN0z9//ry+vs420Q5BbiaRVRH0PG+5XHKeE4Yh+WKAtbharUAlwa0mzyT7rMmTb3JQnn6b9sw4jgN31jRNrxotQZC7k8juSJIE3YSgfaCqjAj+/PyQLDl8tYYZHd1/C42aGaDvfDjbEXkeiaRnRxKEC/zfqn4NYJKF4zie50GfIpSFy7JMb5WEX7QvgERuNpsBn4rJfYO/X5unhmeStBKxHzEcOSH0kZ85hIK3QGQkf/N/rKoqnbGBR/iedVWJBEGgR+dCehr6Dn3fhyEXjuPIsgxSRb5Fuq4HQQAV5nmeixcGfDHA0w/DkN6/SL/bOI6hGRwviMlhbjYzS+TM57Qsy8/PT/jIsK1TFEW48eu6rijKzAON6PdDzgV5S3QhB05aGiiRuq5DRSTh4+NDVdXtdtt9okR1tDgUIUJNJfQUNrUVknOZXxg2DA0UkyORn5+fRKDJe8Yhr9eQyKc8qufzOQzDppHStE+j6/p+v7/2Qcjz/HA4hGHYVOFbW2IMxSemad4wGFKWJRRKEx2nBZ2Gv617SrrvewyCAMoGgyAgC/tbgYWItYtJwYvvuKoxyzJd139+fvb7vW3bA7a/1i6kdV335+dHUZSfnx/TNMlxn3wt6kOvhx9zNJjre+Y3f9XzGEXRsEmX9OrjyRe0jtdfwzCud0b4S2LJIpZJEEURZt+Mof2SJVJ4PB6zLBMEYbvdglQN1kfbtonD1X0v9svLS5IksJHRsqwBJ0y9UL064RMBEBvVNA0lcrzQML0DcCt6AokMw3CkEtVehyOXoVedpMGMVJbBEtlFVXqxXq+vLpFkTZ1pmiDzYI51MSQ9z6u+IJ2fYQ4ZuaDhb1WPOzwOJ6C7SjI9M8xJiqIoCAL6v00m56+VSFmWa7/PSZLEFA6FYRjVsOOVbjxzSmQURVOFU3vd5lv1cVrvmP5GzCmRYIRN+EFqlWRiiaQVDb4nmqaBeUh2M/GjmYydyNwo4DWDINB1XZIkON+iKDbdYbIsC4Kg10XGnDDmJDE3TPKhUCIn56ElEkI9TX9IEASYwL/f703TrJaCDNCLSfRRURTyxgBo8+W/sZHHbbBEwseJoggO40i5lCRpDkc7yzLGcU6SBMxX+kf8iAB9U2IkEh6EgA58hSBMydy64cCR2wK5BLuoJHPCag2ioijCMPz5+SE2wiSXL0rktLf0W0kk4/pUZagaL4qiqPWoTnJAmlKd+/2e48sHQcB5eyNvZmMkcrDrLUnSer3e7/fH4zGKovHi2FUiaT0i7icJ3q3X644fgMQl6RQQkUjOFQNCDKIMd5UkSegD1xTxrMYKOOYhvCCdMYdMDkrkhFwpMnhtieTXUQiCwFEi5tqrWg8j3xvxqIZ5yk3LVEYGmiaUSCIOHGV0Xbd7SuMqEkk71CAcWZbBR+XfXZtUknZD6KRQ7QVN577hggPnfXCarPaCBuNRURTyYekcDkrkr5XI1jqzVjHij48aaezUuti9jNOiKGrf4RjRmVAiwXdsMnVncPVe+t6pRFEEiSFvrjX8RE4AuWfSH5s+ptULOsuyMAyTJAHXm/yi67r0eSXvqjVWADUNzOmHJ0iSBC8Cr/yrktookQP8644XCedLPjKe0xTp6vuatSo5JmMzlUQWRVGbHJMkabY42F8d66TofTJQyUHKwTiHQ1XV1WpFdn6VZQm1rLquM6keeDUmHA7j1wzDOBwO5BfBonx/f6fbfqCdkZOQpQMC1ZJa+G8YhvA24M7MzNT4zWiaVr2pRP8mCALIBsxX03t9Wqc4N824YjKWnOzNmP6fqYZMw0wZ5k3evAcXvv7V6vf9fp/n+Xw9CB2llJYYMNmKooD7TPd4KhM0DC7QoUD6zgCzI6uRQU5xKefGwtwnGZMTvtvkQfKJrlTf+3BWZF9bLMuyWt/t4axIfiSx+4tzaj/GvMOmr94wC4tJEqiqekMrMoqiak2+oihTJWEmtiKZlQxlWRKDK03TjmViQRAwYZ1q3yG5o8INhL7Bvr+/w/3EsqzaAPN2u+WUPoiiSG65tR2psIeW3Pbv5Eb6oMiyTDZtPDScK8o0ze6D3a7Umd50fQ4b3qGqKq25HetVroHv+2Q7C2G9XsdxPH9z5BCJBMGCB33fZ5q4m9hsNn/+/CEDdKGw/PX1FbYywIgdWHdzOByqBwhcaWjerF6amqZ5nsdvBZNlGW5u1SIJaOYnJj05DSiRY3y3q+4amgfLsmqHXe33+y4udhepvQaHw2GY/+44Diwf3W63txqStNvt3t7eqrY2McvmprvBydT3gI/cvVmbvlzAgR1QSU+6R4kl77ouNI93jP52LOX5bRmbKzUgMo7qI2a04ZrRLqzX62H1JZyMzZh3yPngE7buzOZoF0VRW+PZWtV3+4x2bQUWaX5s7Tzf7/cQQSCvQFQySRJaJaULrQ47HM31ek3XWk5bGEU8DpTIMV9jJrz1oHWR47mSRPJDpdXGtnuWyCzLam3t2+pjj1gkk9eGAVDgmdq2zTcGT6fTx8fH6XTa7XYkVgLOsqqqcRyTM+1dqI0zEhsWHBzw40hwU1XVaY1w9LWnOowdW/F+c0TiGqFSuHQXi8Vut7v/QaiQe2Bce0EQkiQZNv/wBrFIYr0zUdXaxxnyPLdtGzZi0+ES+K+qqkRk39/fSWRTlmUinYfDgTzeNAJvpEQSKSTvCiVyEnDsJv8qGhOm7HJsPc9bLBYk23mH+L7P5GbJ4/ewxqOfRDLTlshU3WFTmIjBCLYkLG8gsgsDdJMkYbyJpo7Uqb7J8AZkWQbVRokcyZXOFwJfnC5VqGVZOo6zWCxg1P9dfYS3C/d8kPtJJLOMvyxLIigDKjzoVDhRSfoJUA3u+z5Ec6A1fbYVenAHw22I4yUSTqsgCL/WoryeMPX6Ovi+TxY13/yYwEYpTmEA1LfcnpEtWaTdfdgsTKYQtNoINcnc4L4ZTOYT/YaRP9ebOn7bN38P77xp0sRUVxc/acOxAMD4uMkZqa0Mv8bBmTVdU+s35XkO5W/D/CnmbgaNUIyhulqtetWgjYScOfKJnqC+D7mJlXQ+nzcXrh3LG+DDpWlqWdZisZjZWDscDsvlslr4XAtJ8D6Mow0Kwty1ICI5LHfJnJ40TXe73Wq1Ii8Fuey3t7f5Dxb5RB1r4xEkTdPT6fT29rZcLv/8+WMYxjz31zRNh9mSEPFfLBaz2QGwGLL755otsDaZo10tdiO1S8NW8xA/OkkSYsGRbAm8MhnmOLONTS67+TtD0dF+FEc7yzLf9wdnpSb0JV3XHTOme8I6ymlHmdz22/cy8hCs12toeYbBFsMcW8dxmtoHyZ4cYlTeJIr09LMjUSIHKKNt2+OrUqYNt2VZ1n3Kde2XcZJS7V4S2RolaFqddNcSSZI2qqpChwyYeAOsfUmS+AcUzhk5jnNGcIk0P/22L5TI7peE7/tdUvOCIGiaBjtYZs5IdNkJcdXT3fGvm6YJdmvrXM4b2ijDG+xIuDDLMnCxYYvsME+/KIrj8Vh7ZKHTkYyTGjOjaQDknvzcvjZKZBdxdByHn4eFJV/wRaB/lzMM7Xq3fP52Gj4jbcnWv1udidtq/N4quz1cIklNDFyFcFCYrTIDgqFRFDEHC2aV04HOOTtPyd99bl8bJZKP7/ucgWagjJybKKfu59rf/MEW5ZUWM4BnXXWcWwfi8DcL3KNEEicUJIzkcFzX7ZXarr1fZVm23W7pbQ30IIDqIuzrmXjELn5uXxslknOdc1IxMBit9avLGWMxj3EURVHfINiY7YycM8LZhtbqbs/sQY6VSDryCDJH/tsrht09FsuRSDJ2qCpw49WThEGf2NdGiawlSRKO8ahpWsdL9+YSSb4OvYRysCHJOSN8b6zV4J3fmftrTDKOtGZDeaPjOGAq9xrGmed5x5pHek0YU6zQVNUly3KapiMnnTDt28gvIc/z1WrV1DtommYcx7cZ8joUWZZ93+8ulNcoluQPYG/9ih0Oh5lbOf4aWVwNqh/HMWxoGDa5KAzDLipGXrxXh6llWcOuY/LdIBKJNeS/BzLlvsl+fNz7JQhlFEWtAbFrtHLzXUxZllvLq9/e3uaciP7XyN8nte8wtmfYyB+4HFvPB5mSP0/L1GKxgK8BOal5nt9qWj0yM57ncc517VRT/hV+bx9Q1/U0Tfl55Ju8bdu2+e42/+51dxKp6zp8ntPplOc5s461O3Ecry6cTqemDw9jdCVJStO0ydg2DOPt7Y3W0DzPhx1NQRBg044sy+R+2/e7gTyoCUkG/dUGfPpWjF/jznq6MOYV4AvF0aNrjLnqYpmGYcjPbkMMZCaVnCRZRqIzrXNNGCD4Wp3uY1lWU6i4KApN0+Ds/vz8xHHseR5Ji9P2PGRXiqIYVi4A8RqIphPdh/Q9pmueO13Dya4M22jEqYQblq4h71DX9alqNibUh/FnpIuMkE1W95vRJtBl5PR/O9qhHM+6Viire8GYPkUiZ3D9maZJtuX0qrwlV3BRFORD3XyZBkrktSWSHw67B4mkX7DjxroBB1CSpGEvyIn+dz8jXXJKM8xt+GsSU5REJOEfvZI2HMMbJoBWl29AvJkxvOM4ZrxvErNwHCdN076WuWEYRBZFUSR/kd5z+zQ86+TgYbNs+dfJ9/f3XX2u8UsXmsyUweu/J3GBPc9rbd/2ff/aQ8unkUg6kQLjlaYNnMPyDfq4G4bB3Po2m021eKgsS8/zYA3OAJWkeyrIjRHk+FfpyJ0nqb6+vqaVyNajMWEUbNi1RH+u66UvBkvkJIBd0jq76OoqOZU5SirjIUAwbAh56yFzHIf4y/yAEeODkycP8LiLomAy9eMDQHdFa5nFTboaekSLuAwIQ7cGwnr570VRcLSmdq5+69Ljqms84MJudbRhIfO0kdymLo8xQUmw0q7UnjjlnmjilkZRRAfvJhdKy7LiOO4+ew0uQWK0941f1PafPdO2hi752bvtLGq9Uw7ox2idxtJ9X0gURV1sMf0f6CdzrrHauRiqqg7oh2n6sIIgDDsjfPNoQMKzo71FMrT3K5G0pdY3tX1V4EtC20rdI9zV+cFPZki2NsZe9fobT5dZtp7nDb7fc77qnuc1WS5JknieN3KaJMdWbVINeFe9LNymQOSwLBDfZB78yh1LCRlH8+4kkrbY4ShwZkAR8cqybNoZxeSVoyiCKwmKfmhzo3sZEMcJHeaG3JsJ1qv1yLIs6GC7k/fffWo/bLPq/uXpaLmIoqjruvMPlmXpuj5VVyJHSvhvT5Zlx3FaT1MURU0iPiBrD3TMQ/QVsuriv/Ef/zYSSWSIaFDrB7Ntu9fn1y60BnHJlHmQaV3XmZPXMZwEL1I7Ueq2w5BHEsfxmKwaSINlWY7jQNBjzjdfFAVk4YZlby3L8jyv1SieMFI04KX4g3Y6Krgsy4ZhgHzHF8IwBCnnHL3aYWWtX5MBZ0TXddu24b21Klq11K/jrREiGIODlS/XK1KDvE2XD6aqavebNvmcSZK4rsu3QKvKOOY+WS3UuvOCwVoHcPwugTGxuUkiA1OZafwwZVOMpa/SdRysTQcBWx2Ua6RDB+vjsLbjWkHnX0Ww4OAaVvmsElkd7Ngx9dxKFEWu667Xa+YUwsRy0zR7Hb6+ZbFwoTMqKYri/XidY3KX45nnbjFsP9Lga6C7rlVlrjpHssurbbfbLgo1iXzXCnpffRy21G9wvnuMmAy7RF+ucR0THSGuaPdLTdO0Jqeb3Fo5t5ruJ6xXojNJEnh+NSbwWHmb60nkbJHZOb+QcOp7ucmSJB2Pxyah4XSMEHuz+zXZ1yzgG4/j+3zmOSOD71vD+uJep73mSF3rYrEgSgSjHyzL6tJ1r6pqEAR5nhuGAW0MmqZBtAJiCk2/CCuMfd/vUkO7Xq993+/ur3meR7p3YOLGfr8Pw/Dz8xMM+Kl8jWuTpil5q3Aw5QuMaayqam2BNP0g+TcpWJnnI9i2TZey0+9fVVX+OaWXOEP1WMdrwPd9x3E4NeqSJBmGYVlWaxzD8zzHcUiLjqIohmHYtj04epCmKcQZ8zyHC7KXtWtdGBx+CcNws9nUHhC67aL19dM0FUWx41LJ1nJxWMtKXySQSRvwAa8ikZCxIo16URTBm9N1vUujGxwp0zR1XYeL8ng8cnILeZ6/vb1xuhQURfn8/ISjpqqqYRh9DxZ8tchvybIMcrlcLkkk7ratCMgMQGMV3dkCV1SrNFeBy3XAL3ZRTDK1L79QDfnJsgxve5KLlr7xzHanJOeC6G/1Zj8N14sZEfeEuNu96skhZ9rFSG4twISe7gk/HXHSiV//ZP02CIJcMRZZDRkQTWHCzLqut9ZOEjhdMUEQtAZlDMOYqjaFjtqQ6NL4gSsIgvwiiWSSA0RWmIi1ZVmt8VdRFCGNU41nF0VBCr5ajfwxfaxNEklXyD/3rm0EQYmcGNpmpN1txuKzLKt1NhxH3bqXnU+oklXRfPRicgRB5pZIxmYkU4KrgtglaE1G5FbpVXlwpTpnsCXnmYSMIMiTSCRjM0L13JgJF01d+kmS9DInJ293J8koDEoiCEpkD2hBJB2Eruv2rXrVNA00iNNu2Wu5GFTGjekytm279pM+06g0BEGJvDp03oa4on3tPggjHo9HSZKaQoqDmw1EURxQfK8oCpNnh0/6cI2JCILcUiKZYRbEFe0144ceGhpFUW3H2+DmpNa6olrgz9E2IxlQeqW8EIIgTyiRTPc0bWQNmHHEDyMej8cxjasDVJJxq0nuaIb1bAiCPIlEMu423Y4ywPSD8cJNzuzIoUkj18DSTUQPNy0NQZCbSSTTWkNnfgePL23atc3IrnChu/6O9JHpkU1PuXcbQVAirwJdwAh1jn2npTUJJSNqzNIiiAxmWea6LsixaZqc2qMB1h+j1CS3Pue4WQRBHlsimWaY9XpNsi4jJ9+JokgncKqDI+kFVbWLFphXG2A5NrnbmOBGEJTIHtYWrYZEO1p7ELtgGAa8YFEUtSLIbOImz6k+uW9tY/X5tLuNCW4EQYnsCm3ikbzNhEtliQ7Wyq4sy/R6T5gS5DgOY3gOK/8uLpD/0nOMsDcRQVAiu0K3wYAYTbuWhKS8m/pt6Jx4lmXMjPsBS46I5cgYjLR9imVACPJYXGvqeJdJxbIsw3h6WZYhu2IYxvl8HlCjQ8bT9x1MD7K13W5hcDGZYzx4GzIspTAMgxjFZVnquk7eGH+COoIg98UN5ZkO1UEGebCvraqq53m+73MWX0BDTlPEU9f1qSaTg9lIG4xMnSZ2cCMIOtqdIKE6kvPt1Y8ImKbJjC53LzAuNim+ybJsv9/XJtCZMOVI6acz7LRKYhkQgqBEdoVoImQzRjbG0O5zHMfVxYSqqjqOkyQJP0zZVJHeK9IqyzL9IKOSWAaEICiR7dA1QGB29d1cDM0zmqZtt1vtQnf3vLWEaHBeG6Sfaa2hVRLLgBAEJbKfZ0o6/4qicF0X9tV0Ebuq35okCeNrD14gqet6GIZ9PxSoYXV1OhZLIghKZG9ITWK1eLBLSTln0DcZMVn9FfgRsTrpECEoLG2QDtg0myRJVSKZslBUSQRBiewEsfiqcx9a/e4uCZAoikzTpF+KzAyn22x0XaczNsxotalWctMVRaiSCIIS2Q6J31VTGV2KgTjLv6rGHbFMmcZtIqAghUS5kiQJgmC73cI71HV9TOFO1S5GlUQQlMhO4gUmW1UyOiZhDMPgzJGkoeuNiEoWRbHf75m5lrZt+74f/wMp/NZ1fVhWmg5H1k7ZQBAEJbIeMhWN6dWrlRUOtm1zFMf3fdrVrQ7ohTBll/Ij27YHGIB0IaeiKBBk6G4IIwgyDzdrQOSXNJ5OJ8io0IWNtm0fDocB+Wiw0fI8Ly+kacoxQlVVhV+BhbRhGHZcDWYYRq/+S1VVv76+IB0vy/KfP3+wQxFBsAGxR1CymrrpXvM4P8zC2O7utizLRJSHvRSCIL/F0WaCklWVpOeW81EUZcC+B9d19/v9gD5IMEJ7Od2cWeuYwEEQlMhORlZtQU8URa7r8qvBoeGaad9mnhBFERNwJAFBTis3v2NnKpXE0CSCoER2kg9m6QIwyZRyTjwUOmqKouj7h0aqJLRR0uOB8TJFEJTIemi3mvG4++a456SvSsLkcxKIjOOYqS3HeiAEQYmshzbiGJNq5N7EMcDgDE7Isq9KZlnGD4B6nofXK4KgRLaopK7rtPTcSiXpLbIQGF2v10x2iKzl6UhRFEzklFkXMbhYHUGQZ5ZIRiWZ0OSEKgkJHGaABcQHmdSNaZrMO4yiyLIsJoM0YFlNkiR8cxKjkwiCEtmikkxocoxKSpKkaRqRPyJqdCu3YRi+7zPF4XS6mdNFPmylV+10IkbK8fJFEJTIf8H4obRK7vf7AVWQJMYH+8WIP0sEKMuypnp1OtrILAefRCVbhZIsDUcQBCWy3mBk0twwi3fAaodqiaUsy47jxHHMTHhkoo3MCIwmRetbVU5/ouPx2OR6Q3c5FpkjyJW4xx7tVnzft20bFsyCw8s08JVl6TjOgIbuLoii+PPzQ/46GImmaZL3AOtqy3+QLxiGMWzrLCFNU+gZp/80reZXLRRFkN/JQ0ok6IWu6yAW0IVSXUQThqFlWVVBuRLQaq3ruizLV+0lD/+B+Wi6ru/3e+ZucSeUZXk6ndI0zfMcYhTb7XbwqgwEQYlsJ89zwzBghb8oiq7rVgfk0Eo6M6IogmqrqkrsR13XBUFoXSvWEZhfGYYhHATyJ1zXnepPTCKOh8PB87yyLOERRVFkWT6fz0EQ9BqPhCA34KHDBEVR0Au8aqthkiS5qwNeXTsx/iAURcGEXy3LuoeGHJjzxhwBGBTC1JYiCKZrrgXdpFi7MqFpOJAkSa7rRlHEGXVhmmYURUEQNC3d7oWiKJN/fLJZtzabNMmmnUkSa9XkGHZVIiiRM0H3OINvS08db+rmhi0O9NTeprS14zjEdYXWwwHRRkEQrlqj0yRJ1ZnqM9B6VDVNw68fghI5q09XrYyBFMq0aQHizvd14QdXR05iuMEbmKfgvMvUdCx9R1Ai54YJTQ6jS/25LMuw86v1mdvtNggCcNXBkLy2NLQ2GsGbv56T20UfMQqJoETejKYy715p6KmS2r7vZ1kWhiG87DzebnVOcC2qqnqeN+1bsiwL8lEcyx1dbAQl8sZ00QjYyTVzad7k6WyOQd09WjqVVkJazLIsTiBSURTsBUJQIu/C6R62f+ba1Obcr+d0w61C07QuO3/ABw/DcICKdZkkcu2EFYKgRPaDU81TGyCbRFVFUYRcueM4lmXV5ossy/J9Hx6HjHPrZxksLpwWb75pSVrUJ9FHrPJBHpEH7q7p3q7HaUNcr9eqqqZpej6fDcOA3uqbvM/tdut5Xu2P0jQF44506ZRlSXfUdOnYKcsyjmPYIV6WJbyUqqq73Q6aAvnxWV3XVVXVNK3aae77/tvbW5c7kOM42KyBYHfNPTrd1REP9K4YaFCpWluSJGUXho1Z60utA54kiSRJxP7yPK9WDUVR1HXd87xeltqA1BaM5AADsyiKJlm/9pWGDjuCjvbERFFEK51hGFEUgXTSE2pJ/A4A0ZnndiXLMhMETJIE0kpQHt8xuQSDf7qISK+szjVuAPAZ++odHJbB8+UQBCWyETprIctyEARZloFQkgm1MPnxJkY9XV4eRZEoitAB2Tq/R5Kk7XbLWLtwG2g9JlO1V3aJ0uoUjOKD6rXm1oMgIM4+hHExxImgRE7so9GmEygjeZBMqCXSOTPgxrYWYGuaBromCILruuSj1RqVXTq1i6IIgsA0zXmiCh1z67T8hWHImQyk11H7ypZloZ+OYLqmPY1j2/bX1xdpK9xut2EYOo7z/f1t2/Z2uxVFMc9zx3FOp9PN37CmaR8fH6CJjuOIovj29qYoiu/7dHTy9fWVqUMsy/Lr60sURdu2TdPs4q3neQ6DgeM4pvNCnGpHVVXpV84vvLy8wHu+N5pmjCLIb0zXcOwmeq8hNMOQjTG08ZVl2Xa7HbDvYUJIasUwDLCP1ut1NRgHGSdBEPb7PfyUCRpYlhWGYS+j+3g8NoUsa99DbSA4iqL9fm+apqZpIw1VTdPGr72s7rBEEHS06yWAdqhJ6iYIAk3TIPUBKgCLce7BD+W08YEAEUeyacoRVPzAEKOOxY/VeOV6vR555KMoYsTOvdAasaUbeARBgC2+0A4PMPfCajwXFmwgCDrancjz3LIs4hWCMq7Xa1iDE8fxZrMxTRNcszAMPc+DJ0P2II7j9/f3Od8wjOzO8/z9/X2/34OTm6bparUiA9gPhwPTCyhJkiiKVd8ZUiWGYVQrH8uyPJ/Pvu/HcVwN/xmGQdxVcK5hVw9xwPkbe87ns+M4UK1JIh5pmoZh2MtrtiyLCVOWZQkvC7Wu9J+gXSi88hF0tHsQRRHtUUL8LssyUjWp6zox0MD7VhQFGmmmOiOQm259mncBBAjSNVAKQ7Yt6roOM4OJ2QtPa3VRQfjgQ021OAEs1tZcypxIkoQXPIKO9gRCSVfPQGCOeX41VCddGGweEk9TudDFjKpOjthut/RQSxh4XquPs5VG3hU4cAhBiRwrlEz0DRI4TdkJMCpBGSHzAyGw/X6vaVr3VA+dF6ad1gG5iKIoiBdMDDdJko7HI3y09XqdJAk8B3Ig8xRI3gM4sxJBiZw+mUMiX5zCOlKJDYXNRFKTJHFdd71ez5DwgSLtqrzCLDJwybfbLRQMkUG/49PEDwGd7kcQlMgJgFw24/Oqqso3KiEOCF4w0wGSZVkQBGBgzunngiHMpFDgvbVum3kC1uu167oojghK5LVIksQ0TdprBqOSU2lId4LDM6tf0WuUE9Eryfgcj8enLKKGRWymacKeS7x6kQFg0c9AwgtxHJP+HKib2W63tXJTlqXneb7vw/NVCroyxvO83W6Hh3ewJkIREsCvN0KQLqBEjiVNU9/3wzBktFLX9fV6XTtd0ff9alsefKWbKviQ1vSUbdvYUIigRD6SVtL1gIqiVFuY0zSFSbfMiFyEzi/BTF9y/0jTlB6QvN1uoWMdjxWCEvkwWhn/A/1lhgoeGPfA+NfkF0ExiYA2DUt/biRJglafpvLyNE09z4vj2Pf9m5egIyiRyPRySdB1HawkENBqdht0kwzOgY465jnwu/A64Gz6vu95Hm3PPooyWpaF/jKCEvl75RLMQ86IMFoxwcEcXBUEfytNU1phGbOL+S84s3me05koImG1/d2ojAhKJHIVxSRjGbvEIhl7s8tKr5HEcbzb7SB9BMu5Om7yagXePLjSqIwISiTS1eijczgd59GCGUj72uRHrYN2iOUIAg1vgGRFmGWQsCqyu21IB16rYQE83QhKJDKZvUmHI0kscsBAb/Dcq9HMMYAQ05EBTKEgKJHIHUEkj/yD6OnIciLGnact1mocE0FQIpFnUFI+jLeOICiRCIIgSA1/4SFAEARBiUQQBEGJRBAEQYlEEARBiUQQBEGJRBAEQYlEEARBiUQQBEGJRBAEQYlEEARBiUQQBEFQIhEEQVAiEQRBUCIRBEFQIhEEQW7B/x8AAP//w9Zz9zL6ii4AAAAASUVORK5CYII=;" vertex="1" parent="1">
          <mxGeometry x="636.38" y="460" width="98.33" height="55" as="geometry" />
        </mxCell>
        <mxCell id="uCTicKS0ZdumBR-8Xd1L-30" value="" style="endArrow=classic;html=1;rounded=0;strokeWidth=3;strokeColor=#97D077;fillColor=#dae8fc;" edge="1" parent="1">
          <mxGeometry width="50" height="50" relative="1" as="geometry">
            <mxPoint x="374" y="310" as="sourcePoint" />
            <mxPoint x="454" y="310.5" as="targetPoint" />
          </mxGeometry>
        </mxCell>
        <mxCell id="uCTicKS0ZdumBR-8Xd1L-31" value="&lt;font style=&quot;font-size: 14px;&quot;&gt;Request&lt;/font&gt;" style="edgeLabel;html=1;align=center;verticalAlign=middle;resizable=0;points=[];" vertex="1" connectable="0" parent="uCTicKS0ZdumBR-8Xd1L-30">
          <mxGeometry x="-0.3661" y="-1" relative="1" as="geometry">
            <mxPoint x="14" y="-21" as="offset" />
          </mxGeometry>
        </mxCell>
        <mxCell id="uCTicKS0ZdumBR-8Xd1L-35" value="" style="endArrow=classic;html=1;rounded=0;strokeWidth=3;strokeColor=#EA6B66;fillColor=#d5e8d4;" edge="1" parent="1">
          <mxGeometry width="50" height="50" relative="1" as="geometry">
            <mxPoint x="454" y="370" as="sourcePoint" />
            <mxPoint x="374" y="370.3999999999999" as="targetPoint" />
          </mxGeometry>
        </mxCell>
        <mxCell id="uCTicKS0ZdumBR-8Xd1L-37" value="Response" style="edgeLabel;html=1;align=center;verticalAlign=middle;resizable=0;points=[];fontSize=14;" vertex="1" connectable="0" parent="uCTicKS0ZdumBR-8Xd1L-35">
          <mxGeometry x="-0.3464" y="-1" relative="1" as="geometry">
            <mxPoint x="-8" y="-20" as="offset" />
          </mxGeometry>
        </mxCell>
        <mxCell id="uCTicKS0ZdumBR-8Xd1L-38" value="Server" style="text;html=1;align=center;verticalAlign=middle;resizable=0;points=[];autosize=1;strokeColor=none;fillColor=none;fontSize=14;fontStyle=1" vertex="1" parent="1">
          <mxGeometry x="488.1" y="230" width="60" height="20" as="geometry" />
        </mxCell>
        <mxCell id="uCTicKS0ZdumBR-8Xd1L-49" value="" style="strokeWidth=1;shadow=0;dashed=0;align=center;html=1;shape=mxgraph.mockup.containers.browserWindow;rSize=0;strokeColor=#666666;strokeColor2=#008cff;strokeColor3=#c4c4c4;mainText=,;recursiveResize=0;fontSize=14;" vertex="1" parent="1">
          <mxGeometry x="71" y="242.5" width="300" height="210" as="geometry" />
        </mxCell>
        <mxCell id="uCTicKS0ZdumBR-8Xd1L-50" value="&lt;font style=&quot;font-size: 15px;&quot;&gt;HOME&lt;/font&gt;" style="strokeWidth=1;shadow=0;dashed=0;align=center;html=1;shape=mxgraph.mockup.containers.anchor;fontSize=17;fontColor=#666666;align=left;" vertex="1" parent="uCTicKS0ZdumBR-8Xd1L-49">
          <mxGeometry x="60" y="12" width="110" height="26" as="geometry" />
        </mxCell>
        <mxCell id="uCTicKS0ZdumBR-8Xd1L-51" value="&lt;font style=&quot;font-size: 14px;&quot;&gt;https://bba053.csano.no&lt;/font&gt;" style="strokeWidth=1;shadow=0;dashed=0;align=center;html=1;shape=mxgraph.mockup.containers.anchor;rSize=0;fontSize=17;fontColor=#666666;align=left;" vertex="1" parent="uCTicKS0ZdumBR-8Xd1L-49">
          <mxGeometry x="130" y="60" width="250" height="26" as="geometry" />
        </mxCell>
        <mxCell id="uCTicKS0ZdumBR-8Xd1L-52" value="&lt;b&gt;Web Browser&lt;/b&gt;" style="text;html=1;align=center;verticalAlign=middle;resizable=0;points=[];autosize=1;strokeColor=none;fillColor=none;fontSize=14;" vertex="1" parent="1">
          <mxGeometry x="171" y="215" width="100" height="20" as="geometry" />
        </mxCell>
      </root>
    </mxGraphModel>
  </diagram>
</mxfile>
